{"glyphs":{"0":{"ha":705,"x_min":-32,"x_max":801,"o":"m 760 779 q 801 743 801 772 l 801 732 q 720 635 801 706 l 692 602 q 763 420 763 496 q 608 106 763 266 q 361 16 479 16 l 348 16 q 150 71 283 16 l 128 84 l 123 84 q 39 8 108 84 q 14 0 28 0 l 1 0 q -32 33 -32 7 l -32 43 q 47 144 -32 71 l 50 155 q -29 382 -29 255 q 253 770 -29 662 l 367 770 q 619 670 480 770 l 627 670 q 758 779 732 779 l 760 779 m 60 366 q 120 214 60 283 l 125 214 q 554 600 302 355 l 554 605 q 299 684 465 684 l 291 684 q 128 586 230 684 q 60 366 60 506 m 196 155 l 196 146 q 351 106 313 106 l 356 106 q 559 184 465 106 q 665 374 665 305 l 673 418 q 627 537 673 467 l 622 537 q 196 155 409 335 z "},"1":{"ha":659,"x_min":3,"x_max":837,"o":"m 210 890 l 227 890 q 251 884 233 884 l 260 872 l 260 843 l 254 834 l 254 807 l 239 784 l 239 760 l 248 751 l 245 736 l 245 719 q 271 640 271 670 q 307 560 279 612 q 339 481 319 545 q 392 395 375 443 q 431 321 414 373 q 492 236 473 285 q 539 177 502 236 l 554 163 l 554 154 l 548 145 l 566 130 l 610 145 q 633 154 612 154 l 713 151 l 719 157 l 728 157 l 745 136 l 758 136 l 766 142 l 799 142 l 813 145 l 837 113 l 837 106 q 802 86 834 98 l 790 74 l 769 74 q 728 47 747 73 l 728 18 q 719 12 728 12 l 722 -31 l 713 -31 l 713 -17 l 707 -8 l 707 7 q 684 68 690 7 l 672 65 l 672 45 l 657 24 l 657 18 q 677 -17 657 5 l 677 -28 l 666 -40 l 663 -40 l 654 -35 l 637 -35 l 637 -43 l 640 -46 l 640 -49 l 637 -52 l 633 -52 l 625 -46 q 619 -61 625 -61 l 616 -61 l 616 -46 l 610 -46 l 610 -55 l 616 -64 l 616 -70 l 604 -87 l 598 -81 l 595 -81 l 595 -134 l 598 -149 l 595 -149 l 598 -152 l 598 -191 l 593 -197 l 589 -193 l 589 -143 l 587 -143 l 574 -155 l 578 -167 l 574 -170 l 572 -170 q 554 -120 561 -120 l 557 -99 l 557 -79 l 548 -81 l 548 -108 l 543 -114 l 539 -111 l 539 -99 l 543 -85 q 536 -70 536 -85 q 525 -31 528 -70 q 492 21 492 6 l 463 21 q 442 -14 454 19 l 439 -14 q 433 1 439 1 l 422 -11 l 418 -11 l 422 3 l 418 7 l 416 7 l 404 -17 l 404 -49 l 392 -66 q 383 -28 389 -33 l 383 -5 l 336 12 l 336 30 l 363 56 l 372 54 q 404 71 372 60 l 422 74 q 445 89 422 88 l 392 254 q 374 286 385 254 q 339 351 361 292 q 319 369 330 369 l 313 363 l 315 360 l 315 345 l 307 336 l 310 333 l 310 321 l 301 321 l 301 348 l 298 369 l 304 374 l 304 378 l 286 401 l 292 407 l 298 407 l 301 404 l 304 404 l 304 413 q 218 522 283 454 l 210 560 q 218 583 218 562 l 192 607 l 183 602 l 186 598 l 186 583 l 180 578 l 172 619 l 177 637 l 174 640 l 168 640 q 142 602 162 638 l 142 598 l 151 574 l 148 572 l 144 572 l 139 578 l 136 578 l 136 563 l 130 557 l 127 560 l 127 563 l 130 583 l 127 587 l 124 587 l 100 545 l 98 548 l 95 548 l 95 539 l 92 539 l 83 545 l 80 543 l 80 539 l 89 536 l 89 530 l 71 504 q 65 519 71 519 l 54 507 q 65 498 54 503 l 74 501 l 74 460 l 60 422 l 62 380 l 62 369 l 68 360 l 65 313 l 68 289 l 65 286 l 62 286 l 54 298 l 54 336 l 47 345 l 47 387 l 39 387 l 39 363 l 33 363 l 33 395 l 41 407 l 39 410 l 39 466 l 41 469 l 41 472 l 30 486 q 3 504 14 486 q 71 607 5 530 q 139 763 131 698 q 144 775 144 763 l 142 778 l 142 781 q 165 863 157 811 q 192 884 176 884 l 210 890 m 625 45 l 640 30 l 657 54 l 657 56 l 648 65 l 642 65 l 625 45 z "},"2":{"ha":997,"x_min":-140,"x_max":1312,"o":"m 803 806 l 898 806 q 955 739 928 789 l 955 726 q 901 578 955 641 q 882 553 901 568 q 831 511 882 534 q 768 445 831 498 l 711 407 l 610 347 q 521 287 566 302 l 395 214 l 391 217 l 388 217 l 382 208 l 382 204 q 496 179 382 187 l 540 189 l 755 189 l 768 198 l 879 198 l 926 189 l 955 189 l 955 201 l 907 261 l 904 264 l 904 340 q 942 375 910 352 l 1031 375 l 1078 340 l 1084 312 l 1084 293 q 1034 245 1084 285 q 1056 211 1034 233 q 1100 166 1056 199 q 1236 68 1114 125 q 1312 14 1266 65 l 1312 -17 q 1265 -68 1298 -45 l 1249 -68 q 1094 8 1204 -33 l 1012 50 l 1002 46 q 958 65 1002 56 q 882 84 937 75 l 847 84 l 838 90 l 790 90 l 787 94 l 784 90 l 768 90 l 755 100 l 736 100 l 724 90 l 711 90 l 708 94 l 705 90 l 530 90 l 521 84 l 518 84 q 357 62 394 75 l 338 65 l 321 65 q 198 52 296 56 l 84 21 l 81 18 l 37 18 q -74 -4 -42 -4 l -77 -4 q -140 37 -104 -4 l -137 40 l -137 43 l -140 52 l -86 106 q 15 157 -76 117 q 87 179 15 163 q 208 233 142 187 q 296 271 283 271 q 442 337 391 297 q 543 401 484 358 l 635 448 q 822 610 699 469 l 844 663 l 844 688 q 819 701 844 697 l 755 701 q 613 657 705 701 l 502 619 q 293 489 390 554 q 236 445 236 450 q 135 372 156 372 q 119 366 135 366 l 87 366 q 34 401 52 366 l 34 429 q 50 454 47 439 q 59 479 56 454 l 65 486 l 65 553 q 31 593 31 585 q 113 648 57 648 q 189 606 160 648 l 189 568 l 195 568 l 220 581 q 388 682 279 638 q 483 720 388 695 q 553 745 508 736 q 695 800 663 800 l 701 800 l 803 806 z "},"3":{"ha":885,"x_min":-161,"x_max":960,"o":"m 775 930 l 784 930 q 833 880 833 923 q 763 800 833 841 q 559 646 644 688 l 559 644 l 566 637 q 913 468 829 637 q 960 342 960 399 l 960 323 q 756 50 960 188 q 479 0 614 0 l 390 0 q 178 68 264 0 q 12 224 93 106 l 12 240 q 73 302 27 302 l 85 302 q 169 234 169 291 q 243 144 192 174 q 387 102 306 102 l 452 102 l 455 98 l 458 102 l 489 102 q 723 148 606 102 q 858 332 858 250 q 769 490 858 396 q 556 536 694 536 l 495 538 l 372 532 q 323 585 330 532 q 393 659 323 626 q 569 770 439 695 l 569 779 q 338 766 478 766 l 175 766 q 169 758 169 766 q 203 668 203 691 q 153 612 195 612 q 85 692 114 612 q -130 825 49 757 q -161 884 -161 845 q -117 926 -148 926 l -99 926 l 15 886 q 292 865 81 865 l 304 868 l 307 865 l 329 868 l 338 868 q 775 930 600 868 z "},"4":{"ha":590,"x_min":-39,"x_max":648,"o":"m 523 936 q 571 871 562 936 q 526 587 571 767 q 593 561 526 574 q 648 487 648 537 q 606 449 648 460 l 590 449 q 507 471 524 471 q 477 404 493 471 q 314 132 443 279 q 343 119 314 119 l 343 112 q 321 93 321 112 l 317 96 l 311 96 l 311 93 l 317 93 l 298 61 l 301 52 l 298 52 l 288 54 q 279 48 288 48 q 292 22 279 37 l 292 19 l 288 19 l 260 48 q 240 32 260 37 l 231 35 l 231 32 q 218 26 231 26 l 212 39 l 208 39 q 199 16 203 39 l 195 16 l 182 58 l 167 67 l 163 67 l 154 61 l 151 61 l 151 67 l 147 71 l 151 74 l 154 74 l 141 125 l 144 147 l 141 147 l 134 154 l 134 157 q 151 173 151 157 l 134 193 l 138 195 l 141 195 l 160 182 l 176 193 l 180 189 l 182 193 l 180 195 l 180 202 l 182 205 l 180 208 l 180 228 l 186 228 l 192 199 l 195 199 l 205 205 l 205 202 l 208 205 l 215 205 q 224 195 215 195 q 334 334 256 218 q 385 477 385 444 l 381 481 l 349 481 q 22 462 238 481 q -39 509 -39 471 l -39 529 q 58 612 -39 565 q 170 763 147 681 q 189 865 170 865 q 224 882 189 876 l 231 882 q 298 802 298 882 l 298 798 q 215 618 298 757 l 189 587 l 192 583 l 343 587 l 410 587 q 462 824 431 587 q 488 926 462 909 q 523 936 503 936 m 247 256 l 256 256 l 256 250 l 250 243 l 240 243 l 240 250 l 247 256 m 99 240 l 109 231 l 109 228 l 102 228 l 93 237 l 96 240 l 99 240 m 147 224 l 151 224 l 157 218 l 154 215 l 151 215 l 147 218 l 147 224 m 205 224 l 212 224 l 212 212 l 205 212 l 205 224 m 96 167 l 109 167 l 109 160 l 96 160 l 96 167 m 106 115 l 115 115 l 115 109 l 106 109 l 106 115 m 99 83 l 102 83 l 96 77 l 93 77 l 99 83 m 330 45 l 336 45 l 346 35 l 336 35 l 330 41 l 330 45 m 151 26 l 160 26 l 160 22 l 154 16 l 151 16 l 151 26 m 243 19 l 250 19 l 263 9 l 260 0 l 253 0 l 243 19 z "},"5":{"ha":707,"x_min":-66,"x_max":783,"o":"m 70 921 q 210 830 110 921 l 323 747 l 327 751 l 327 755 l 319 804 l 319 815 q 402 906 338 906 l 410 906 q 467 857 467 899 l 467 849 l 451 796 l 451 793 q 511 665 451 777 l 511 638 l 508 612 q 598 589 520 601 q 783 332 783 533 q 440 7 783 87 l 319 0 q 2 106 57 0 l -1 125 q 59 185 7 185 q 172 136 71 185 l 327 125 q 644 260 551 125 l 659 336 q 595 456 659 425 q 406 487 513 487 q 28 396 194 487 l 2 389 q -66 449 -66 401 l -66 468 q 6 721 -59 515 l 9 759 l 6 868 q 70 921 6 909 m 93 570 l 96 566 l 100 566 q 296 604 200 593 l 300 608 l 300 612 q 142 725 243 646 l 138 725 q 108 615 132 724 l 93 570 z "},"6":{"ha":746,"x_min":-83,"x_max":848,"o":"m 595 748 q 630 713 630 742 q 525 655 630 677 q 311 515 378 592 q 147 281 197 376 q 115 176 115 199 l 119 176 q 522 310 248 237 q 717 345 654 345 l 749 345 q 848 291 848 345 l 848 278 q 499 -28 848 198 q 266 -115 372 -115 q 74 -32 151 -115 q 29 41 74 -23 l -37 6 l -47 3 q -83 38 -83 9 q 26 131 -83 68 q 205 498 74 352 q 419 684 315 644 q 595 748 543 748 m 100 80 q 272 -41 136 -41 q 538 86 363 -41 q 762 265 655 157 l 762 271 l 723 271 q 167 118 559 265 q 100 80 103 89 z "},"7":{"ha":580,"x_min":-303,"x_max":790,"o":"m -257 985 l -249 985 l 8 913 q 219 897 107 897 q 616 959 494 897 l 648 968 l 653 968 q 699 928 699 960 l 699 911 q 559 782 696 880 q 348 479 398 597 l 348 477 q 604 485 494 485 l 622 488 l 633 485 l 639 485 l 639 488 l 667 485 l 702 485 q 790 439 790 485 l 790 434 q 747 388 790 399 l 684 391 l 622 391 q 288 371 288 386 q 242 172 242 252 l 242 160 q 313 83 242 106 q 334 45 334 61 q 294 0 334 9 l 279 0 q 168 77 229 0 q 148 146 148 115 l 148 180 q 182 363 148 232 l 176 368 l 94 357 q 42 406 42 363 q 193 463 42 463 q 245 500 234 463 q 405 745 315 627 l 456 805 l 456 813 l 311 805 l 145 805 q -58 831 68 805 l -58 825 q -12 753 -12 782 l -12 745 q -63 699 -12 710 l -80 699 l -155 711 q -189 682 -189 711 q -223 659 -205 659 l -237 659 q -300 720 -279 659 l -300 728 q -200 802 -300 788 q -189 808 -189 802 q -303 930 -303 890 l -303 942 q -257 985 -303 972 z "},"8":{"ha":688,"x_min":-76,"x_max":769,"o":"m 109 880 q 274 847 253 869 q 495 692 345 814 q 510 644 510 667 q 345 507 510 595 l 345 503 q 409 472 351 496 q 657 315 545 408 q 769 137 769 207 q 536 5 769 32 l 421 0 l 376 0 q 130 33 256 0 q 33 117 59 60 q 18 208 18 167 q 157 479 18 350 l 157 482 l 7 543 q -76 657 -76 587 q 79 873 -76 760 l 109 880 m 7 657 q 241 545 7 618 l 243 545 q 411 647 255 545 l 411 652 q 178 789 244 789 l 132 794 q 16 685 81 794 l 7 657 m 102 208 q 132 124 102 146 q 371 83 231 83 l 416 83 q 683 134 613 83 l 683 144 q 609 243 683 170 q 304 426 492 349 q 254 444 264 444 q 115 277 154 380 q 102 208 102 235 z "},"9":{"ha":342,"x_min":-69,"x_max":367,"o":"m 96 1009 q 332 984 148 1009 q 367 935 367 964 l 367 916 l 342 707 q 367 661 367 679 l 367 657 q 323 604 367 624 q 255 287 314 589 q 193 25 214 94 q 140 0 171 0 q 99 56 106 0 q 214 610 199 515 q 130 661 214 621 q -69 878 -69 766 q 27 1000 -69 966 q 96 1009 58 1009 m 37 884 l 37 876 q 227 726 37 821 l 230 726 q 258 882 243 726 q 90 906 240 900 q 37 884 48 906 z "}," ":{"ha":386,"x_min":0,"x_max":0,"o":""}," ":{"ha":386,"x_min":0,"x_max":0,"o":""},"!":{"ha":386,"x_min":0,"x_max":0,"o":""},"\"":{"ha":493,"x_min":0,"x_max":0,"o":""},"#":{"ha":772,"x_min":0,"x_max":0,"o":""},"$":{"ha":778,"x_min":-24,"x_max":785,"o":"m 475 1022 l 482 1022 l 496 1007 l 496 1004 l 486 985 l 490 981 l 490 978 l 482 919 l 486 889 l 482 874 l 486 863 l 475 863 l 475 893 l 471 893 l 463 827 l 463 815 l 471 808 l 475 845 l 486 845 l 482 823 q 526 756 498 776 l 530 756 l 537 764 l 537 789 l 530 815 l 541 827 l 541 838 l 526 848 l 523 852 l 523 871 q 574 904 531 888 q 589 926 574 920 l 593 926 l 611 915 l 623 919 q 644 878 644 900 l 648 874 l 652 874 l 659 882 l 663 882 l 655 871 l 655 833 l 652 815 l 663 804 l 663 679 q 688 635 673 650 l 688 597 l 677 587 l 682 583 l 682 531 l 677 528 l 677 524 q 759 424 728 489 l 770 413 l 766 402 q 781 361 777 402 l 785 357 l 785 265 l 781 262 l 785 258 q 733 140 785 217 q 674 88 726 140 q 585 40 661 75 l 552 40 l 530 37 l 441 77 l 430 62 l 430 59 l 441 -22 l 437 -33 l 441 -66 l 441 -107 l 460 -136 l 460 -177 l 456 -221 l 452 -221 l 449 -218 l 445 -218 l 441 -221 l 434 -214 l 434 -229 l 427 -229 l 427 -214 l 423 -214 l 419 -240 l 412 -240 l 412 -229 l 416 -210 q 397 -203 397 -210 l 397 -199 l 401 -195 l 401 -192 l 390 -181 l 390 -155 q 375 -103 381 -103 q 357 -170 364 -170 l 353 -159 l 357 -148 l 353 -144 l 349 -144 l 345 -148 l 342 -148 l 345 -192 l 345 -195 q 319 -248 345 -229 l 304 -248 l 283 -225 l 283 -199 q 290 -181 283 -181 l 279 -155 q 319 59 279 -100 l 319 114 l 298 136 l 294 136 l 283 92 l 271 92 l 268 118 l 264 118 l 264 106 l 260 106 q 238 129 245 114 l 242 144 l 238 147 l 235 147 q 172 55 212 127 l 168 55 l 161 62 l 161 66 l 168 77 l 168 81 l 153 81 q 146 66 153 66 l 142 70 l 142 88 q 153 96 153 88 l 153 100 l 146 106 l 142 92 l 127 92 q 73 133 107 92 l 73 254 q 61 310 61 269 q 87 365 61 353 l 113 365 q 157 298 121 365 q 183 273 176 273 l 186 277 l 186 295 q 179 328 179 302 q 146 402 163 345 q 54 513 54 488 l 50 561 l 91 597 q 58 623 77 623 q 9 661 49 637 q -24 723 -24 686 l -24 756 q 87 897 -24 855 l 138 900 l 253 878 q 283 1015 253 1015 l 286 1015 q 319 948 303 1015 l 349 874 q 401 856 384 856 l 412 871 l 412 911 q 475 1022 435 984 m 475 956 l 471 941 l 471 930 l 475 930 l 478 952 l 478 956 l 475 956 m 264 897 l 264 871 l 275 871 l 275 878 l 268 897 l 264 897 m 449 882 l 449 848 l 452 848 l 456 867 l 456 889 l 449 882 m 545 793 l 545 782 l 570 764 l 574 764 l 574 812 l 570 812 l 545 793 m 98 760 l 102 745 l 98 741 l 98 738 q 316 671 108 688 l 323 701 q 250 749 323 722 q 198 793 208 793 l 172 800 l 153 800 q 98 760 120 800 m 549 756 l 549 745 l 552 745 l 559 753 l 556 756 l 549 756 m 375 715 l 375 712 q 386 642 375 642 l 397 642 l 404 671 q 382 715 404 703 l 375 715 m 441 675 l 441 635 l 504 616 l 523 616 l 523 620 q 475 675 516 643 l 456 682 l 449 682 l 441 675 m 165 583 q 194 535 174 546 q 264 461 201 535 l 323 369 l 327 351 l 338 351 l 338 431 l 327 446 l 327 494 l 338 509 l 338 553 q 301 564 338 561 l 298 568 l 227 568 q 179 579 222 574 l 176 583 l 165 587 l 165 583 m 644 553 l 667 535 l 670 535 l 670 546 l 663 557 l 663 561 l 670 572 l 670 576 l 667 576 l 644 553 m 441 520 l 441 410 l 434 398 l 434 324 l 423 313 l 427 295 l 427 232 l 423 229 l 423 225 q 460 195 435 224 q 519 165 506 165 q 644 218 625 199 q 682 306 682 254 l 682 321 q 670 347 670 321 q 633 406 644 377 q 534 498 625 406 q 460 528 481 528 l 449 528 l 441 520 m 371 505 l 371 428 l 386 398 l 390 398 l 390 417 l 401 428 l 397 431 l 397 490 l 401 494 l 401 498 l 382 513 l 378 513 l 371 505 m 257 162 l 257 155 q 264 140 264 155 l 283 159 l 271 170 l 257 162 m 275 81 l 283 81 l 283 70 l 275 70 l 275 81 m 364 -33 l 353 -74 l 353 -103 l 364 -103 l 364 -81 l 371 -74 l 378 -81 l 382 -77 l 382 -62 l 371 -48 l 375 -37 l 371 -33 l 364 -33 m 345 -121 l 345 -129 l 357 -129 l 357 -121 l 345 -121 z "},"%":{"ha":1235,"x_min":0,"x_max":0,"o":""},"&":{"ha":926,"x_min":0,"x_max":0,"o":""},"'":{"ha":265,"x_min":0,"x_max":0,"o":""},"(":{"ha":463,"x_min":0,"x_max":0,"o":""},")":{"ha":463,"x_min":0,"x_max":0,"o":""},"*":{"ha":541,"x_min":0,"x_max":0,"o":""},"+":{"ha":811,"x_min":0,"x_max":0,"o":""},",":{"ha":292,"x_min":-42,"x_max":275,"o":"m 237 220 l 262 220 l 275 193 q 218 101 275 142 l 104 -40 q 23 -143 104 -50 q -23 -214 -4 -195 q -28 -205 -28 -214 l -37 -211 l -42 -205 l -42 -197 q 4 -86 -12 -135 q 15 -67 9 -86 q 28 -43 24 -43 l 31 -45 l 34 -45 l 39 -40 l 37 -37 l 37 -29 l 69 17 l 64 22 q 99 66 87 36 q 210 204 175 166 l 213 201 l 216 201 q 237 220 222 212 z "},"-":{"ha":463,"x_min":0,"x_max":0,"o":""},"­":{"ha":463,"x_min":0,"x_max":0,"o":""},".":{"ha":300,"x_min":-73,"x_max":366,"o":"m 117 375 l 121 375 l 121 369 l 117 373 l 117 375 m 121 369 l 126 364 l 126 349 l 121 349 l 121 369 m 96 302 l 100 302 l 100 296 l 96 300 l 96 302 m 207 298 l 212 298 l 212 292 l 203 283 l 203 288 l 207 298 m 100 296 q 104 288 104 296 l 115 270 q 123 251 123 270 l 136 244 l 147 253 q 151 240 151 253 l 162 240 q 192 260 183 250 l 195 260 l 195 257 l 186 242 l 186 232 q 216 216 198 232 l 218 219 l 220 219 l 229 216 l 231 219 l 233 216 l 233 212 l 231 210 l 258 174 l 258 172 l 260 172 l 284 182 l 284 180 l 282 178 q 271 165 271 174 l 269 163 q 280 133 280 149 l 282 133 l 297 142 l 301 138 q 282 127 301 134 l 280 125 l 280 116 q 288 112 288 116 l 288 103 l 284 97 l 284 84 l 291 77 l 312 77 l 312 73 l 282 73 q 267 50 273 69 l 271 43 l 271 35 l 220 -25 q 199 -66 210 -25 l 195 -70 l 195 -111 l 190 -115 l 186 -111 l 186 -68 l 184 -68 l 177 -70 l 177 -68 l 182 -62 l 182 -59 l 173 -59 l 173 -77 l 169 -83 l 169 -109 l 164 -109 l 164 -62 l 158 -55 l 156 -55 l 156 -90 l 151 -94 l 147 -90 l 147 -70 l 138 -53 q 126 -70 138 -60 l 126 -104 l 121 -104 q 117 -90 121 -94 l 117 -85 l 121 -79 l 121 -66 l 115 -40 l 98 -25 l 96 -25 q 92 -33 96 -33 l 85 -29 l 79 -33 l 75 -33 l 70 -29 l 70 -25 l 75 -18 l 73 -12 l 68 -12 l 58 -14 l 58 -8 l 62 -1 l 49 9 l 29 9 l 23 5 l 0 5 l 1 20 l 6 20 l 6 9 l 12 9 q 29 28 23 13 q 8 69 29 53 l 0 69 l -9 62 l -11 62 l -11 69 q 19 77 -11 73 l 6 94 l 6 97 l 8 99 l 6 101 l 6 112 l 10 118 q -2 131 5 130 l -5 142 l -2 142 l 8 133 l 10 133 q 19 168 13 158 l 8 174 l 10 180 l 6 184 q 14 189 6 189 l 14 195 l 19 195 q 25 180 19 180 l 27 180 l 66 219 l 58 229 l 58 236 l 62 240 l 77 232 l 79 232 l 83 236 l 75 249 l 75 255 l 79 255 q 90 240 79 245 l 92 240 l 92 247 l 102 244 l 104 244 q 109 253 104 253 l 109 249 l 113 249 l 113 253 l 109 253 l 109 264 l 100 283 l 100 296 m 149 285 l 151 285 l 151 283 q 147 268 147 278 l 145 268 l 141 272 q 149 285 145 285 m 203 283 l 203 279 l 199 275 l 199 279 l 203 283 m 199 275 l 199 268 l 195 268 l 195 270 l 199 275 m 186 270 l 186 264 l 182 264 l 182 266 l 186 270 m 23 266 q 45 240 38 255 l 40 236 q 23 262 35 237 l 23 266 m 14 227 l 19 227 l 23 223 l 19 219 l 14 219 l 10 223 l 14 227 m -73 223 l -71 223 l -66 219 l -73 219 l -73 223 m 347 138 l 361 138 l 366 133 l 361 129 l 357 129 l 347 133 l 347 138 m -45 60 l -24 60 l -37 52 l -50 56 l -45 60 m 280 35 l 282 35 l 282 33 l 278 28 l 275 28 l 275 31 l 280 35 m 301 26 l 308 20 l 308 18 l 301 18 l 297 22 l 301 26 z "},"/":{"ha":386,"x_min":0,"x_max":0,"o":""},":":{"ha":386,"x_min":0,"x_max":0,"o":""},";":{"ha":386,"x_min":0,"x_max":0,"o":""},";":{"ha":386,"x_min":0,"x_max":0,"o":""},"<":{"ha":811,"x_min":0,"x_max":0,"o":""},"=":{"ha":811,"x_min":0,"x_max":0,"o":""},">":{"ha":811,"x_min":0,"x_max":0,"o":""},"?":{"ha":772,"x_min":0,"x_max":0,"o":""},"@":{"ha":1410,"x_min":0,"x_max":0,"o":""},"A":{"ha":717,"x_min":-33,"x_max":782,"o":"m 250 1084 q 306 1057 288 1084 q 352 982 323 1057 q 388 913 363 979 q 408 867 393 913 q 421 835 414 867 q 460 736 444 814 q 509 611 498 659 q 526 585 526 602 q 555 545 541 583 l 628 477 q 648 433 637 466 q 687 322 665 433 q 736 211 703 304 l 769 144 l 765 135 q 782 69 772 135 l 782 23 q 752 -6 772 3 l 749 -3 l 726 -6 l 713 -6 q 670 33 680 7 l 637 69 l 637 115 q 595 181 625 155 q 572 233 595 197 q 552 299 572 252 q 509 378 539 342 q 368 418 486 404 l 348 424 l 210 424 q 171 398 210 411 q 164 388 171 388 l 168 385 l 168 378 l 151 349 l 151 332 l 135 250 l 135 214 l 142 204 l 142 197 q 132 191 142 191 l 128 181 l 132 172 l 125 161 l 128 144 l 128 142 q 109 96 109 112 l 112 66 q 99 36 99 62 l 99 14 q 37 -19 86 -19 l 23 3 l 23 40 q 30 62 30 47 l 37 92 l 39 92 l 37 96 l 37 105 q 62 217 52 121 l 66 220 l 66 336 q 86 418 66 359 l 62 424 l 43 418 q -33 444 -33 418 l -33 450 l -28 460 l -33 473 l -33 480 q 30 519 2 519 l 60 515 q 109 562 109 538 l 106 575 l 109 595 l 109 611 l 106 631 q 125 690 121 657 l 128 690 l 121 755 l 132 805 l 135 808 l 135 825 l 138 857 l 135 871 q 151 1005 137 1005 q 203 1081 176 1068 l 208 1084 l 250 1084 m 240 831 q 224 749 231 803 q 203 664 203 693 l 203 654 q 194 602 194 640 l 191 597 l 188 597 l 191 575 l 191 572 l 188 569 l 188 565 q 197 545 197 562 l 401 545 q 408 559 401 559 q 365 690 406 591 q 326 782 335 723 q 253 831 290 831 l 240 831 z "},"B":{"ha":616,"x_min":-16,"x_max":644,"o":"m 213 1086 l 266 1086 q 359 1063 319 1086 q 498 1007 467 1032 q 571 958 527 1000 q 601 918 581 958 l 601 861 l 577 808 q 544 785 577 803 q 505 735 528 735 l 494 722 l 494 715 q 554 663 520 663 q 633 583 625 601 q 644 557 633 570 l 644 533 l 607 454 q 551 355 602 454 q 521 298 546 353 l 517 298 l 508 301 q 412 275 508 289 l 408 272 l 395 275 q 339 255 387 255 l 306 265 q 286 245 299 245 q 292 209 292 232 l 286 199 q 299 162 299 179 l 299 159 q 286 149 299 149 l 286 132 q 269 70 276 121 l 273 33 l 266 33 q 220 156 255 156 q 160 179 180 179 q 127 212 160 188 l 120 225 l 120 232 l 123 235 l 123 239 q 94 295 94 270 q 130 355 94 337 q 140 397 140 378 l 143 401 l 146 401 l 143 404 l 143 408 l 146 420 l 140 427 l 140 434 l 146 441 l 143 467 l 146 477 l 130 510 q 120 517 120 510 l 120 520 l 123 524 l 120 527 l 120 533 l 123 536 l 120 540 l 120 559 l 123 563 l 123 566 q 90 600 118 566 l 64 606 q 37 547 37 573 l 41 543 q 24 471 41 520 l 34 447 l 34 444 l 31 441 l 31 437 l 37 431 l 37 371 q 51 357 51 370 q 34 292 37 327 l 31 292 q 37 232 37 275 l 37 195 l 31 189 l 37 149 l 31 142 l 31 126 l 37 102 q 18 53 27 53 l 7 76 l 7 79 l 14 90 l 14 106 l 4 119 l 4 123 l 11 129 l 7 132 l 7 136 l 11 176 l 7 212 q 24 239 24 220 q 11 278 18 239 l 7 281 l 11 285 l 7 288 l 7 338 l 14 348 l 14 401 l 7 411 l 7 424 l 11 427 l 11 431 q 1 460 5 431 q 11 477 5 477 l 7 480 l 7 487 l 14 497 l 14 520 q -16 580 -8 551 l -16 593 l 1 613 l 1 633 l -9 656 q 4 675 4 656 l 18 686 l 7 709 l 7 712 l 11 715 l 4 742 l 4 758 q 14 782 4 770 l 14 785 l 7 795 l 11 798 l 11 802 l 4 808 l 4 812 l 24 831 q -9 928 20 831 l -9 944 q 4 970 -9 956 l 4 977 q -16 994 -5 977 l -16 997 l -9 1004 l -5 1004 l 4 997 l 7 997 q 41 1046 41 1019 l 44 1046 l 77 1023 q 104 1040 90 1023 q 213 1086 150 1040 m 359 928 l 309 928 q 210 888 262 928 l 206 874 l 233 815 q 259 775 233 789 l 262 775 q 389 825 330 789 q 408 831 389 831 q 429 858 408 847 l 425 861 l 425 868 l 429 871 l 429 874 q 415 901 423 874 l 382 930 l 359 928 m 37 821 l 37 808 l 24 765 l 24 762 l 37 732 l 41 732 q 57 808 51 800 l 57 821 l 51 828 l 37 821 m 44 709 q 60 663 44 673 q 87 649 60 649 q 117 629 99 629 l 123 636 l 120 640 l 120 643 l 127 652 l 127 686 q 113 772 117 717 q 104 802 104 772 l 100 805 l 97 805 l 90 798 l 81 821 l 77 821 q 57 735 66 811 l 44 709 m 313 580 l 313 570 q 329 559 329 569 l 329 557 q 283 530 308 557 q 262 471 273 530 l 262 467 l 289 424 q 339 401 306 401 q 405 431 356 414 q 441 490 422 440 l 441 524 q 395 563 421 563 q 352 583 383 583 q 336 589 352 589 l 322 589 l 313 580 m 262 149 l 262 139 l 269 132 l 273 132 l 269 149 l 262 149 m 11 30 q 34 16 34 25 l 34 14 l 14 0 l 4 10 l 4 23 l 11 30 z "},"C":{"ha":715,"x_min":2,"x_max":903,"o":"m 634 1053 l 654 1046 q 624 970 654 1022 q 597 890 612 907 l 597 861 l 587 840 l 591 827 l 587 827 q 597 810 591 810 l 617 810 q 664 821 624 817 q 744 847 664 826 l 790 870 q 817 890 790 877 q 867 913 817 906 q 903 854 867 892 l 903 844 l 870 804 l 870 787 l 877 777 l 877 770 q 837 737 877 744 l 827 741 l 810 724 q 760 734 804 730 l 757 737 l 757 741 l 650 711 l 631 711 q 621 701 631 701 l 617 704 l 614 704 q 524 648 524 677 l 514 637 l 514 634 q 538 588 538 613 l 521 561 l 521 551 l 528 541 l 528 538 q 514 481 522 534 l 505 475 l 507 471 l 507 468 q 488 398 494 450 l 481 378 l 477 375 l 481 361 q 458 292 470 361 l 461 269 l 458 235 q 471 209 465 235 q 521 155 509 186 q 591 112 571 134 q 597 122 591 122 l 617 122 q 661 85 654 85 l 661 66 l 677 49 q 631 16 654 24 q 614 9 631 9 q 608 0 614 0 l 591 0 q 531 19 577 9 q 425 132 457 132 l 421 129 l 425 125 l 414 99 l 414 92 l 421 82 l 411 49 l 408 49 l 411 26 l 411 22 l 408 19 l 411 16 l 411 3 l 395 -37 l 388 -43 l 385 -43 l 381 -40 l 378 -43 l 374 -43 l 365 -33 q 388 9 365 -9 l 398 26 q 404 56 398 49 l 404 106 l 398 129 l 401 132 l 391 132 l 395 129 l 395 115 l 388 115 l 381 136 l 381 139 l 401 165 l 401 172 q 278 288 361 227 q 245 318 245 301 l 198 365 q 122 412 188 365 l 102 418 l 92 408 l 89 412 l 85 412 l 89 372 l 89 358 l 82 349 l 82 315 l 72 315 l 79 361 l 72 368 l 72 408 l 58 431 l 55 431 q 45 408 55 420 l 45 368 l 39 368 l 35 391 l 45 425 l 2 478 l 2 485 q 22 534 22 512 l 12 551 l 12 561 q 32 604 24 574 l 35 608 l 58 608 l 119 621 l 152 621 l 241 658 q 345 697 287 658 q 411 734 388 714 q 564 827 487 754 q 587 877 571 856 l 584 913 q 621 1040 600 913 l 634 1053 m 471 654 q 398 611 410 611 q 365 585 398 595 q 271 531 321 566 q 215 491 241 531 l 215 485 q 271 431 271 438 q 321 365 321 372 q 418 272 327 365 l 428 272 l 448 288 l 448 305 q 481 415 465 415 l 477 418 l 477 421 l 491 441 l 491 468 l 477 485 l 477 488 q 501 508 477 494 q 511 548 511 519 l 511 571 q 498 604 511 583 l 507 618 l 507 631 q 471 654 502 654 m 437 272 l 431 262 l 435 258 l 437 258 l 448 262 l 437 272 z "},"D":{"ha":900,"x_min":-22,"x_max":942,"o":"m 22 1004 l 33 996 l 58 996 l 77 1000 q 158 945 94 964 q 320 864 158 927 q 353 846 320 859 q 496 758 444 758 q 644 688 496 731 q 703 647 680 670 q 802 603 751 620 q 883 544 877 555 q 939 503 914 530 l 942 485 q 890 430 942 474 q 876 419 876 430 l 846 404 l 810 378 l 806 378 l 802 382 l 798 382 q 703 316 798 366 q 614 257 692 316 q 482 183 524 217 l 434 157 q 386 132 434 142 l 357 99 l 357 77 q 375 33 367 64 q 416 -22 399 7 l 416 -26 l 386 -56 l 393 -66 l 393 -71 l 382 -81 l 372 -81 l 360 -74 l 357 -74 l 357 -85 l 349 -125 l 349 -136 l 342 -136 l 342 -85 l 334 -74 l 334 -71 l 338 -66 l 338 -63 l 334 -59 l 331 -59 l 320 -66 l 298 -45 l 298 -37 q 309 -30 298 -30 q 264 7 309 -5 q 254 25 260 25 l 250 25 l 210 7 l 191 -7 l 176 -4 q 103 -41 176 -26 q 81 -66 103 -57 l 70 -66 l 55 -56 l 47 -66 q 7 -41 7 -60 q 37 18 7 7 q 117 77 37 41 q 161 102 139 77 q 257 139 220 102 l 261 180 q 246 213 246 201 l 250 231 q 220 323 229 231 q 191 397 216 323 l 173 474 q 147 599 155 474 l 143 603 l 147 618 l 99 758 q 73 817 90 817 l 70 817 l 70 798 q 58 753 63 791 l 66 747 l 66 739 l 55 739 l 47 753 l 47 758 l 52 761 l 52 765 q 33 820 41 768 q 0 879 24 854 l -22 930 l 0 964 q 22 1004 22 966 m 143 791 l 143 772 q 161 709 158 744 l 180 640 l 180 636 l 176 632 l 176 629 q 184 618 184 629 l 199 595 l 202 595 l 199 577 l 199 574 l 224 515 l 235 500 l 235 471 q 254 389 247 441 l 250 360 q 272 294 260 360 l 279 286 l 279 268 q 328 172 293 172 q 379 213 334 186 l 382 227 l 401 224 q 486 257 466 257 q 500 268 486 266 q 655 363 618 334 q 699 386 686 386 l 695 412 l 718 426 q 707 433 707 426 l 707 445 q 721 452 707 452 l 725 456 l 725 485 q 681 544 706 544 q 581 603 643 583 q 496 647 541 641 l 397 688 l 390 699 l 386 695 l 379 695 l 328 728 l 320 728 q 309 709 310 728 l 302 709 l 294 728 l 298 739 l 254 761 l 250 761 l 228 735 l 220 743 l 220 750 l 231 765 q 165 802 205 802 l 143 791 m 739 477 l 743 467 l 739 452 l 743 448 l 751 448 l 780 459 l 787 452 l 795 459 l 795 467 q 751 503 782 486 q 739 477 742 503 m 264 25 l 264 22 q 290 7 276 22 l 294 7 l 294 10 l 279 40 l 264 25 z "},"E":{"ha":737,"x_min":-20,"x_max":854,"o":"m 370 996 q 464 960 444 975 q 511 951 464 953 l 537 957 l 537 954 l 541 957 l 544 957 l 621 938 q 697 932 649 932 l 768 932 l 825 944 q 854 897 854 932 l 854 861 q 842 832 854 836 l 825 836 q 730 813 810 813 l 697 806 l 640 806 l 637 810 l 633 810 l 627 804 l 598 804 l 589 810 l 579 806 q 544 816 579 813 q 511 829 533 829 l 454 829 q 409 804 427 829 l 412 800 l 412 797 l 399 765 l 403 749 l 399 746 q 412 704 405 746 l 418 688 l 422 685 l 422 672 l 412 663 l 409 665 l 412 669 l 412 672 q 383 743 383 721 l 387 752 l 380 758 l 387 774 l 383 778 l 383 781 l 387 810 q 342 845 387 833 l 326 842 l 313 842 l 275 845 q 249 836 273 836 l 236 836 q 230 826 236 826 l 233 823 l 233 819 q 227 787 227 814 q 220 778 220 787 l 217 711 l 210 704 l 210 595 q 233 557 222 558 l 268 547 l 313 547 q 319 557 319 547 l 323 560 l 326 560 l 329 557 l 332 557 l 370 595 q 431 570 384 595 l 483 570 l 492 576 l 502 576 l 505 572 l 509 572 l 534 595 l 579 595 l 621 550 l 621 544 q 563 454 621 488 q 518 432 542 454 l 511 432 l 489 435 l 441 406 l 435 406 l 425 412 l 403 387 l 406 364 l 406 358 l 403 326 q 422 259 408 286 l 418 233 q 476 189 446 189 q 550 217 493 189 q 630 176 607 217 l 630 153 q 569 70 630 119 l 522 47 q 473 9 473 47 q 460 -13 465 -13 l 454 -13 q 435 -3 437 -13 l 438 0 l 435 3 l 435 5 l 438 18 l 422 28 l 399 9 l 348 9 l 323 16 l 281 16 q 184 60 190 52 q 130 140 153 83 q 104 169 105 162 l 108 182 l 102 191 l 102 208 l 108 214 l 104 217 l 104 220 l 108 224 l 104 246 l 104 271 l 108 294 q 102 313 102 294 q 76 361 94 313 q 47 393 68 362 q 21 416 33 399 l 21 429 q 47 460 31 450 q 79 589 62 460 q 89 608 89 589 l 95 614 l 92 618 l 95 656 l 95 659 q 66 765 75 755 q 3 797 24 772 l -20 832 q 9 912 -20 859 q 56 957 43 950 l 63 977 q 98 970 75 970 l 117 970 l 130 960 l 140 960 l 182 977 l 227 977 l 236 973 l 252 977 l 348 977 q 370 996 370 986 m 268 435 q 249 429 268 429 l 239 419 l 242 416 l 242 406 q 227 349 227 378 q 252 297 227 323 l 245 288 l 245 275 q 316 182 271 212 l 326 189 q 345 182 345 186 l 348 185 l 361 185 l 364 182 l 368 172 l 370 172 q 418 204 418 196 l 418 208 l 399 243 l 403 252 l 396 259 l 396 265 l 403 275 l 403 278 l 393 317 l 390 319 l 390 345 l 396 355 l 396 374 q 390 397 390 382 q 377 406 377 397 l 355 406 q 316 416 348 412 q 294 435 294 427 l 290 435 l 277 432 l 268 435 z "},"F":{"ha":633,"x_min":5,"x_max":681,"o":"m 115 989 l 186 963 l 274 963 q 302 972 286 972 l 351 972 l 441 956 l 610 956 q 681 885 644 956 l 681 869 q 646 827 677 827 l 626 808 l 613 808 l 526 827 l 513 824 l 471 840 l 461 833 l 454 833 l 448 840 l 445 837 l 426 837 l 416 843 l 406 837 l 355 837 q 300 850 349 844 q 229 882 300 858 l 216 882 l 205 876 l 199 876 l 196 879 l 193 879 q 125 801 125 839 q 96 717 96 758 l 106 698 l 99 688 l 106 662 l 102 662 l 109 636 l 106 607 l 109 604 l 109 601 l 99 575 q 148 497 113 497 l 183 497 l 225 517 l 296 526 q 481 488 481 520 l 481 449 q 429 420 458 420 q 332 394 408 405 l 313 400 l 302 400 q 205 385 269 385 q 154 372 205 376 l 148 361 q 167 277 167 323 q 186 203 180 277 q 205 145 197 203 q 219 45 214 145 l 216 0 l 216 -26 q 186 -65 195 -65 l 167 -71 q 115 -29 140 -71 q 80 16 80 -14 q 70 35 70 19 q 83 100 70 73 q 99 142 83 114 l 83 210 l 83 216 q 70 226 70 216 l 73 239 l 67 245 l 67 268 l 70 271 l 70 275 q 54 319 62 275 l 19 361 l 19 387 q 9 416 19 404 l 9 429 l 16 439 l 16 475 l 9 484 l 9 513 l 19 523 l 16 546 l 19 617 l 16 707 l 19 827 l 5 876 l 5 885 l 12 895 l 12 905 l 5 930 l 5 940 q 35 966 16 954 q 115 989 45 989 z "},"G":{"ha":538,"x_min":-30,"x_max":559,"o":"m 421 910 q 517 861 492 910 q 524 822 524 861 l 548 793 l 548 790 l 545 787 l 548 783 l 545 677 l 545 652 q 538 635 545 635 l 541 631 l 541 617 l 527 575 q 555 543 555 561 l 545 494 l 548 473 q 499 424 548 467 l 499 279 l 517 240 l 517 184 l 513 180 l 513 177 q 534 32 530 177 q 552 -14 543 32 l 559 -20 l 559 -24 l 552 -102 l 559 -109 l 559 -179 q 499 -246 547 -211 q 442 -278 499 -269 l 315 -271 l 284 -274 l 259 -267 l 224 -271 l 220 -267 l 220 -264 l 217 -267 l 153 -267 l 143 -260 l 121 -260 q 23 -214 61 -260 q -16 -158 -16 -200 q -30 -115 -24 -158 q -12 -66 -12 -87 l -12 -45 q 12 57 -2 -29 q 37 117 20 63 q 87 187 50 124 q 121 251 96 196 q 171 279 142 279 q 199 230 199 256 l 199 205 q 174 159 199 195 q 97 46 122 73 l 76 1 l 79 -31 q 62 -105 72 -31 l 62 -109 q 146 -158 111 -158 l 189 -158 q 245 -176 222 -176 l 291 -176 l 330 -193 q 393 -165 387 -193 q 453 -133 429 -163 q 485 -52 470 -117 l 485 -38 q 467 39 471 1 q 453 81 453 39 l 453 113 l 456 127 l 453 142 l 453 152 l 446 152 l 432 191 l 432 198 l 435 201 l 435 205 l 429 212 l 429 230 q 382 254 415 230 l 372 254 q 312 230 351 230 l 302 230 q 238 258 290 239 l 227 254 q 174 293 227 264 q 100 328 155 293 q 94 349 94 328 q 58 437 77 349 l 62 441 l 62 445 q 44 551 44 503 q 129 758 44 661 l 231 850 l 280 882 l 315 886 l 326 886 l 340 892 l 372 889 l 379 896 l 382 896 l 386 892 l 390 892 q 421 910 390 910 m 298 811 l 302 808 l 302 804 q 262 755 287 767 q 214 684 231 730 q 199 660 214 660 l 199 646 q 182 572 185 610 q 164 530 175 572 q 174 505 171 530 l 171 469 q 210 402 189 452 l 259 367 l 262 371 l 267 371 q 309 360 279 360 l 333 360 q 390 455 375 409 q 400 484 400 455 q 382 533 390 484 l 386 572 q 372 663 386 607 l 372 699 l 365 705 l 368 709 l 368 723 l 355 772 l 347 808 l 312 819 l 298 811 z "},"H":{"ha":590,"x_min":-5,"x_max":602,"o":"m 407 1100 q 435 1061 427 1088 q 452 1005 452 1061 q 446 972 446 992 l 446 867 l 467 845 l 467 830 l 460 802 l 460 787 l 465 774 l 467 774 l 465 764 q 458 688 463 688 l 463 662 l 460 655 l 463 633 l 463 621 l 467 614 l 467 551 q 475 532 475 538 l 491 532 l 501 524 l 536 524 q 584 507 547 515 q 602 491 602 494 l 602 474 q 543 435 569 440 q 514 420 543 431 l 499 404 l 499 398 l 503 392 l 503 309 q 524 258 503 284 l 528 245 l 528 243 l 524 237 l 524 225 l 528 219 l 528 180 l 534 155 l 536 153 l 536 135 l 549 108 l 549 87 q 557 83 557 87 l 557 60 l 563 36 l 565 34 l 565 -77 l 557 -94 q 514 -116 532 -110 q 505 -129 509 -129 q 463 -90 474 -114 q 458 -64 458 -81 q 444 -32 454 -64 q 431 46 434 -21 l 427 56 l 429 100 l 429 147 l 425 153 l 425 176 l 415 205 l 413 207 l 413 241 l 409 248 l 409 283 l 403 303 l 401 305 l 401 328 q 391 380 396 328 q 366 388 391 388 l 361 392 l 218 392 q 207 378 214 392 l 207 237 l 212 231 l 212 209 q 228 182 222 199 l 228 130 l 244 87 l 244 50 q 186 13 219 24 l 162 13 q 141 30 149 19 q 123 90 130 54 q 113 124 113 100 l 109 128 l 109 172 l 104 178 l 104 221 q 96 256 100 227 l 88 269 l 88 355 l 92 363 q 65 398 92 376 l 49 404 l 31 404 q 9 418 9 411 q -5 470 -5 445 q 12 497 1 497 q 45 515 23 507 l 59 528 q 71 555 59 534 l 71 589 l 75 595 l 75 641 l 67 655 l 67 730 l 73 750 q 88 772 77 750 l 88 781 l 71 812 q 55 841 68 827 q 35 880 49 880 q 9 911 14 901 l 63 951 q 94 997 63 957 q 129 1009 108 997 l 162 1009 q 199 983 199 998 q 210 970 199 977 l 207 935 l 207 903 q 184 839 198 839 q 178 824 184 831 l 178 820 l 180 800 l 170 795 l 170 783 l 166 777 l 166 724 l 178 705 l 178 680 l 168 635 q 154 612 159 631 l 154 595 l 160 571 l 162 569 l 162 536 q 174 528 171 536 l 174 515 l 189 515 l 195 519 l 230 519 l 236 524 l 252 524 l 262 522 l 277 524 l 304 522 l 366 534 l 380 545 l 380 567 l 376 573 l 376 612 q 372 635 372 615 l 359 655 l 359 686 l 355 692 l 355 752 l 351 758 l 351 832 l 355 839 l 355 878 l 361 899 l 363 901 l 363 919 l 368 925 l 368 943 l 349 979 q 339 1032 349 1007 l 339 1042 q 366 1086 339 1070 l 407 1100 z "},"I":{"ha":191,"x_min":-1,"x_max":210,"o":"m 28 1025 l 35 1025 q 67 964 67 1013 l 71 918 l 64 882 l 67 814 l 67 710 q 92 574 77 710 l 100 567 l 100 564 l 96 560 l 96 556 l 103 549 l 103 488 q 114 463 103 477 l 114 420 l 106 410 l 106 406 q 132 328 123 370 l 132 295 l 142 281 l 142 277 l 135 270 l 139 267 l 139 263 l 135 259 l 135 256 q 157 170 143 256 l 157 105 q 178 66 159 79 q 193 16 182 28 l 185 1 l 210 -59 l 210 -62 l 178 -120 q 157 -156 165 -155 q 103 -123 118 -138 l 92 -102 l 92 -95 l 100 -73 q 85 -41 95 -73 l 78 -34 l 85 1 l 81 5 l 81 12 q 100 23 81 20 q 75 109 75 54 l 78 119 l 71 166 l 75 170 l 78 170 l 75 199 l 78 234 q 35 378 68 234 l 39 395 l 39 446 l 31 456 l 35 460 l 35 463 l 28 471 l 28 496 l 24 510 l 28 513 q 17 560 24 553 l 21 560 l 14 581 l 14 603 l 21 610 l 17 614 l 17 621 l 21 646 q 10 692 10 646 q -1 750 -1 692 l -1 764 l 14 785 l 10 825 l 14 836 l 10 868 l 10 904 l 3 914 l 3 983 q 28 1025 16 1025 z "},"J":{"ha":739,"x_min":-22,"x_max":827,"o":"m 62 769 q 107 751 80 769 l 132 766 q 201 751 138 759 l 208 759 l 236 759 q 305 745 241 751 q 337 755 305 755 q 393 738 370 738 l 406 745 l 427 741 l 445 759 l 462 759 l 514 713 l 511 696 q 549 591 524 620 q 601 501 559 538 q 775 205 601 444 q 827 49 806 151 q 810 -10 816 -10 l 813 -14 l 813 -31 l 803 -62 l 800 -62 l 803 -66 l 803 -69 q 723 -153 803 -83 q 674 -191 723 -165 l 671 -188 l 667 -188 q 615 -212 662 -199 q 528 -247 615 -218 l 517 -254 l 514 -250 l 511 -250 l 483 -264 l 441 -264 l 434 -257 l 396 -264 l 393 -260 l 375 -264 l 316 -264 l 292 -250 l 274 -254 q 239 -233 247 -243 l 236 -236 l 233 -236 q 100 -153 111 -153 q 62 -128 91 -139 q 31 -94 62 -121 q 9 -24 9 -41 l 6 -24 q -4 -66 -1 -24 l -11 -66 l -11 -45 l -4 -17 l -4 -14 q -11 10 -11 -5 l -18 10 l -18 14 l -4 42 q -18 83 -14 42 q 16 219 -11 143 l 13 237 l 20 258 l 16 268 q 41 323 31 268 q 62 372 47 323 q 104 449 104 439 l 93 470 l 93 480 q 104 522 102 490 q 83 560 104 543 q 73 585 81 585 l 65 578 q -22 623 14 586 l -22 637 q 58 769 12 721 l 62 769 m 166 557 l 156 567 l 132 567 q 111 529 111 556 l 111 473 l 121 459 l 121 452 l 111 431 q 149 397 137 431 q 170 379 159 397 q 180 362 178 379 l 184 359 l 184 355 l 176 345 l 180 334 q 125 233 125 267 l 93 146 l 93 101 l 86 62 l 86 52 q 96 21 96 39 l 93 18 q 114 -17 98 18 q 264 -100 187 -88 q 337 -132 276 -100 l 357 -139 l 410 -139 l 417 -146 l 452 -142 l 462 -142 l 479 -146 q 553 -125 486 -134 l 615 -97 l 692 -28 l 685 -17 l 695 -7 l 699 -7 l 695 -3 l 695 7 l 702 18 l 695 49 l 699 80 l 677 104 l 674 108 l 671 108 l 664 101 l 653 111 l 661 125 q 636 181 643 150 q 601 247 619 186 l 542 334 q 473 425 495 372 q 441 467 454 463 l 445 470 l 445 484 q 393 529 431 514 q 267 564 346 557 l 253 567 l 246 560 l 236 560 l 225 571 l 166 557 z "},"K":{"ha":660,"x_min":-13,"x_max":680,"o":"m 62 938 q 96 908 78 916 l 100 911 q 149 866 100 905 q 172 776 159 866 l 176 772 l 176 746 q 157 697 164 736 l 149 697 l 145 723 q 119 682 119 723 l 123 678 l 123 674 l 119 618 q 134 576 127 618 l 138 580 l 145 580 l 149 576 l 153 576 q 217 625 163 605 l 236 625 q 292 667 236 631 q 330 682 292 673 q 356 697 330 694 q 465 742 376 718 l 518 768 q 567 829 543 816 l 590 829 l 601 821 l 605 821 l 616 832 l 616 836 l 608 848 l 616 848 q 650 795 637 829 q 661 787 661 795 l 658 776 l 661 772 l 654 764 q 665 734 665 749 q 646 667 646 694 l 646 633 l 642 633 l 635 640 l 635 667 l 627 667 q 612 644 627 653 q 586 591 586 604 l 586 441 l 578 441 q 571 587 571 484 l 571 614 l 574 633 q 567 644 567 633 l 571 655 q 530 682 555 671 l 530 689 l 518 674 l 526 667 l 515 637 l 515 629 l 511 572 l 496 584 l 499 610 q 477 682 499 668 l 465 682 q 439 671 454 671 q 338 614 439 638 q 266 572 328 595 q 232 557 266 563 l 164 509 q 205 437 164 469 q 270 380 205 418 q 353 283 270 350 q 450 196 366 260 q 492 143 450 180 q 593 22 531 61 q 616 -18 616 -3 l 616 -68 q 567 -94 600 -94 l 559 -94 q 518 -41 534 -94 l 515 -37 q 503 -26 515 -26 q 477 -15 503 -17 q 409 79 450 63 q 394 105 394 79 l 372 117 l 360 113 l 360 117 q 266 230 360 141 q 191 317 266 248 l 183 317 l 176 286 l 168 286 l 168 294 l 172 298 q 149 339 172 339 l 149 335 q 161 283 153 289 l 161 245 l 153 233 l 153 207 q 191 68 174 165 q 213 -34 203 49 l 220 -41 l 220 -98 q 236 -136 220 -119 l 236 -165 l 243 -165 l 243 -170 q 183 -237 235 -237 l 153 -222 l 149 -192 l 157 -180 q 119 3 119 -35 l 111 45 l 108 49 l 111 53 l 85 136 q 70 203 75 136 l 62 211 l 62 237 l 66 241 l 66 245 q 55 286 55 245 l 55 305 l 47 317 l 47 328 l 51 332 l 51 335 q 43 358 43 335 l 33 369 l 33 380 l 36 384 l 36 388 l 28 395 l 28 422 l 33 426 q 17 486 25 477 l 17 516 q -9 633 17 568 q -1 723 -9 693 l -13 753 q 21 825 -13 798 l 17 829 l 17 840 l 28 855 l 21 863 q 40 897 26 897 l 51 892 l 66 919 l 55 930 l 62 938 m 639 832 l 642 832 l 646 829 l 650 829 l 661 832 q 680 806 680 817 q 673 791 673 806 l 665 791 q 646 814 665 802 l 639 832 m 59 764 l 59 761 l 62 761 q 119 780 119 766 l 119 810 l 111 817 l 100 817 q 59 764 59 793 m 642 625 l 646 625 l 650 606 l 642 606 l 642 625 z "},"L":{"ha":585,"x_min":-26,"x_max":755,"o":"m 8 921 q 41 890 39 903 l 45 887 q 72 810 64 856 l 75 806 l 72 803 l 72 800 l 85 783 l 85 779 l 82 777 l 85 773 l 85 770 l 82 766 l 82 763 q 99 736 88 763 l 96 726 l 102 719 l 92 685 l 92 652 q 125 496 125 615 q 132 480 132 496 l 132 467 l 129 463 l 142 422 l 142 393 q 153 386 153 393 l 153 359 q 163 338 155 338 l 156 298 l 156 295 l 173 248 q 203 174 173 217 q 220 146 217 165 l 223 146 q 324 170 324 159 l 334 163 q 493 241 368 187 q 526 251 493 251 q 560 275 533 265 q 574 285 560 285 q 601 292 574 292 l 608 298 l 644 298 q 702 325 690 325 l 715 325 q 755 288 755 311 q 692 207 735 235 l 631 180 l 621 184 q 577 167 621 174 q 493 133 562 146 q 425 96 466 109 q 399 59 399 77 l 406 52 q 345 -72 406 -28 l 334 -109 l 345 -113 l 345 -116 l 338 -130 l 341 -146 l 331 -153 l 321 -153 q 274 -116 285 -116 q 243 -149 261 -118 l 233 -149 l 230 -146 l 227 -146 q 210 -156 227 -156 l 183 -132 l 166 -132 l 159 -156 l 163 -170 q 149 -227 157 -170 l 142 -227 l 142 -210 q 149 -193 144 -193 l 146 -190 l 146 -176 l 149 -173 l 149 -170 l 142 -163 l 142 -156 l 149 -146 l 149 -142 q 125 -102 132 -125 l 122 -85 l 116 -85 l 119 -68 l 116 -68 q 96 -18 102 -68 l 92 -15 l 92 -12 l 96 5 l 89 12 l 89 32 l 102 79 l 58 210 q 45 268 50 210 q 18 321 30 268 l 12 328 l 15 345 l 15 359 l 18 433 q 5 460 12 433 l 8 493 q -16 618 -2 618 l -16 638 l -22 675 l -22 699 l -9 715 q -26 749 -26 723 l -26 766 l -16 793 l -26 796 l -22 813 l -22 820 l -19 911 l 8 921 z "},"M":{"ha":864,"x_min":6,"x_max":874,"o":"m 718 983 q 814 932 814 975 q 864 852 814 921 l 864 846 l 861 833 l 871 816 l 871 786 l 864 776 l 864 749 l 871 739 l 871 726 l 874 682 l 871 672 l 874 609 l 874 555 l 864 542 l 864 529 q 854 489 864 500 l 854 425 q 831 275 854 373 l 824 269 l 824 229 q 798 118 798 143 q 781 45 784 80 l 754 12 l 758 8 l 754 5 l 744 -25 l 737 -25 q 730 -8 730 -25 q 721 -2 721 -8 l 718 -5 l 714 -5 q 667 12 707 3 l 667 15 l 664 12 l 657 12 l 657 21 q 640 -8 647 21 l 634 -8 l 634 8 l 624 28 l 634 45 l 631 55 q 640 95 637 55 q 667 135 650 95 q 701 265 684 135 l 701 312 l 707 325 q 727 455 707 404 l 727 482 l 730 585 l 727 646 l 721 652 l 721 679 q 734 755 727 679 q 718 806 726 806 q 657 779 673 800 q 610 722 610 752 q 550 639 578 696 q 510 522 522 583 l 507 522 l 510 519 l 510 509 l 497 492 l 500 489 l 500 486 l 497 482 l 497 479 l 500 465 q 463 349 463 371 q 433 229 450 229 l 437 212 q 410 61 437 112 q 397 28 410 50 l 390 28 l 390 38 l 383 38 q 370 15 370 33 l 370 -15 l 363 -15 l 363 1 l 357 41 l 350 41 l 350 31 l 347 31 q 333 68 342 31 l 327 108 l 317 108 l 317 111 q 330 118 317 118 l 327 142 l 327 172 l 300 235 l 300 262 l 303 275 l 287 392 l 290 402 q 280 425 287 425 l 283 442 l 283 446 q 260 549 263 492 q 233 649 244 566 q 227 665 227 649 q 237 672 227 672 q 193 769 221 696 l 176 769 q 150 722 150 753 l 153 703 q 130 606 153 661 l 123 578 l 126 552 l 123 549 q 136 512 136 545 l 133 442 l 126 435 l 143 406 l 143 389 l 136 382 l 140 378 l 140 375 l 126 355 l 140 295 l 136 292 q 150 248 145 292 l 146 235 l 200 24 l 203 -12 l 197 -18 q 206 -48 206 -31 q 193 -82 197 -48 l 186 -82 l 186 -58 l 183 -58 l 183 -79 l 170 -79 l 170 -68 l 166 -68 q 159 -89 166 -89 q 150 -75 155 -75 l 140 -79 l 143 -95 l 140 -95 l 136 -92 l 133 -95 l 126 -95 l 126 -92 l 130 -89 l 130 -85 l 126 -82 l 133 -75 l 133 -65 l 123 -72 l 116 -72 l 110 -65 l 113 -62 l 106 -39 l 90 -52 l 83 -52 l 83 -39 l 86 -35 l 83 -32 l 90 1 l 70 15 l 73 18 l 83 18 l 83 12 l 90 12 l 90 15 l 86 18 l 86 21 l 90 24 q 70 78 81 24 l 70 108 q 56 155 56 124 l 60 185 q 53 195 53 185 l 53 201 l 56 201 q 29 328 56 253 l 6 495 l 6 522 l 23 585 l 26 585 l 23 589 l 23 592 l 29 599 l 26 619 q 43 739 26 676 q 79 859 43 793 q 140 926 134 926 l 157 929 l 163 929 q 267 863 229 929 q 323 759 298 840 l 333 749 l 333 746 l 330 743 l 330 739 q 357 659 340 732 l 387 602 l 387 592 l 383 589 l 383 585 l 387 582 l 400 582 q 440 639 400 608 q 500 743 440 667 l 497 746 l 497 749 l 534 799 l 567 859 q 680 972 571 890 l 694 976 l 704 972 q 718 983 704 981 m 158 -39 l 158 -52 l 161 -52 l 161 -39 l 158 -39 m 108 -62 l 108 -72 l 115 -65 l 115 -62 l 108 -62 m 93 -92 l 98 -92 l 98 -100 l 93 -106 l 96 -109 l 96 -117 l 90 -117 l 90 -106 l 93 -92 z "},"N":{"ha":608,"x_min":10,"x_max":694,"o":"m 498 1112 l 503 1112 q 538 1061 538 1084 l 543 1050 l 543 1013 l 538 1006 l 538 984 l 535 974 l 538 971 l 535 939 l 535 894 l 538 814 q 557 751 549 800 l 559 748 l 559 687 q 575 661 559 679 l 578 610 q 593 528 583 604 l 593 515 l 599 507 l 599 448 q 618 387 599 434 q 639 334 623 350 q 654 310 641 320 q 681 225 654 287 l 694 199 l 694 140 q 654 50 667 109 q 639 16 650 47 l 623 2 q 543 39 583 2 q 503 138 543 66 q 482 188 503 158 l 467 231 l 464 249 q 427 292 454 249 l 424 294 l 406 347 q 384 387 396 355 q 368 424 372 387 q 336 480 336 441 q 286 541 318 492 q 252 586 252 556 q 167 716 212 665 q 98 774 120 760 l 92 774 l 85 759 l 85 730 l 92 727 l 90 655 q 114 549 90 593 l 114 446 q 153 267 114 375 l 153 182 q 167 145 162 173 l 174 121 q 182 90 179 121 l 185 87 l 185 2 q 143 -32 163 -32 l 132 -29 l 127 -29 l 119 -35 l 114 -35 q 39 47 39 11 l 37 50 l 37 533 q 24 583 30 538 q 10 608 20 583 l 13 610 l 10 623 l 10 671 q 21 745 10 695 l 21 827 q 10 916 21 869 l 13 998 l 18 1003 q 26 1008 18 1008 q 31 1024 26 1024 l 85 1024 q 145 981 129 1011 l 196 920 q 220 873 205 911 l 220 865 q 238 844 234 865 q 243 825 243 844 q 273 777 258 813 q 315 705 292 734 q 323 679 323 698 q 376 610 334 671 q 403 559 388 610 q 440 498 424 533 q 490 432 462 479 q 511 408 495 432 l 514 406 l 514 403 l 522 403 l 522 406 l 519 464 q 503 485 515 465 l 506 493 l 503 530 l 503 549 q 469 642 471 617 l 467 644 l 467 655 l 464 753 l 442 806 l 442 833 l 437 838 l 440 865 l 440 886 l 435 891 l 432 963 l 432 979 l 427 987 l 427 1045 q 469 1109 427 1075 l 498 1112 z "},"O":{"ha":511,"x_min":-3,"x_max":551,"o":"m 281 830 l 283 830 l 292 825 l 304 825 q 411 790 359 825 q 421 783 411 783 q 490 698 470 751 q 530 621 505 678 q 549 555 549 602 l 551 526 l 543 517 l 543 486 l 536 475 l 538 465 l 536 462 l 541 393 l 533 374 l 541 361 l 541 348 q 509 226 522 299 q 493 176 499 226 q 456 106 460 137 l 453 104 q 443 88 447 104 q 429 59 433 88 q 411 35 425 59 l 361 9 l 347 12 q 323 -2 336 -2 l 281 14 q 215 41 258 14 q 178 59 178 51 l 180 62 l 180 64 q 149 85 166 79 l 149 88 l 154 94 l 154 101 q 117 115 154 108 l 111 109 l 100 109 q 45 149 64 130 l 45 159 q 53 178 53 170 l 53 186 l 40 210 l 42 213 l 42 215 q 8 292 20 243 l -3 319 l -3 345 l 8 363 l 5 366 l 5 369 q 24 477 16 477 l 22 494 l 24 507 l 19 512 l 32 559 l 32 586 l 37 594 l 35 608 q 50 637 37 628 q 74 698 50 668 l 87 732 q 119 774 102 736 q 186 801 148 794 q 222 822 209 822 l 254 822 l 281 830 m 222 626 l 217 626 l 175 644 l 167 642 l 161 647 l 157 647 l 149 640 l 154 631 q 132 589 140 619 q 125 584 125 589 l 125 578 l 132 565 l 130 526 l 132 507 q 119 454 119 471 l 119 433 q 157 329 119 404 q 167 305 161 329 q 186 273 172 305 q 217 231 217 238 l 225 223 l 241 229 q 300 184 269 222 q 313 170 300 174 l 313 162 l 318 162 l 326 168 l 329 165 l 332 168 l 334 168 l 336 165 l 339 165 q 368 186 341 172 q 379 215 368 208 q 395 239 379 225 l 421 276 l 419 279 l 419 287 q 437 313 430 313 l 437 494 q 411 597 437 553 q 366 634 411 624 l 326 634 q 318 644 322 634 l 313 650 q 300 658 313 656 l 297 661 l 294 661 q 241 637 258 637 l 231 634 l 222 626 z "},"P":{"ha":763,"x_min":-113,"x_max":804,"o":"m 199 878 l 233 878 q 380 858 302 878 q 498 814 405 858 q 690 700 572 780 q 723 673 696 700 q 783 596 748 673 q 804 509 804 549 l 800 509 l 804 505 l 804 495 q 787 395 804 446 q 663 237 768 330 q 568 153 663 218 q 458 92 509 112 q 434 45 434 80 l 431 45 l 437 -5 l 431 -28 l 424 -28 q 417 -5 424 -13 l 420 -1 l 417 8 l 424 25 l 420 42 l 424 42 l 414 65 l 397 58 l 397 39 l 391 39 q 384 55 391 55 l 380 55 l 380 39 l 384 25 l 380 12 l 387 5 l 387 -1 l 384 -22 q 424 -72 384 -29 q 434 -96 434 -84 l 434 -99 l 427 -126 l 427 -136 l 437 -146 l 444 -146 l 444 -139 l 448 -139 l 454 -146 l 454 -153 l 451 -156 l 454 -159 l 454 -183 l 448 -197 l 444 -197 q 431 -170 439 -197 l 427 -170 q 387 -183 427 -180 l 370 -207 l 360 -207 l 327 -166 q 293 -153 293 -159 l 296 -136 q 239 -56 253 -101 q 189 5 218 -23 l 179 5 l 162 -12 l 169 -22 l 169 -42 l 165 -59 l 159 -59 l 159 -56 l 162 -42 l 159 -39 l 159 -35 l 162 -25 q 152 5 155 -25 l 155 15 l 155 18 l 152 18 q 138 5 152 5 q 109 32 130 32 l 112 28 l 112 18 l 109 -15 l 105 -15 l 105 -8 l 102 -8 l 105 8 l 105 18 l 98 28 l 98 42 l 105 52 q 88 68 94 52 l 88 79 l 95 85 l 125 79 l 138 96 l 138 99 l 132 99 l 132 92 l 129 92 l 125 106 l 135 119 l 145 99 l 152 99 l 155 116 l 155 122 q 122 156 141 122 l 122 166 l 129 176 l 129 180 q 88 254 115 217 l 78 290 l 85 297 q 75 331 82 321 l 75 351 l 78 364 q 62 411 62 397 q 35 479 35 438 l 18 505 l 21 509 l 21 512 q -19 579 -6 543 q -52 656 -47 614 l -56 660 l -59 660 l -69 650 l -73 650 q -113 684 -98 650 l -113 703 q -49 814 -89 814 l -43 814 l 21 811 l 155 861 q 196 875 155 869 l 199 878 m 243 734 l 233 737 q 162 727 233 727 l 159 727 q 102 713 155 722 l 98 710 l 85 710 l 81 713 l 78 713 l 62 697 l 62 694 q 98 660 98 671 l 92 640 q 135 583 111 625 l 138 583 l 135 566 l 135 562 q 203 458 146 535 q 212 421 203 433 l 212 381 q 229 331 226 372 l 233 328 l 229 324 q 279 304 241 311 q 307 243 281 279 q 320 196 307 199 l 310 180 l 317 166 q 498 263 389 176 q 609 344 554 283 q 669 475 669 414 q 680 532 680 475 q 632 589 660 547 q 441 710 509 692 l 441 713 l 437 710 l 434 710 q 394 720 422 720 l 377 720 q 353 730 365 730 l 330 730 l 313 727 l 310 737 q 286 720 290 732 l 286 707 l 290 690 l 286 690 l 290 687 l 290 653 l 283 653 l 283 663 q 276 724 283 707 l 279 734 l 273 741 l 243 734 m 340 22 q 370 -45 359 -37 q 380 -39 370 -39 l 377 -25 l 380 -12 l 377 -8 l 377 -5 l 380 5 l 374 12 l 377 32 l 367 55 l 360 55 q 340 22 340 47 z "},"Q":{"ha":685,"x_min":-35,"x_max":697,"o":"m 227 919 q 394 885 288 919 q 507 810 450 885 l 507 803 l 503 786 q 534 735 516 782 q 568 667 553 710 q 598 589 587 667 l 612 562 l 608 558 l 608 555 l 622 528 l 618 524 l 633 507 l 633 500 l 629 496 l 629 493 l 633 490 l 626 483 l 626 479 q 650 435 637 479 l 650 405 q 697 292 684 336 l 697 193 l 653 98 l 585 20 l 585 0 q 557 -27 557 0 l 554 -31 l 554 -35 q 564 -41 564 -35 l 564 -45 l 554 -45 l 554 -48 l 561 -62 l 557 -72 l 561 -89 l 557 -99 l 564 -106 l 564 -109 q 551 -136 564 -121 l 554 -146 q 493 -177 508 -177 l 483 -170 l 479 -170 q 472 -188 479 -188 l 469 -188 q 448 -163 469 -170 l 428 -123 l 425 -99 l 435 -79 l 435 -75 q 391 -24 412 -35 q 380 -72 384 -30 l 374 -72 q 363 -52 374 -52 l 360 -75 l 360 -109 l 357 -109 l 350 -102 l 350 -58 q 278 -14 330 -14 l 275 -10 l 271 -14 l 268 -14 q 47 166 113 47 q 5 269 31 190 l -28 323 l -28 363 l -35 391 l -31 395 l -35 412 l -35 486 q -1 650 -35 566 l 2 650 l -1 653 l -1 656 q 64 786 27 727 l 60 796 l 84 851 q 200 905 164 905 q 227 919 200 914 m 278 817 q 165 705 278 811 q 111 548 129 629 l 111 466 q 128 330 111 374 q 138 299 130 310 l 135 289 l 159 228 q 217 159 188 159 q 305 102 217 136 l 309 102 q 333 115 333 102 q 343 159 340 125 q 326 221 330 164 l 329 255 l 322 262 l 322 289 l 329 299 l 322 306 l 322 323 q 401 395 367 395 q 438 357 438 389 l 445 336 l 448 211 l 435 197 l 435 190 l 452 173 q 458 186 458 173 l 462 190 l 465 190 l 469 186 l 465 183 l 465 173 l 469 173 l 469 183 l 472 183 q 479 173 479 183 l 486 173 q 493 186 486 186 l 496 183 l 496 180 l 490 170 l 496 163 l 493 159 l 493 156 l 496 156 l 500 159 l 503 159 l 507 149 l 510 149 q 554 292 554 195 q 520 405 544 345 l 517 425 l 520 435 l 513 442 l 513 446 l 517 449 l 517 452 q 490 496 505 452 l 479 507 l 486 517 q 455 572 458 517 q 377 749 414 719 q 278 817 294 817 m 360 136 l 357 122 l 360 119 l 374 122 l 374 125 l 363 136 l 360 136 z "},"R":{"ha":717,"x_min":-92,"x_max":808,"o":"m 399 803 l 403 800 l 396 780 l 396 774 l 412 774 q 527 718 493 756 q 645 522 645 599 l 645 498 l 651 489 l 651 446 q 583 351 631 395 q 455 208 551 293 l 455 201 l 458 201 q 540 152 484 191 q 697 77 611 127 l 726 83 l 726 80 l 730 83 l 740 83 q 792 21 792 49 q 808 -8 808 4 l 808 -18 q 769 -80 808 -80 l 766 -83 l 753 -80 q 743 -96 753 -96 l 733 -90 l 724 -93 q 710 -80 720 -80 l 701 -83 l 697 -80 l 701 -77 l 701 -73 q 638 -44 695 -61 q 520 18 590 -8 q 455 57 513 29 q 314 123 379 98 q 233 165 311 130 l 229 168 l 219 168 q 206 129 210 168 l 203 129 l 206 125 l 206 103 l 203 100 l 206 96 l 206 90 l 199 80 l 199 64 q 252 -1 229 3 q 278 -60 273 -28 q 301 -103 301 -85 q 255 -165 290 -135 l 242 -218 l 242 -241 l 236 -241 q 199 -188 236 -199 l 199 -195 l 206 -195 l 206 -208 l 199 -214 l 197 -214 q 102 -113 197 -180 l 79 -71 l 79 -37 q 52 37 79 -5 q -6 175 12 104 l -42 260 l -42 328 l -65 522 l -58 528 q -72 561 -72 532 l -68 584 q -92 616 -72 596 l -92 629 l -75 626 l -78 643 q -68 672 -71 643 l -58 692 q -49 701 -49 692 l -45 701 l 10 665 l 23 663 q 154 734 103 690 q 216 760 172 734 l 304 787 l 389 780 q 399 803 392 803 m 347 590 l 353 512 l 353 498 l 347 489 l 347 459 l 340 459 l 340 476 l 334 486 l 347 509 l 340 557 l 340 587 l 330 616 l 311 616 l 311 623 l 308 620 l 304 620 l 301 623 l 298 623 l 292 604 l 292 590 l 298 581 l 298 545 q 292 509 292 539 l 288 505 l 281 505 l 285 509 l 285 545 l 292 554 l 292 574 q 269 640 276 591 l 265 640 l 252 629 l 242 633 q 180 564 242 627 q 115 492 180 553 q 95 466 100 466 l 92 469 l 88 469 l 88 459 l 95 450 l 95 437 l 92 433 l 92 430 q 102 394 102 430 l 102 358 l 108 338 l 115 338 l 124 345 l 183 335 q 245 345 209 345 l 245 342 l 249 345 l 281 345 q 363 319 333 345 l 353 306 l 357 302 l 360 302 q 412 326 361 314 q 504 518 504 400 l 484 577 q 425 640 454 640 l 412 649 l 396 649 q 347 590 368 649 m 275 636 l 275 626 l 278 626 l 285 633 l 285 636 l 275 636 m 347 623 l 347 620 l 357 629 l 357 633 l 347 623 m 317 253 l 317 250 l 321 253 l 324 253 l 328 250 l 330 250 l 330 253 l 324 260 l 317 253 m 288 220 l 292 217 l 292 214 l 288 197 l 294 197 l 301 211 l 301 214 l 294 220 l 288 220 m 163 201 q 190 86 163 174 l 197 86 l 197 103 q 206 178 197 142 q 163 201 175 201 m 275 184 l 275 178 l 285 188 l 285 191 l 281 191 l 275 184 m 233 -188 l 233 -191 l 239 -198 l 242 -182 l 239 -182 l 233 -188 m 197 -221 l 199 -221 l 199 -241 l 197 -241 l 190 -234 l 190 -227 l 197 -221 z "},"S":{"ha":739,"x_min":-63,"x_max":769,"o":"m 237 1114 l 283 1114 q 416 1090 416 1098 q 501 1055 490 1055 q 607 1002 543 1055 l 702 906 q 766 814 766 844 l 769 772 q 709 702 753 702 l 677 694 q 610 730 610 694 q 575 818 593 730 q 494 920 575 889 l 385 945 l 290 945 q 240 935 283 938 q 173 896 240 927 q 145 861 152 878 l 145 857 q 233 793 157 836 q 304 741 253 768 q 452 652 339 704 q 561 596 469 627 q 628 518 602 562 q 713 406 674 482 l 723 328 l 723 303 l 727 289 l 723 275 l 727 250 q 614 123 689 155 q 551 92 612 115 q 413 24 469 28 q 342 3 413 17 l 339 7 l 304 3 l 248 3 q 149 14 193 3 l 145 10 l 142 10 q 39 120 79 10 l 36 162 l 36 307 q 96 423 56 381 q 152 462 115 444 l 177 462 q 233 441 233 460 l 226 433 l 226 430 l 233 420 q 226 395 226 412 l 222 395 l 205 402 l 205 398 l 198 388 l 205 380 l 208 380 l 208 388 l 216 388 l 216 370 l 205 356 l 216 345 l 219 367 l 226 367 l 226 356 l 222 321 l 216 321 q 201 345 216 345 l 198 345 l 198 332 q 180 300 198 318 q 208 215 180 259 q 240 176 208 176 l 240 173 l 243 176 l 248 176 l 269 173 l 363 212 q 480 268 432 238 q 533 321 533 296 q 540 345 533 337 l 540 377 q 413 497 532 408 q 370 526 405 497 l 325 550 q 272 582 312 550 q 117 652 158 638 l 18 691 q -63 790 -41 725 l -63 793 q 36 1023 -63 903 q 138 1100 81 1065 q 237 1114 138 1109 z "},"T":{"ha":416,"x_min":-322,"x_max":635,"o":"m -77 1236 l -73 1236 q 63 1128 13 1128 l 121 1103 l 167 1095 l 171 1099 l 171 1103 l 163 1112 l 163 1116 l 176 1128 l 192 1128 q 300 1086 235 1126 l 333 1082 l 378 1107 l 437 1116 q 619 1049 496 1078 q 635 1012 635 1024 q 498 962 621 962 l 478 962 q 432 954 471 954 l 420 945 l 374 958 q 279 933 279 958 l 271 933 l 271 924 l 279 879 l 279 775 l 275 771 l 283 747 l 283 709 l 292 696 l 292 680 l 288 676 l 288 672 l 304 651 l 304 647 l 300 643 l 300 639 l 308 630 l 308 527 q 325 473 325 509 q 349 323 344 473 q 370 237 370 281 l 370 208 q 387 104 382 163 q 416 54 393 77 q 395 -8 395 35 l 387 -28 l 325 -75 l 304 -75 q 254 17 254 -25 l 233 66 l 233 191 l 225 216 q 213 224 213 216 l 213 232 l 225 278 q 208 340 208 308 l 208 410 q 196 448 208 432 l 196 473 q 171 589 196 515 q 151 634 171 609 l 159 647 l 159 804 q 105 937 159 909 l 72 962 q -23 991 11 962 l -65 1004 l -65 1008 l -90 1000 l -111 1004 l -193 983 l -227 983 q -301 1028 -301 1007 l -322 1053 l -322 1061 q -214 1124 -298 1103 q -140 1136 -170 1136 l -111 1136 l -77 1128 l -11 1132 l -11 1136 q -77 1236 -60 1185 z "},"U":{"ha":707,"x_min":-129,"x_max":751,"o":"m 513 924 l 524 924 l 551 897 l 551 835 l 534 798 l 534 643 l 538 625 l 534 625 l 545 608 l 541 591 q 568 474 568 494 l 565 471 q 583 416 570 471 l 586 412 l 586 409 l 583 406 q 613 319 594 406 q 641 251 621 319 q 671 186 661 222 q 696 151 677 186 l 751 100 l 751 45 q 709 24 741 24 q 596 68 657 24 q 551 79 591 75 q 428 110 551 92 q 366 123 394 123 l 311 123 l 300 131 q 36 68 133 113 q -22 20 10 35 l -43 20 q -87 0 -43 6 l -94 0 q -129 65 -129 9 l -129 75 q -111 100 -129 86 q -63 203 -85 170 q -1 326 -35 281 q 60 433 -1 347 q 109 536 106 513 q 153 663 153 604 l 153 680 q 180 777 180 724 q 201 821 194 777 l 201 842 l 225 866 l 263 866 q 318 801 318 820 l 318 735 q 277 690 318 712 q 256 653 265 657 l 260 650 l 260 639 l 239 605 l 239 543 q 136 344 136 358 q 105 248 118 330 l 98 241 q 119 230 101 230 l 153 248 l 393 248 l 435 244 l 445 254 l 486 254 l 503 289 l 503 296 q 473 392 488 327 q 418 529 457 417 l 421 553 l 421 584 l 418 635 l 421 635 l 418 639 l 418 643 l 428 656 l 428 763 q 513 924 428 837 z "},"V":{"ha":513,"x_min":-41,"x_max":602,"o":"m 526 1133 l 550 1133 q 602 1092 579 1133 q 570 982 602 1052 q 557 941 570 950 q 540 876 557 920 q 530 824 530 855 q 502 739 524 824 q 467 652 494 739 l 427 546 q 392 460 404 546 q 354 316 369 414 q 347 295 347 316 l 344 275 l 337 268 l 337 233 q 299 120 299 198 q 286 75 292 120 q 203 0 222 8 l 144 0 q 83 68 97 33 q 56 123 74 68 q 42 185 45 123 l 18 251 l 18 281 l -6 406 l -3 409 l -3 412 q -13 467 -13 435 l -13 536 l -30 614 l -30 707 l -41 766 l -41 814 q -30 889 -30 824 l -30 897 q 4 930 -16 922 l 52 930 q 104 893 92 913 q 134 824 113 891 l 134 787 q 114 697 134 753 l 117 649 l 117 629 l 111 622 l 114 618 l 114 608 l 100 584 l 100 536 q 107 498 107 530 l 111 498 l 107 481 l 107 453 l 114 443 l 111 439 l 111 436 l 117 429 l 117 406 l 121 391 l 117 378 l 117 374 q 155 306 136 330 q 179 336 179 318 l 193 378 l 189 381 l 234 491 q 262 553 252 517 q 299 659 277 566 q 354 793 328 694 q 420 958 382 812 q 454 1040 450 1017 q 498 1120 475 1057 q 526 1133 513 1133 z "},"W":{"ha":810,"x_min":-39,"x_max":997,"o":"m 910 1091 l 913 1091 q 983 1042 983 1078 q 990 1015 990 1042 l 997 1008 l 997 963 q 931 852 931 873 q 921 828 921 846 q 806 578 806 630 q 762 440 776 508 q 755 419 755 440 q 744 398 744 419 l 741 398 l 744 395 l 744 391 q 727 294 737 391 l 706 138 q 682 79 697 132 l 685 69 q 630 10 677 68 l 595 10 q 519 62 538 25 q 502 107 504 75 q 484 180 484 137 q 439 250 439 227 l 436 277 l 439 281 l 439 284 l 418 329 q 408 363 418 363 l 408 267 l 401 256 l 401 243 l 405 201 l 397 201 l 394 232 l 397 288 l 370 391 q 342 329 365 391 q 318 250 332 328 l 315 250 l 318 246 l 318 243 q 290 138 304 228 l 290 125 q 273 56 283 119 q 259 21 268 56 l 239 3 l 235 3 l 231 7 l 228 3 l 218 3 l 214 7 l 211 7 l 203 0 l 197 0 q 138 41 170 0 l 100 149 q 83 197 100 170 l 86 201 l 83 204 l 83 229 l 86 232 q 41 374 61 325 l 27 433 l 31 437 l 31 440 q 0 503 24 462 l -18 541 l -21 575 l -24 575 l -28 554 l -35 554 l -35 600 l -28 610 l -39 759 l -39 828 q -3 977 -28 945 l 0 981 l 31 981 q 79 939 79 962 l 106 852 l 106 825 q 117 793 106 806 l 117 776 q 145 613 117 747 q 165 506 155 506 l 165 481 l 176 422 q 249 547 231 481 q 290 631 262 596 q 353 724 290 650 q 397 738 389 724 l 401 738 q 446 710 426 710 l 453 696 l 450 686 q 477 623 455 684 q 515 544 515 576 q 553 422 533 505 l 550 422 q 561 395 553 395 l 564 395 q 591 429 591 403 l 630 544 l 675 662 q 685 686 677 686 l 682 689 l 682 693 q 747 842 723 802 q 782 914 757 882 q 848 1029 807 994 q 910 1091 901 1091 m 370 419 l 374 416 l 377 416 l 380 419 l 380 429 l 370 419 m 380 409 l 380 406 l 391 395 l 387 367 l 397 315 l 401 315 l 405 332 l 397 353 l 397 391 l 380 409 m 401 378 l 405 374 l 408 374 l 408 385 l 401 378 z "},"X":{"ha":758,"x_min":-101,"x_max":829,"o":"m 63 1070 l 70 1070 q 87 1049 70 1055 q 199 945 161 1016 q 279 829 245 853 q 310 774 298 812 q 415 655 321 749 q 446 704 420 655 q 536 788 513 773 q 621 854 536 800 q 680 930 671 899 l 704 948 l 718 948 l 722 945 l 725 945 q 735 951 725 951 l 739 955 l 739 959 q 805 917 771 959 l 808 903 l 808 896 q 704 777 808 844 q 600 687 631 696 q 488 551 503 599 l 575 432 l 701 244 q 743 181 729 226 l 826 73 l 829 56 q 791 0 829 14 l 787 0 q 637 104 714 0 l 642 108 q 561 251 642 117 q 488 345 561 265 q 432 418 454 361 l 429 422 l 408 432 l 408 429 l 404 425 l 391 429 q 331 401 349 418 q 241 338 257 378 l 189 265 q 87 160 189 241 q 10 91 56 109 l 3 83 l -17 83 q -101 160 -66 83 q -52 213 -101 199 q 0 272 -41 245 q 164 429 4 283 l 248 526 l 282 557 q 307 593 286 571 l 307 600 l 254 655 l 195 725 q 125 816 195 763 q 73 871 125 835 l 70 875 q 56 903 64 875 q 31 924 47 903 q 24 913 24 924 q 42 878 24 892 l 35 871 q 18 906 26 871 l 14 903 l 7 903 q -7 930 7 913 l -17 927 l -17 930 l -14 945 l -14 959 l -24 959 l -17 987 l -20 997 q 18 1039 5 1039 q 59 1056 34 1053 l 63 1070 z "},"Y":{"ha":735,"x_min":-56,"x_max":884,"o":"m 203 1005 l 211 1005 q 196 975 211 993 l 196 971 l 207 952 l 199 930 l 203 915 l 196 907 l 196 903 q 214 817 214 873 q 173 696 195 696 l 170 659 l 173 621 l 173 602 l 181 591 l 181 549 l 173 538 l 177 534 l 173 516 l 173 486 l 192 418 q 211 403 202 403 q 298 441 298 420 l 313 463 q 331 486 322 463 q 350 524 350 495 q 414 633 377 536 l 414 685 q 425 787 414 739 l 425 809 q 478 866 463 866 l 519 873 q 549 791 549 845 l 549 719 l 523 595 l 523 546 q 557 395 523 488 q 666 282 599 318 q 854 203 814 203 l 858 199 q 884 181 884 187 l 884 165 q 805 113 861 124 q 632 34 739 96 q 527 -15 617 34 q 391 -86 506 -15 l 170 -188 q 147 -195 170 -195 l 147 -229 l 139 -241 l 143 -256 l 139 -259 l 139 -263 l 143 -275 l 132 -275 l 132 -256 l 136 -210 l 132 -207 l 128 -207 l 121 -214 l 113 -214 l 94 -199 l 45 -199 l 23 -222 l 31 -263 l 26 -263 q 15 -233 19 -263 q -22 -184 7 -233 q -56 -169 -48 -184 l -56 -127 q 4 -45 -56 -109 q 94 215 94 159 q 147 241 114 241 l 162 237 q 170 252 162 252 q 117 301 170 292 q 49 384 75 334 l 41 384 l 41 388 l 45 391 l 41 403 l 45 414 l 31 441 l 31 444 l 34 448 l -3 572 l -3 583 l 0 587 l 0 591 l -7 591 q 12 696 0 673 l 7 700 l 7 704 q 90 869 25 761 q 102 900 98 869 q 151 956 115 924 l 151 983 l 155 983 l 165 975 q 203 1005 203 991 m 121 760 l 98 719 l 102 708 q 79 655 97 707 l 79 587 l 98 527 q 143 459 104 527 q 155 441 155 459 l 162 441 l 170 448 l 170 471 l 162 482 l 162 512 l 170 534 l 162 542 l 162 561 l 170 572 l 170 576 l 162 587 l 162 704 q 121 760 136 760 m 279 301 l 214 301 q 173 267 180 286 l 181 256 l 181 248 l 173 237 q 207 155 184 236 q 181 109 195 109 l 177 90 l 181 75 l 173 64 l 181 56 l 181 53 l 165 31 l 165 26 l 173 15 l 173 -11 l 177 -30 l 165 -30 q 155 15 162 7 l 155 34 q 165 60 165 47 l 162 64 l 151 64 q 139 26 139 64 q 113 -60 113 1 l 132 -79 l 151 -79 q 256 -37 197 -49 q 444 56 363 5 q 546 98 489 83 l 651 155 l 663 170 l 538 264 q 440 380 460 339 l 406 425 q 279 301 378 375 z "},"Z":{"ha":842,"x_min":-68,"x_max":910,"o":"m 856 965 l 886 965 l 910 938 l 910 921 q 842 863 888 893 l 754 781 l 672 696 q 611 605 629 648 q 469 431 503 495 l 397 353 q 339 289 389 353 q 237 177 241 196 l 237 174 l 254 174 l 380 218 l 486 218 l 492 224 l 492 258 l 479 272 l 469 272 l 452 258 l 448 262 l 448 265 l 465 286 l 462 299 l 469 306 l 469 309 l 458 309 l 458 316 q 479 340 472 316 q 567 397 536 397 l 625 387 l 631 394 l 635 391 l 638 391 l 655 401 l 662 401 l 675 387 l 675 374 q 655 363 675 363 q 645 343 655 343 l 648 340 l 648 330 l 645 326 q 706 235 688 252 q 781 140 760 183 q 832 61 786 140 l 897 -23 l 883 -37 l 876 -37 q 621 81 768 31 q 581 92 621 90 l 577 92 l 564 71 l 560 71 l 564 68 l 564 37 l 553 24 l 557 10 l 550 3 l 557 -6 l 557 -23 l 550 -37 l 543 -37 l 540 -20 l 540 7 l 550 54 l 540 68 l 540 78 l 543 81 l 543 85 q 533 105 533 85 l 526 105 l 506 54 l 506 31 l 509 31 l 519 34 l 519 27 l 509 -9 l 506 -13 l 506 -51 l 499 -51 l 499 -13 l 492 -3 l 492 0 l 503 14 q 492 64 499 59 l 492 109 q 438 136 483 136 l 390 136 l 295 119 l 292 119 l 281 123 l 281 119 l 231 88 l 227 92 q 87 10 170 68 q -24 -47 -5 -47 l -24 -43 l -27 -47 l -31 -47 q -68 -16 -66 -24 l -64 -13 l -68 -9 l -68 17 q -20 51 -54 40 q 3 68 -12 68 l 3 85 q 129 208 109 175 q 207 296 191 286 l 261 353 q 332 431 279 391 q 410 496 363 465 q 462 541 420 513 q 526 618 481 578 q 564 663 526 633 l 560 666 l 557 666 q 547 659 557 659 l 536 663 q 359 568 463 606 q 197 500 253 538 q 132 469 132 500 l 125 455 l 125 387 l 115 387 l 115 404 l 119 408 l 119 411 l 109 418 l 112 435 l 112 483 q 74 513 112 490 q 60 561 60 546 q 71 588 66 588 l 64 602 q 87 656 64 614 q 95 673 87 673 l 105 673 l 139 629 l 173 615 l 186 618 l 214 615 q 329 652 256 634 l 452 707 q 547 761 489 741 q 675 840 561 777 q 761 904 701 865 q 829 951 768 920 q 856 965 829 960 m 506 272 l 506 218 l 513 211 l 526 211 l 526 214 l 519 224 l 519 272 l 506 272 m 540 255 l 540 218 l 567 204 l 570 204 l 570 214 l 550 252 l 550 255 l 540 255 m 581 221 l 581 218 q 601 208 581 208 l 611 194 l 618 201 l 594 228 l 587 228 l 581 221 m 628 197 l 625 194 l 625 191 l 628 187 l 631 187 l 635 191 l 635 194 l 631 197 l 628 197 m 642 191 l 638 187 l 638 184 l 642 180 l 648 180 l 648 184 l 642 191 m 499 119 l 499 75 l 506 75 l 506 119 l 499 119 z "},"[":{"ha":386,"x_min":0,"x_max":0,"o":""},"\\":{"ha":386,"x_min":0,"x_max":0,"o":""},"]":{"ha":386,"x_min":0,"x_max":0,"o":""},"^":{"ha":652,"x_min":0,"x_max":0,"o":""},"_":{"ha":772,"x_min":0,"x_max":0,"o":""},"`":{"ha":463,"x_min":0,"x_max":0,"o":""},"a":{"ha":581,"x_min":-175,"x_max":821,"o":"m 214 884 l 224 884 l 231 878 l 245 881 q 324 857 310 873 q 376 805 348 857 l 376 802 l 373 791 q 418 661 401 759 l 424 647 l 421 644 l 441 471 l 473 395 q 538 278 486 352 q 600 178 559 217 q 662 102 604 161 q 703 44 662 91 q 804 -18 795 1 l 821 -76 l 821 -90 q 807 -121 807 -102 q 755 -159 783 -131 q 614 -56 682 -159 q 559 34 614 -33 q 431 212 490 119 q 393 264 412 219 q 369 299 387 264 l 352 302 l 342 302 l 294 285 l 286 285 l 245 289 q 208 275 245 283 q 180 257 208 269 q 111 134 160 241 q 42 30 50 54 q 18 -3 28 30 q -26 -69 -1 -13 q -57 -127 -33 -73 q -78 -159 -70 -127 q -95 -183 -83 -159 l -119 -190 q -175 -131 -168 -190 l -175 -114 q -123 -52 -159 -86 q -74 6 -113 -22 q 1 161 -47 82 q 18 244 12 189 l 35 268 l 35 289 q 94 530 52 387 q 111 602 107 554 q 149 715 149 646 q 166 764 160 715 l 170 781 l 173 785 l 177 785 l 173 788 l 173 791 l 197 871 l 214 884 m 162 420 l 162 403 l 172 393 q 307 437 184 403 q 328 451 314 451 l 323 454 l 328 472 l 328 503 q 296 572 314 572 l 234 572 q 186 482 207 557 l 162 420 z "},"b":{"ha":734,"x_min":-18,"x_max":863,"o":"m 477 955 l 570 935 q 637 897 607 907 q 669 859 637 890 l 669 839 q 627 757 669 810 q 600 685 614 745 l 604 675 l 600 675 l 604 671 l 604 668 q 576 589 576 616 l 590 569 l 590 565 l 587 565 l 559 589 q 511 541 544 589 l 515 538 l 515 534 l 511 531 l 511 528 q 576 494 528 508 q 716 452 646 484 l 726 452 l 726 449 l 723 446 l 723 442 q 774 412 732 442 q 846 340 846 367 l 863 319 l 863 295 q 829 227 863 283 q 815 210 829 217 l 819 206 l 819 203 q 774 189 819 192 l 703 131 l 699 131 l 696 135 l 692 135 q 675 127 692 127 q 593 90 675 111 q 528 70 593 83 q 392 42 506 61 q 364 32 392 35 q 323 -9 323 3 l 327 -12 l 327 -16 l 323 -29 l 330 -53 l 330 -170 l 323 -170 l 323 -63 l 320 -63 l 307 -84 l 303 -98 l 293 -94 l 293 -87 q 300 -63 294 -63 l 296 -60 l 296 -46 l 303 -36 l 303 -9 l 296 1 l 296 5 l 300 8 l 300 12 q 231 25 292 22 l 228 22 l 224 22 q 132 63 147 42 l 119 60 q 47 176 59 113 l 40 199 l 43 210 q 22 377 37 315 l 33 463 l 33 469 q -11 589 -11 506 l -18 613 q 16 784 -2 784 l 81 846 l 125 873 q 170 893 139 873 l 238 910 l 245 903 l 252 910 l 262 907 q 354 945 319 942 l 357 948 l 364 948 l 368 945 l 371 945 q 382 951 371 951 l 477 955 m 170 846 q 153 801 153 816 l 159 794 l 166 794 q 204 836 204 814 q 170 849 204 846 l 170 846 m 382 801 l 374 801 l 361 811 l 354 811 l 313 798 q 279 767 313 780 l 279 770 q 296 801 296 789 l 286 808 l 279 808 q 228 777 270 795 l 197 736 l 193 732 l 190 732 l 173 736 q 149 699 149 713 l 149 675 q 159 688 154 675 l 163 692 l 176 692 l 176 685 q 142 644 158 685 q 125 630 142 630 l 129 613 l 119 623 l 125 658 l 119 658 q 91 610 91 621 q 139 576 91 585 q 166 593 155 578 q 235 627 186 593 l 303 658 l 368 675 l 419 702 l 446 750 q 456 777 453 750 q 481 798 466 798 l 481 801 q 436 818 481 812 q 382 801 395 811 m 248 747 l 255 747 l 255 740 l 218 719 l 211 705 l 204 705 l 204 715 q 248 747 205 723 m 74 699 q 87 658 78 658 l 98 658 q 122 685 122 668 l 125 722 l 115 729 l 108 729 q 77 715 96 715 l 74 699 m 522 630 l 522 616 q 549 600 530 600 q 590 675 570 600 l 563 675 q 522 630 547 669 m 395 548 l 409 538 l 412 541 l 416 541 l 426 538 l 436 541 l 443 534 l 467 534 q 477 579 475 534 l 471 606 l 467 606 q 402 565 440 581 l 395 548 m 481 606 l 488 583 l 484 569 l 488 548 l 491 548 l 515 576 l 515 583 q 484 606 510 597 l 481 606 m 378 425 q 354 395 378 414 l 351 395 q 340 408 351 408 l 334 408 l 320 401 l 320 384 q 313 360 313 376 l 307 360 l 293 401 l 289 401 l 262 391 l 200 418 q 153 343 176 418 l 153 295 l 163 261 l 183 224 q 193 216 193 224 l 193 213 l 190 210 l 190 206 l 211 189 l 231 189 l 231 182 l 211 182 l 211 176 l 228 172 l 235 172 q 241 182 235 182 l 248 176 l 258 176 q 282 186 271 186 l 286 186 l 286 176 q 272 152 274 176 l 275 149 q 385 162 275 154 l 389 165 l 392 182 l 395 186 l 399 186 q 443 159 416 166 q 474 172 463 172 l 505 172 q 559 189 505 189 q 621 210 559 201 q 641 231 641 220 l 652 234 l 645 241 l 634 241 l 614 237 l 610 241 l 607 241 l 570 231 l 552 231 l 552 237 l 610 254 l 621 251 q 689 275 632 260 q 730 309 718 291 l 730 313 q 682 347 726 324 q 477 408 625 408 q 439 422 459 422 l 426 418 l 406 425 l 378 425 m 505 244 q 535 231 535 235 l 535 224 l 515 220 l 501 241 l 505 244 m 795 220 l 795 199 l 808 199 l 808 210 l 798 220 l 795 220 z "},"c":{"ha":719,"x_min":-35,"x_max":817,"o":"m 282 1141 l 286 1141 l 286 1129 q 302 1055 286 1074 l 298 1036 l 302 1021 l 286 959 q 298 932 286 946 q 278 862 290 862 l 278 854 q 379 804 278 848 l 406 781 l 418 785 q 549 723 502 738 l 704 626 q 739 583 715 626 l 751 537 q 708 517 751 524 l 704 513 l 685 513 l 650 526 q 642 513 650 513 l 638 517 l 611 537 q 503 622 576 597 q 387 692 471 661 q 368 703 378 703 l 356 699 q 317 715 356 705 l 309 723 l 302 723 l 290 703 l 290 487 l 286 471 l 290 456 l 290 363 l 294 301 l 290 289 l 321 227 q 368 197 349 197 l 425 154 q 460 119 425 142 q 635 61 548 61 l 650 61 l 673 115 l 665 165 l 669 177 q 600 336 665 224 l 600 347 q 658 370 622 370 q 731 343 658 361 l 766 250 q 805 154 805 176 q 817 115 805 132 l 817 61 q 708 -43 770 -43 l 692 -43 l 638 -47 q 309 92 493 -47 l 309 96 q 298 64 298 94 l 298 41 l 290 30 l 290 -8 l 282 -16 l 278 -16 l 278 7 l 282 80 l 271 100 l 275 104 l 275 107 q 232 157 267 108 q 108 316 118 267 q 31 467 46 387 l 19 463 q -20 556 -20 506 q -35 591 -35 577 l -35 680 l -16 773 q 3 804 -9 773 l 38 843 q 151 866 62 857 l 166 866 l 178 858 l 232 858 l 251 854 q 267 878 254 878 l 263 916 l 255 916 l 255 897 l 248 889 l 239 959 q 263 1021 252 959 l 228 1095 l 236 1102 l 239 1102 q 248 1079 248 1102 q 267 1055 267 1072 l 275 1055 l 278 1075 l 278 1090 q 267 1118 278 1103 q 282 1141 276 1141 m 151 758 q 89 669 89 696 q 143 513 122 513 q 220 340 159 414 q 278 301 264 301 l 278 304 l 282 320 l 282 452 l 271 452 l 275 456 l 275 460 l 263 471 q 282 483 263 478 l 282 490 l 267 513 l 267 517 l 275 526 l 271 529 l 271 533 l 275 537 l 271 541 l 275 568 l 275 572 l 267 587 q 278 642 269 642 q 232 753 271 753 l 209 753 l 151 758 m 298 -20 l 305 -28 l 302 -47 l 298 -47 l 290 -39 l 290 -28 l 298 -20 z "},"d":{"ha":793,"x_min":-137,"x_max":909,"o":"m 271 1090 l 279 1090 l 290 1068 l 287 1064 l 287 1061 l 309 1057 q 324 1079 317 1079 l 328 1079 l 339 1053 l 335 1049 l 339 1046 l 347 1046 q 369 1061 347 1061 l 361 1072 l 366 1076 l 369 1076 l 373 1072 l 376 1072 l 373 1053 l 373 1049 l 376 1046 l 376 1042 q 358 1004 368 1042 q 384 982 371 982 l 384 985 l 391 993 l 395 993 l 395 989 l 380 970 l 391 963 l 391 970 l 403 970 l 399 967 l 399 960 q 496 907 456 943 q 688 787 588 864 q 722 757 711 779 q 845 611 762 720 q 867 585 857 611 l 864 581 l 864 577 q 909 442 897 515 l 909 420 q 860 233 909 296 q 744 86 844 182 q 602 22 660 22 q 496 0 555 0 q 320 45 364 16 q 264 105 264 86 l 268 116 q 253 142 259 116 q 227 184 243 142 q 174 266 203 202 q 140 337 161 279 q 88 435 113 371 q 32 469 46 448 l 24 461 l 17 469 l 17 472 l 58 502 l 62 506 l 62 510 l 54 521 l 62 532 l 62 536 q 24 626 28 597 q -9 690 16 626 l -5 701 q -73 843 -21 707 q -88 877 -79 843 q -118 922 -109 896 q -137 948 -124 922 l -137 963 q -88 1031 -119 1022 q -28 1061 -88 1041 l 69 1061 q 174 1042 174 1050 l 178 1046 l 189 1046 q 223 1034 203 1034 l 256 1034 l 253 1038 l 253 1046 l 256 1049 l 256 1053 l 245 1064 l 245 1068 l 271 1049 l 283 1053 l 283 1068 l 271 1090 m 388 1053 l 388 1049 l 380 1042 l 380 1046 l 388 1053 m 399 1038 l 403 1038 l 410 1031 l 406 1031 l 399 1038 m 376 1031 l 380 1031 l 388 1023 l 384 1023 l 376 1031 m 373 1012 l 376 1012 l 384 1004 l 373 1004 l 373 1012 m 410 997 l 414 993 l 414 989 l 410 985 l 406 985 l 403 989 l 403 993 l 406 997 l 410 997 m 32 914 q 77 783 32 842 q 103 693 86 720 q 182 525 114 652 l 197 450 l 193 450 q 279 277 216 368 q 373 142 338 142 l 418 127 l 422 131 l 425 131 l 481 123 q 526 138 481 131 l 530 135 l 530 131 q 718 243 678 194 q 770 307 770 272 l 781 356 l 778 390 l 781 401 q 755 521 781 463 q 635 667 726 613 l 541 734 q 376 821 513 755 l 366 813 l 354 813 l 354 821 q 324 798 324 807 l 324 772 l 320 739 l 324 734 l 324 731 l 320 697 l 324 611 l 320 607 l 317 607 l 313 611 l 309 611 l 313 629 l 313 633 l 305 663 l 305 715 l 298 810 q 268 764 286 807 l 268 749 l 275 739 l 275 731 l 268 723 q 256 776 256 738 q 279 821 260 806 l 279 825 q 178 892 255 861 q 54 926 137 926 l 39 926 q 32 914 32 926 m 73 907 l 88 899 q 73 877 79 877 l 69 877 l 69 881 l 77 892 l 69 903 l 73 907 m 358 810 l 361 806 l 361 802 l 350 794 l 347 794 l 347 798 l 358 810 m -96 779 l -88 772 l -88 768 l -96 776 l -96 779 m -114 772 l -106 772 l -103 757 l -106 753 l -111 753 l -114 757 l -114 772 m -84 757 l -69 739 l -69 720 q -88 746 -75 720 l -84 757 m -103 734 l -99 734 l -88 723 l -88 720 l -96 712 l -103 734 m 354 734 l 358 731 l 358 727 l 354 715 l 339 715 l 339 720 l 354 734 m -62 712 l -35 667 q -69 708 -69 688 l -65 712 l -62 712 m -24 644 l -13 633 l -13 626 l -24 637 l -24 644 m 305 604 l 309 604 l 320 592 q 309 570 317 570 l 305 573 l 305 604 m 313 562 l 317 558 l 313 502 l 313 476 l 305 476 l 305 555 l 313 562 z "},"e":{"ha":465,"x_min":-18,"x_max":500,"o":"m 195 774 l 197 774 q 264 744 228 774 q 340 661 306 692 q 360 623 340 652 l 378 549 l 374 538 l 383 469 l 380 451 l 383 410 l 383 361 l 378 355 l 380 352 l 380 349 l 369 315 l 372 311 l 372 309 q 363 291 369 291 l 366 288 l 366 286 l 326 210 q 273 152 321 210 l 271 149 q 238 137 271 137 l 218 134 q 200 122 208 122 l 180 125 l 177 117 q 244 6 197 39 q 282 -17 271 -17 q 299 -31 291 -17 q 369 6 334 -31 q 407 41 385 10 q 431 56 421 41 l 442 61 l 445 61 q 497 44 448 56 l 500 41 l 500 29 q 486 6 500 16 q 459 -34 486 -12 q 448 -57 459 -45 l 450 -66 q 442 -86 444 -66 q 407 -136 421 -126 q 331 -176 369 -173 l 328 -180 l 256 -142 q 189 -77 256 -136 q 116 9 189 -62 l 70 84 q 0 239 46 173 q -18 300 -13 253 q 9 332 -16 307 l 14 326 l 26 329 l 32 323 l 32 326 l 26 358 l 32 363 l 28 381 l 32 395 l 26 413 l 26 418 l 46 506 l 37 544 q 61 634 46 544 q 195 774 113 774 m 119 535 l 119 492 l 108 416 q 113 303 113 383 l 113 279 q 136 247 117 247 l 151 241 l 183 241 q 253 271 190 252 l 262 267 q 285 311 271 294 q 296 343 296 330 q 305 381 302 343 l 308 381 l 305 384 l 305 433 l 311 442 l 305 448 l 308 451 l 305 454 l 305 477 q 223 629 305 591 l 206 634 q 172 602 186 634 q 142 576 150 576 q 119 535 142 559 z "},"f":{"ha":825,"x_min":-49,"x_max":1013,"o":"m 606 999 l 614 987 l 614 956 l 602 941 l 602 929 l 621 906 l 621 898 l 614 879 q 606 902 606 879 l 598 902 l 598 890 l 590 890 q 583 918 590 909 l 583 922 l 594 937 l 594 956 l 583 972 l 587 972 l 598 968 l 598 991 l 606 999 m 951 999 l 981 999 l 1013 968 q 970 863 1013 918 q 911 743 970 845 l 916 739 l 916 736 l 904 720 l 904 685 l 924 662 l 924 654 q 873 627 908 627 l 865 581 l 865 561 l 873 549 l 873 530 l 865 519 l 865 495 l 858 495 l 858 546 q 842 650 858 621 l 834 673 l 834 705 q 869 809 869 745 l 865 813 l 861 813 l 807 759 l 764 736 l 734 724 l 722 728 l 722 724 l 714 716 l 710 720 l 707 720 l 695 709 l 691 709 l 687 712 l 684 712 q 629 689 664 689 l 621 673 l 621 662 l 629 646 l 633 646 l 644 654 l 641 631 l 637 631 l 625 639 q 614 600 614 618 l 610 600 l 598 612 l 598 623 l 610 635 l 606 654 l 606 669 l 594 669 l 563 646 l 540 654 l 521 654 q 478 635 503 654 l 463 639 l 458 627 l 439 631 l 389 631 l 374 619 l 327 619 l 323 623 l 319 623 l 311 600 l 315 596 l 315 592 l 311 569 l 377 456 l 404 426 l 420 437 l 431 437 l 435 433 l 439 433 q 532 476 439 439 l 551 476 l 575 453 l 575 441 q 532 368 532 383 q 524 340 532 349 l 528 317 l 517 317 l 517 375 l 509 395 l 505 395 q 443 368 498 385 l 435 356 q 447 313 443 356 l 509 209 q 559 104 524 139 l 559 100 l 555 96 l 555 92 q 583 -24 568 92 q 602 -74 593 -26 l 606 -78 l 606 -105 q 563 -241 602 -215 l 544 -241 q 497 -167 497 -208 q 408 -47 488 -136 q 338 26 406 -25 l 331 35 l 323 35 q 269 58 323 58 l 261 65 l 184 65 q 160 92 160 76 l 241 170 q 323 263 296 263 q 338 232 338 247 q 311 182 338 195 l 304 162 q 354 119 304 141 q 451 22 408 79 l 455 26 l 455 31 l 443 50 l 443 65 l 463 92 l 463 96 q 397 232 419 161 q 350 290 379 242 q 327 325 327 300 q 300 336 300 330 l 300 340 q 311 348 311 340 l 254 456 q 211 515 243 460 q 172 565 202 515 q 48 677 77 677 l 40 639 l 33 639 l 33 669 q 5 716 19 714 q -2 728 -2 716 l -14 728 l -14 720 l -25 720 l -25 736 l -22 739 l -22 743 l -49 774 l -49 786 l -25 813 l -33 821 l -33 825 l -25 832 l -22 832 l -18 829 l -6 832 l -9 852 q -2 867 -2 852 l 1 871 l 5 871 l 9 867 l 9 859 l 1 848 l 1 840 q 37 790 22 793 l 40 790 l 40 793 l 33 805 l 33 817 l 40 825 q 48 786 48 825 q 141 732 70 783 l 160 736 l 195 728 l 273 728 l 361 716 q 408 732 361 728 l 412 736 l 416 736 l 420 732 l 424 732 q 478 751 424 742 l 486 759 q 494 747 494 759 l 532 743 q 587 763 551 763 q 606 809 600 763 l 594 848 l 590 852 l 590 867 l 598 867 l 610 821 l 614 817 l 614 782 l 621 782 l 621 802 l 629 802 q 644 778 629 782 q 714 813 665 798 q 788 867 714 821 q 869 922 788 884 q 924 976 869 941 l 951 999 m 277 623 l 277 615 l 296 596 l 300 596 l 300 615 l 296 619 l 296 623 l 292 619 l 288 619 l 277 623 z "},"g":{"ha":456,"x_min":-22,"x_max":453,"o":"m 342 684 q 419 644 399 684 q 425 612 425 644 l 444 589 l 444 587 l 441 584 l 444 581 l 441 496 l 441 475 q 436 461 441 461 l 439 458 l 439 447 l 427 413 q 450 387 450 401 l 441 348 l 444 330 q 405 291 444 326 l 405 174 l 419 143 l 419 98 l 416 95 l 416 92 q 433 -24 430 92 q 448 -61 440 -24 l 453 -66 l 453 -69 l 448 -132 l 453 -138 l 453 -195 q 405 -249 444 -220 q 359 -275 405 -267 l 256 -269 l 231 -271 l 212 -266 l 183 -269 l 180 -266 l 180 -263 l 178 -266 l 126 -266 l 118 -260 l 100 -260 q 21 -223 52 -260 q -10 -178 -10 -212 q -22 -143 -17 -178 q -7 -104 -7 -120 l -7 -86 q 12 -4 1 -74 q 33 43 19 0 q 73 100 43 50 q 100 152 80 107 q 140 174 117 174 q 163 135 163 156 l 163 115 q 143 78 163 107 q 81 -13 101 8 l 64 -50 l 66 -75 q 52 -135 60 -75 l 52 -138 q 121 -178 92 -178 l 155 -178 q 200 -192 181 -192 l 237 -192 l 268 -206 q 319 -183 315 -206 q 368 -157 348 -182 q 393 -92 381 -144 l 393 -81 q 379 -18 382 -50 q 368 15 368 -18 l 368 41 l 370 52 l 368 64 l 368 72 l 362 72 l 351 103 l 351 109 l 353 112 l 353 115 l 348 121 l 348 135 q 311 155 337 135 l 302 155 q 254 135 286 135 l 245 135 q 195 157 237 142 l 186 155 q 143 186 186 163 q 83 214 127 186 q 78 231 78 214 q 50 302 64 231 l 52 305 l 52 308 q 38 393 38 355 q 106 561 38 483 l 189 635 l 229 661 l 256 664 l 265 664 l 277 669 l 302 667 l 308 672 l 311 672 l 313 669 l 317 669 q 342 684 317 684 m 243 604 l 245 601 l 245 598 q 214 558 234 568 q 175 501 189 538 q 163 481 175 481 l 163 470 q 149 410 152 441 q 135 376 144 410 q 143 356 140 376 l 140 328 q 172 274 155 313 l 212 245 l 214 248 l 217 248 q 251 240 227 240 l 271 240 q 317 317 304 279 q 325 339 325 317 q 311 379 317 339 l 313 410 q 302 484 313 439 l 302 513 l 296 518 l 299 522 l 299 532 l 288 572 l 282 601 l 254 610 l 243 604 z "},"h":{"ha":479,"x_min":-5,"x_max":535,"o":"m 361 964 q 387 929 379 954 q 401 880 401 929 q 396 851 396 869 l 396 758 l 414 738 l 414 724 l 409 699 l 409 686 l 412 675 l 414 675 l 412 666 q 407 598 411 598 l 411 574 l 409 568 l 411 549 l 411 538 l 414 532 l 414 475 q 422 458 422 465 l 436 458 l 445 452 l 477 452 q 519 437 486 444 q 535 422 535 426 l 535 408 q 482 373 505 377 q 456 360 482 369 l 444 345 l 444 340 l 447 334 l 447 261 q 466 216 447 239 l 469 204 l 469 202 l 466 197 l 466 186 l 469 180 l 469 146 l 475 124 l 477 122 l 477 106 l 488 81 l 488 64 q 494 60 494 64 l 494 39 l 500 18 l 502 16 l 502 -83 l 494 -97 q 456 -117 473 -112 q 449 -129 452 -129 q 411 -94 421 -115 q 407 -71 407 -86 q 394 -42 403 -71 q 383 27 385 -33 l 380 36 l 381 75 l 381 117 l 378 122 l 378 142 l 369 168 l 367 170 l 367 201 l 363 206 l 363 237 l 358 256 l 356 257 l 356 278 q 347 323 352 278 q 325 331 347 331 l 321 334 l 193 334 q 183 322 190 334 l 183 197 l 188 191 l 188 172 q 202 147 197 163 l 202 102 l 216 64 l 216 31 q 165 -3 194 7 l 144 -3 q 125 12 132 3 q 109 65 115 34 q 100 96 100 75 l 96 100 l 96 138 l 92 144 l 92 182 q 85 214 89 187 l 78 224 l 78 301 l 81 309 q 58 340 81 320 l 43 345 l 26 345 q 8 358 8 351 q -5 404 -5 382 q 9 428 1 428 q 39 444 20 437 l 52 455 q 63 479 52 460 l 63 510 l 66 515 l 66 556 l 59 568 l 59 635 l 64 653 q 78 673 68 653 l 78 681 l 63 708 q 48 734 60 722 q 31 768 43 768 q 8 796 12 787 l 56 832 q 83 873 56 837 q 114 884 96 873 l 144 884 q 176 860 176 874 q 186 849 176 854 l 183 818 l 183 789 q 163 732 176 732 q 158 719 163 726 l 158 715 l 160 697 l 151 694 l 151 683 l 147 677 l 147 629 l 158 612 l 158 591 l 149 551 q 136 530 141 547 l 136 515 l 142 494 l 144 492 l 144 463 q 155 455 151 463 l 155 444 l 167 444 l 172 448 l 204 448 l 210 452 l 224 452 l 233 450 l 246 452 l 270 450 l 325 460 l 337 470 l 337 490 l 334 496 l 334 530 q 330 551 330 533 l 319 568 l 319 596 l 315 602 l 315 655 l 312 661 l 312 726 l 315 732 l 315 766 l 321 785 l 323 787 l 323 803 l 326 808 l 326 825 l 310 857 q 301 904 310 882 l 301 913 q 325 951 301 938 l 361 964 z "},"i":{"ha":231,"x_min":-5,"x_max":259,"o":"m 70 1087 l 81 1087 l 99 1076 l 96 1072 l 96 1065 l 159 976 l 166 983 q 140 1006 166 1001 l 140 1017 q 163 1006 163 1013 l 166 1009 l 170 1009 l 181 1006 q 229 1042 189 1019 q 241 1065 232 1065 l 241 1061 l 244 1065 l 248 1065 l 259 1054 l 259 1046 q 229 1006 247 1020 q 222 979 229 979 l 218 979 l 218 983 l 222 994 l 218 994 q 181 939 197 975 l 189 939 q 199 954 191 954 l 203 954 l 189 928 l 199 924 l 199 913 l 196 890 l 237 827 q 259 771 237 813 l 259 768 l 252 760 l 248 760 q 226 812 234 760 l 181 846 l 170 883 q 163 868 163 883 l 159 864 l 151 864 q 166 894 156 894 l 163 913 q 148 901 148 907 l 155 890 q 144 879 144 890 l 140 876 l 136 876 l 133 879 l 133 883 l 140 890 l 136 894 l 136 898 l 144 905 l 144 909 l 140 909 q 99 853 99 886 q 92 831 92 853 l 88 831 l 84 835 l 81 835 l 81 816 l 73 816 l 73 823 l 81 853 l 77 857 l 73 857 l 43 849 l 36 871 l 73 894 l 70 898 l 70 901 l 81 924 l 88 924 l 88 909 l 133 949 q 106 983 121 983 q 88 1024 106 996 q 62 1072 88 1042 l 62 1080 l 70 1087 m 111 835 q 125 783 125 835 l 121 768 l 125 764 l 125 760 l 121 749 q 129 730 129 749 l 133 734 l 136 734 q 148 690 144 734 l 140 690 l 140 645 q 125 597 129 633 l 106 545 l 106 474 q 96 433 106 433 q 114 345 106 410 l 103 281 l 111 274 l 103 252 l 106 237 l 84 125 l 88 114 l 84 111 q 96 92 91 111 l 84 73 l 92 62 l 81 43 q 92 21 92 40 l 92 6 l 81 -5 l 84 -8 l 84 -26 q 62 -49 77 -41 l 66 -68 l 66 -86 l 58 -86 l 58 -75 l 21 -105 l 14 -105 q -5 -64 5 -105 q 36 73 -5 -12 l 33 77 l 33 84 l 36 125 l 33 129 l 33 133 q 51 211 41 211 l 47 237 l 47 244 l 51 248 l 51 252 q 40 274 45 252 l 43 326 l 43 333 l 51 340 l 47 345 l 47 363 l 51 385 l 47 404 l 51 408 q 40 437 40 410 l 40 486 l 55 541 l 47 549 l 47 556 q 66 589 66 556 l 70 593 l 58 615 l 62 627 l 51 627 l 51 630 q 62 637 51 637 l 66 642 l 66 645 q 18 675 66 675 l 18 682 l 40 690 l 43 690 l 55 682 l 62 682 l 62 686 l 55 701 l 62 723 l 62 727 l 47 727 l 47 730 q 77 749 47 736 l 77 757 l 70 779 l 73 779 l 77 775 l 81 775 q 111 835 90 809 m 18 771 l 36 771 l 36 757 l 33 757 q 18 768 18 762 l 18 771 m 21 649 l 25 645 l 25 642 l 21 637 l 18 637 l 14 642 l 14 645 l 18 649 l 21 649 m 43 -68 l 43 -71 l 55 -60 l 55 -56 l 43 -68 z "},"j":{"ha":678,"x_min":3,"x_max":733,"o":"m 75 607 q 114 591 91 607 l 135 604 q 195 591 141 598 l 201 598 l 225 598 q 284 586 229 591 q 312 595 284 595 q 359 580 340 580 l 371 586 l 389 583 l 404 598 l 419 598 l 464 559 l 461 544 q 494 454 472 479 q 538 376 503 409 q 688 123 538 327 q 733 -12 715 75 q 718 -62 723 -62 l 721 -65 l 721 -80 l 712 -107 l 709 -107 l 712 -110 l 712 -113 q 644 -184 712 -125 q 602 -218 644 -195 l 598 -215 l 595 -215 q 551 -236 591 -224 q 476 -266 551 -241 l 467 -271 l 464 -269 l 461 -269 l 437 -281 l 401 -281 l 395 -274 l 362 -281 l 359 -277 l 345 -281 l 294 -281 l 273 -269 l 258 -271 q 228 -254 234 -262 l 225 -256 l 222 -256 q 109 -184 117 -184 q 75 -163 100 -173 q 48 -134 75 -158 q 31 -74 31 -88 l 27 -74 q 18 -110 22 -74 l 13 -110 l 13 -92 l 18 -68 l 18 -65 q 13 -45 13 -58 l 7 -45 l 7 -41 l 18 -18 q 7 18 9 -18 q 36 134 13 69 l 33 149 l 39 168 l 36 176 q 57 224 48 176 q 75 266 62 224 q 111 332 111 323 l 102 350 l 102 359 q 111 395 109 367 q 93 427 111 413 q 84 448 92 448 l 78 442 q 3 481 34 450 l 3 493 q 72 607 32 566 l 75 607 m 165 425 l 156 433 l 135 433 q 117 401 117 424 l 117 353 l 125 340 l 125 335 l 117 317 q 150 287 140 317 q 168 272 159 287 q 177 257 176 272 l 180 254 l 180 251 l 174 242 l 177 233 q 130 146 130 175 l 102 71 l 102 33 l 96 0 l 96 -9 q 105 -35 105 -20 l 102 -39 q 120 -68 106 -39 q 249 -140 183 -130 q 312 -167 259 -140 l 329 -173 l 374 -173 l 380 -179 l 410 -176 l 419 -176 l 434 -179 q 497 -161 440 -169 l 551 -137 l 616 -77 l 611 -68 l 619 -59 l 623 -59 l 619 -56 l 619 -47 l 625 -39 l 619 -12 l 623 15 l 604 36 l 602 39 l 598 39 l 593 33 l 583 41 l 590 54 q 569 102 574 75 q 538 158 554 106 l 488 233 q 429 311 448 265 q 401 347 412 344 l 404 350 l 404 361 q 359 401 392 388 q 252 430 319 425 l 239 433 l 233 427 l 225 427 l 216 437 l 165 425 z "},"k":{"ha":665,"x_min":-52,"x_max":770,"o":"m 635 925 l 639 925 l 657 911 l 657 885 l 653 882 q 617 808 620 838 l 613 808 l 617 798 l 613 787 l 624 780 q 613 725 621 731 l 613 722 l 624 707 l 617 685 l 613 685 l 617 682 l 617 634 l 602 609 l 599 612 l 610 642 l 602 663 l 602 674 l 610 703 q 602 732 602 703 l 595 740 l 599 758 q 588 780 588 758 l 581 780 l 581 762 q 541 677 541 701 l 530 667 l 533 656 l 413 514 l 413 492 q 457 405 433 467 q 519 318 481 405 l 515 314 q 555 278 515 308 q 606 194 555 263 l 631 194 q 617 201 631 201 l 617 231 l 613 249 l 628 260 l 628 314 l 639 325 l 642 321 l 642 252 l 650 252 l 650 260 l 657 260 l 657 125 q 671 114 657 119 q 719 27 671 94 q 770 -56 736 -18 l 770 -67 l 755 -82 l 744 -75 l 733 -75 l 733 -89 l 726 -89 l 726 -71 q 701 -24 711 -24 l 693 -24 l 693 -27 l 697 -31 l 697 -35 l 693 -35 q 675 -5 684 -35 q 657 12 665 -5 l 664 23 l 664 27 l 661 27 l 650 16 l 650 -45 l 646 -45 l 642 -42 l 639 -42 l 635 -60 l 628 -53 l 628 -27 l 631 -24 l 631 -20 q 613 38 624 -20 l 606 60 l 602 63 l 610 74 q 595 132 602 74 q 515 227 535 172 q 450 292 507 227 l 446 296 l 446 303 l 450 307 l 450 311 q 420 347 443 311 q 388 376 408 347 q 377 387 377 376 l 373 387 q 355 351 364 387 l 351 351 l 348 354 l 348 358 l 351 398 l 351 401 l 337 412 l 337 420 l 333 420 q 300 372 300 404 l 293 372 l 293 387 l 279 387 l 279 318 q 271 274 271 313 l 268 274 l 279 256 l 275 252 l 275 249 q 290 220 282 249 l 286 183 l 319 60 l 322 60 l 337 121 l 337 132 l 333 136 l 333 140 l 337 143 l 340 143 l 345 140 l 345 129 l 337 100 l 337 92 l 345 81 l 345 56 l 340 52 l 340 49 l 351 38 l 351 16 l 340 -16 l 337 -16 l 345 -78 l 337 -85 l 337 -89 l 351 -115 l 351 -136 l 340 -151 l 340 -158 l 348 -169 l 348 -180 l 340 -180 l 340 -173 l 330 -180 l 322 -173 l 315 -191 l 315 -220 l 308 -220 q 279 -147 298 -147 l 275 -144 l 275 -140 l 279 -96 l 217 81 q 210 114 217 107 l 210 140 q 155 267 183 222 l 148 292 l 140 292 q 134 271 140 271 l 126 278 l 111 256 l 104 256 l 90 292 l 90 296 q 126 340 106 326 q 108 398 111 363 q 75 511 99 398 l 54 551 q 39 572 46 551 q 9 623 27 581 l 6 623 l 2 620 l -41 667 q -26 692 -26 673 q -52 740 -52 706 q -26 780 -41 740 l -23 783 l -19 783 l -16 780 l -12 783 l -8 783 l 50 722 q 57 732 57 722 l 42 762 l 42 772 l 50 772 q 86 656 71 731 q 111 602 99 656 q 155 522 121 594 q 188 485 188 504 l 213 431 l 217 427 l 224 427 q 253 463 224 438 q 286 500 253 479 l 293 507 l 300 500 l 308 500 l 308 503 q 290 517 303 517 l 293 532 l 286 554 l 286 569 l 311 594 l 315 594 l 359 562 l 362 562 q 391 602 365 597 l 385 612 l 385 652 l 391 652 q 402 637 393 637 l 428 663 l 428 677 l 425 696 l 428 700 l 431 700 q 446 682 439 683 q 497 754 467 731 q 515 816 515 781 l 519 831 q 526 845 526 831 q 559 874 553 856 q 573 892 573 874 l 610 914 l 613 911 l 617 911 l 635 925 m 595 802 l 595 768 l 602 768 l 602 794 l 595 802 m -8 612 l 2 594 l -8 583 l -12 587 l -16 587 l -12 597 l -16 609 l -12 612 l -8 612 m 235 347 q 257 318 235 338 l 257 314 l 260 314 l 268 332 l 268 354 l 260 361 l 235 347 m 624 78 l 621 74 l 621 63 q 628 38 628 55 l 631 38 l 639 45 l 639 56 l 624 78 z "},"l":{"ha":437,"x_min":-8,"x_max":651,"o":"m 25 1230 l 40 1230 l 51 1221 l 62 1225 q 125 1177 125 1183 l 121 1162 q 147 1105 140 1162 l 147 1065 l 155 1054 q 133 1038 155 1046 l 136 1010 l 136 1002 l 129 989 q 140 954 132 954 l 136 934 q 159 854 159 925 l 162 854 q 147 746 159 790 l 151 742 l 147 722 l 147 702 q 162 686 154 686 l 159 666 l 166 610 l 159 590 q 180 394 166 394 l 184 390 l 184 370 q 218 306 208 370 q 229 266 225 306 q 318 230 261 230 q 340 222 318 222 q 410 258 361 222 l 444 258 q 510 298 481 258 l 540 302 q 644 234 609 302 q 651 202 644 210 q 592 102 626 102 q 529 78 592 85 l 429 22 l 281 22 q 222 46 256 22 l 218 46 l 207 38 l 184 42 l 159 14 l 159 10 l 162 -5 q 151 -22 157 -22 l 147 -22 l 144 18 l 151 26 l 151 35 q 125 94 125 52 q 66 182 77 135 l 62 186 q 29 298 49 256 q 3 414 3 381 l 3 498 l 10 546 l 7 550 l 7 554 l 10 566 l 3 574 l 18 598 l 18 650 l -4 694 q 3 742 -1 742 l -1 754 l 3 846 l -1 978 l -8 985 l -8 989 l 3 1002 l -8 1046 l -8 1078 q 18 1154 -2 1135 l 10 1166 l 18 1177 l 18 1181 l 10 1194 l 10 1213 l 25 1230 z "},"m":{"ha":732,"x_min":-22,"x_max":779,"o":"m 672 1208 l 668 1189 l 668 1177 l 672 1173 l 668 1169 l 668 1153 l 672 1153 l 692 1165 q 715 1149 700 1149 l 720 1153 q 728 1141 720 1141 q 743 1177 733 1177 l 747 1173 l 747 1165 l 740 1153 l 740 1118 q 751 1097 751 1118 l 747 1093 q 767 1066 767 1090 l 771 1066 l 775 1069 l 779 1069 l 779 1066 q 767 1058 779 1058 l 771 1054 l 771 1046 q 760 1038 760 1046 l 760 1026 l 764 1006 l 724 983 l 728 979 l 728 959 q 700 907 707 959 l 704 895 l 684 836 l 688 820 q 652 693 652 715 q 640 618 640 663 l 640 574 q 629 526 640 541 l 629 439 l 637 427 l 637 395 q 652 348 637 359 l 652 336 l 644 304 l 700 186 l 712 174 l 708 170 l 708 165 l 747 94 l 755 79 l 755 51 l 736 31 l 724 31 q 661 98 661 65 q 609 182 620 130 l 612 201 q 585 273 612 227 l 557 340 l 557 348 l 573 380 q 561 435 564 380 q 553 459 553 435 l 565 503 l 561 507 l 561 511 q 573 550 565 541 l 565 594 q 589 661 576 594 l 585 661 q 498 547 538 623 q 438 471 485 547 l 438 404 l 431 395 l 427 399 l 427 479 q 395 498 414 479 l 391 498 q 379 479 391 479 l 375 483 l 375 487 l 382 495 l 375 507 l 379 511 l 379 515 l 363 538 l 371 547 l 371 550 q 331 602 352 550 q 292 642 310 611 q 232 685 261 671 l 220 681 l 212 689 q 200 665 200 685 l 200 657 l 208 646 l 208 610 l 204 594 l 216 574 l 216 538 q 169 423 169 476 q 133 277 169 370 q 97 186 133 263 q 42 47 64 75 q 22 -8 34 7 l 26 -28 l 22 -92 l 22 -136 l 14 -136 q -1 -104 14 -121 l -1 -87 l 14 -60 l 6 -5 l 10 19 q -5 90 -1 44 l 2 98 l -5 122 q 10 197 6 150 l -5 201 l -5 205 q 6 214 -5 214 l 6 217 l -1 229 l 10 273 l 14 277 l 14 332 l 22 332 l 22 257 l 26 229 l 30 229 l 38 253 l 34 265 q 66 340 54 265 l 105 423 l 133 519 l 133 578 l 129 598 q 141 606 141 598 l 141 610 q 113 741 113 659 l 105 741 l 105 721 l 90 697 l 81 705 l 97 725 l 97 729 l 94 753 l 101 768 q 66 880 101 832 q -22 1078 66 932 l -22 1093 l -5 1109 l 10 1109 q 45 1069 18 1108 q 109 998 79 1024 l 113 1010 l 117 1010 l 117 983 l 129 990 l 141 990 l 137 955 l 145 955 l 145 966 l 153 966 l 149 947 l 200 884 q 212 871 200 871 l 315 756 l 379 701 l 382 705 l 382 721 l 379 745 l 382 756 l 391 756 l 391 717 l 399 705 l 399 685 l 438 661 q 482 729 460 675 q 494 745 488 729 q 502 760 502 745 q 565 824 526 760 q 605 911 595 871 l 621 931 l 621 979 q 597 923 597 949 l 593 919 l 585 919 l 585 927 l 605 970 l 605 975 l 597 987 l 601 1010 l 597 1015 l 597 1018 l 601 1018 l 597 1022 l 597 1026 l 601 1038 l 597 1038 l 585 1030 l 581 1030 l 581 1034 l 589 1046 l 577 1078 l 549 1078 l 549 1086 l 565 1093 l 581 1090 l 589 1097 l 589 1101 l 581 1101 l 585 1125 l 605 1121 l 609 1121 l 621 1129 l 625 1125 l 625 1133 q 637 1149 637 1133 q 648 1193 648 1149 q 656 1204 656 1193 l 661 1208 l 672 1208 m 672 1169 l 684 1169 l 676 1161 l 672 1161 l 672 1169 m 684 1149 l 684 1145 l 692 1145 l 692 1157 l 684 1149 m 629 990 l 629 963 q 640 979 640 963 l 637 990 l 629 990 m 22 58 l 18 55 l 18 47 l 26 39 l 30 39 l 30 51 l 22 58 m 6 -87 l 6 -100 l 14 -108 l 14 -87 l 6 -87 z "},"n":{"ha":546,"x_min":1,"x_max":637,"o":"m 409 993 l 413 993 q 446 952 444 972 l 451 943 l 453 911 l 449 905 l 450 886 l 449 877 l 451 875 l 451 848 l 454 809 l 461 741 q 481 688 472 730 l 484 686 l 488 633 q 503 612 488 627 l 508 568 q 526 499 513 564 l 528 488 l 532 481 l 536 432 q 556 381 537 420 q 578 336 563 349 q 593 317 581 325 q 621 246 594 297 l 633 224 l 637 174 q 609 95 616 146 q 597 64 605 92 l 585 52 q 515 79 551 50 q 474 160 513 101 q 453 202 473 178 l 437 237 l 433 253 q 399 287 425 252 l 396 289 l 377 333 q 356 366 369 339 q 340 397 346 366 q 310 443 312 410 q 263 492 294 451 q 231 528 233 502 q 150 633 191 593 q 87 679 107 669 l 83 679 l 77 665 l 79 640 l 85 638 l 87 576 q 115 487 92 524 l 122 399 q 167 249 126 338 l 172 176 q 186 145 180 169 l 194 125 q 203 99 198 126 l 205 97 l 211 24 q 177 -7 194 -6 l 168 -5 l 163 -6 l 156 -11 l 152 -12 q 83 54 85 22 l 81 56 l 50 469 q 36 511 44 473 q 23 531 33 511 l 25 533 l 22 545 l 19 585 q 24 650 18 606 l 18 720 q 3 794 16 755 l 1 865 l 5 869 q 11 875 5 874 q 15 888 10 888 l 60 892 q 115 859 99 884 l 162 810 q 185 771 170 802 l 186 764 q 203 747 198 765 q 209 732 208 747 q 237 692 222 722 q 277 633 256 656 q 286 612 285 628 q 336 556 296 606 q 361 515 346 557 q 397 465 381 493 q 444 411 417 449 q 464 392 448 412 l 467 390 l 467 388 l 473 388 l 473 391 l 467 440 q 452 457 463 440 l 454 465 l 450 496 l 448 511 q 413 589 416 568 l 411 591 l 410 600 l 401 684 l 380 728 l 378 751 l 374 755 l 374 778 l 373 796 l 368 800 l 361 861 l 360 876 l 355 882 l 351 931 q 384 989 349 957 l 409 993 z "},"o":{"ha":617,"x_min":-24,"x_max":639,"o":"m 258 809 l 273 806 l 408 806 q 489 787 429 806 q 567 732 509 787 q 595 667 583 683 l 595 637 q 611 570 611 618 q 628 509 618 570 q 636 504 636 509 l 636 498 l 639 459 l 628 437 l 633 429 l 633 406 q 611 387 633 401 l 600 334 l 608 321 l 608 309 l 589 284 l 589 251 q 561 198 572 211 l 564 187 q 550 143 555 176 q 522 96 543 143 q 475 29 484 58 l 439 9 l 431 12 q 397 -7 431 1 l 397 -12 q 408 -18 408 -12 l 408 -21 q 372 -40 397 -40 l 361 -40 q 319 -21 340 -21 l 303 -21 l 264 -9 q 250 7 250 -1 l 234 7 l 192 35 q 148 87 162 52 q 134 98 135 93 l 136 101 l 136 104 q 73 174 127 104 l 62 182 l 64 184 q 26 290 41 232 l 23 293 l -5 354 q -24 390 -5 366 l -24 401 l -18 406 l -24 418 q -10 490 -10 467 l -10 504 l -2 512 l -5 515 l -5 517 l 14 576 q 26 598 21 581 q 59 659 41 598 l 123 743 q 176 776 137 764 q 258 806 195 795 l 258 809 m 389 646 q 336 598 347 598 l 336 595 l 342 587 l 342 585 l 300 562 q 286 548 300 555 l 234 548 q 203 540 222 540 l 203 543 l 173 537 l 167 551 q 148 526 148 551 q 128 443 138 526 q 123 390 123 443 q 151 287 136 307 q 167 248 161 275 q 178 232 176 248 q 234 179 204 232 q 319 121 276 137 l 331 121 l 378 137 l 387 134 q 403 149 387 139 q 439 190 403 155 l 439 193 l 436 201 l 439 201 l 469 232 l 469 256 l 475 265 l 469 273 l 469 279 q 489 329 489 319 l 486 365 l 494 385 l 494 534 l 489 543 l 492 545 l 492 548 q 486 562 486 548 q 467 604 478 564 l 411 646 l 408 643 l 406 643 l 389 646 z "},"p":{"ha":736,"x_min":-195,"x_max":865,"o":"m 363 1044 l 383 1044 l 395 1036 l 456 1036 l 536 1040 q 796 956 684 1017 q 852 900 846 919 l 852 864 l 865 860 l 861 840 l 861 783 q 833 724 833 741 q 768 663 804 682 q 712 619 734 630 q 660 591 712 600 q 552 547 646 576 q 435 503 543 537 q 375 471 435 486 l 375 446 l 427 370 q 507 218 452 341 q 564 125 537 194 l 580 105 l 580 85 l 572 73 q 612 13 612 30 l 624 -19 l 604 -27 q 568 13 578 13 l 552 9 q 467 134 533 24 q 423 190 467 144 l 395 241 q 343 326 395 286 q 279 414 343 347 q 251 446 274 446 l 235 450 l 211 442 l 199 442 l 191 450 q 130 435 140 444 l 115 435 l 111 438 l 106 435 l 74 435 l 58 450 q 71 479 65 450 l 102 498 l 159 498 l 170 507 l 178 507 l 182 503 l 186 503 l 191 507 q 111 599 191 514 q 74 655 111 632 q -30 768 68 681 l -38 787 q -102 743 -75 779 q -170 699 -117 743 l -178 699 l -195 715 q -134 795 -142 762 l -138 812 l -138 816 q -94 868 -94 859 q -122 924 -110 888 l -122 940 l -106 956 l -50 936 q -38 920 -44 920 l -22 920 q 14 928 -14 928 q 71 984 28 962 l 90 980 l 102 980 l 211 1017 q 355 1036 254 1036 l 363 1044 m 339 968 l 295 968 l 195 932 q 119 888 189 920 q 98 864 119 871 q 58 840 98 850 l 58 827 q 130 735 70 804 q 195 639 130 713 q 263 551 212 603 q 283 519 273 519 l 399 559 q 588 643 536 643 l 612 643 l 732 724 q 768 795 764 772 l 768 800 q 756 852 762 806 q 568 960 706 914 q 519 972 568 970 l 467 972 l 435 964 l 427 964 l 367 976 l 351 976 l 339 968 z "},"q":{"ha":705,"x_min":-35,"x_max":829,"o":"m 404 1067 l 412 1067 l 412 1052 l 416 1037 l 412 1022 l 419 1011 l 419 962 l 427 962 l 427 989 l 434 989 l 434 970 l 441 962 l 453 962 l 464 970 l 468 970 q 576 895 576 928 q 587 854 585 895 l 591 854 q 677 947 619 947 l 684 947 q 710 910 700 940 l 710 899 q 643 747 677 849 q 580 575 602 663 q 550 463 570 559 l 524 340 l 524 321 l 647 269 l 654 269 l 665 311 l 662 314 l 665 340 l 673 340 l 673 303 l 665 292 l 677 281 l 680 281 q 736 333 680 296 l 740 333 l 744 329 l 747 333 l 751 333 q 785 307 765 333 l 785 292 q 722 236 769 267 l 725 195 l 718 195 l 718 187 l 725 187 q 770 210 726 199 l 811 210 q 829 184 817 210 l 829 169 l 822 154 l 826 128 q 774 98 807 112 l 740 102 l 718 64 l 718 35 l 710 35 l 710 91 l 699 102 q 665 87 677 87 l 669 76 l 665 57 l 665 27 l 658 27 l 658 76 l 650 83 q 490 -36 566 36 l 468 -99 q 401 -125 452 -119 q 360 -92 399 -117 q 345 -66 360 -75 l 341 -47 l 345 -32 l 341 -17 q 404 165 341 77 q 412 191 404 182 l 412 224 l 404 236 l 404 247 l 412 247 q 431 224 412 235 l 434 224 l 431 243 l 431 247 l 434 266 l 419 269 l 408 266 l 408 269 l 412 281 l 408 281 q 397 296 397 281 l 390 296 l 390 214 l 382 214 l 382 266 l 375 277 l 382 288 l 378 307 q 330 281 330 307 l 330 277 l 323 277 l 323 288 l 315 288 l 311 277 l 308 281 l 304 281 q 271 251 295 281 l 271 232 l 278 221 l 278 169 l 271 169 l 271 202 l 256 254 l 252 251 l 233 251 q 203 269 203 263 l 203 292 l 274 333 q 334 385 303 349 l 368 389 l 382 389 q 464 359 424 359 l 468 355 l 471 359 l 471 389 q 505 526 471 473 l 505 530 l 501 530 q 460 500 501 524 q 378 467 460 494 q 189 452 378 452 l 174 448 q 32 504 32 474 q -35 605 -5 504 l -35 642 q -24 690 -33 683 l -28 694 l -28 702 q -13 713 -28 711 l -20 724 l -16 735 l -20 735 l -28 743 l -20 754 l -24 772 l -20 776 l -16 776 l -13 772 l -13 732 l -5 732 q 222 937 73 877 q 281 974 254 974 l 286 970 l 293 1000 l 300 1000 l 300 981 l 311 962 l 323 970 l 349 962 l 356 970 l 368 962 q 404 985 404 974 l 404 1015 l 397 1026 l 397 1044 l 404 1067 m 382 1000 l 390 1000 l 390 989 l 382 989 l 382 1000 m 300 825 l 300 791 l 293 780 l 296 769 l 293 769 l 274 772 l 263 769 l 263 776 q 286 798 278 776 l 286 810 l 278 821 l 278 847 l 286 847 l 286 854 l 278 854 l 278 847 l 252 847 q 147 787 237 832 q 84 709 94 737 l 47 668 l 54 638 l 50 638 q 77 605 50 614 q 140 560 77 570 l 199 538 l 259 538 l 271 549 l 271 586 l 286 627 l 286 653 l 293 653 l 296 635 l 293 612 l 293 608 l 300 597 l 286 575 l 286 564 l 293 549 l 319 549 q 427 597 427 581 l 427 638 l 434 650 l 434 665 l 412 690 l 412 702 q 468 758 422 725 l 486 806 l 486 843 l 475 854 l 471 854 l 471 836 l 464 836 q 453 862 464 862 l 441 862 l 441 843 l 434 832 l 434 806 l 427 806 l 427 847 l 434 858 l 434 862 l 404 862 l 404 828 l 393 783 l 390 780 l 390 758 l 382 758 l 382 802 l 390 813 l 390 869 l 386 869 l 349 858 l 345 854 l 338 854 l 319 869 q 304 828 309 869 l 300 825 m 281 743 l 286 743 l 293 735 l 293 720 l 286 720 l 281 743 m 449 661 l 446 665 l 441 646 l 441 597 l 494 642 l 501 657 l 490 668 l 475 668 l 449 661 m 308 269 l 315 269 l 315 262 l 308 254 l 304 258 l 308 269 m 509 266 q 498 254 509 254 l 498 169 l 468 72 l 449 35 l 449 24 l 453 24 q 580 113 476 50 q 632 151 581 129 l 632 158 l 635 158 l 647 154 l 658 176 q 650 202 650 185 l 647 199 l 643 199 q 513 266 575 245 l 509 266 m 658 191 l 658 187 l 665 165 l 677 165 q 710 184 679 184 l 710 206 l 714 224 l 710 229 l 707 229 l 658 191 m 419 210 l 419 187 l 427 187 l 427 210 l 419 210 z "},"r":{"ha":916,"x_min":-35,"x_max":1048,"o":"m 443 886 l 507 886 q 647 823 554 886 q 700 781 664 802 q 752 661 752 733 l 752 658 l 745 605 l 749 581 q 647 433 683 450 q 633 380 636 416 l 629 376 l 629 363 l 636 355 l 654 355 l 665 363 l 713 363 l 728 373 l 833 373 l 833 376 l 830 401 l 833 401 l 840 394 l 840 373 q 861 363 852 373 l 861 373 l 854 373 l 854 376 l 861 384 q 851 422 851 404 l 858 422 q 869 401 861 401 l 872 401 l 872 436 l 879 436 l 897 418 q 918 429 918 422 l 914 440 l 911 440 l 907 436 l 903 436 l 893 450 l 893 454 l 900 475 l 903 475 q 911 465 911 475 l 914 465 q 921 479 914 479 l 921 468 l 928 468 q 939 503 928 484 l 946 503 l 946 492 l 925 444 l 925 440 l 928 440 q 946 458 928 452 l 946 454 l 932 436 l 935 418 l 942 418 l 942 444 l 953 444 l 960 412 l 953 405 l 953 397 q 985 433 985 421 l 991 433 l 991 422 q 977 415 991 415 q 932 376 977 395 l 928 366 l 942 359 q 953 380 942 380 l 956 380 l 949 370 l 956 370 q 967 380 956 380 q 985 408 977 408 l 985 405 l 981 384 l 985 380 l 991 380 l 995 384 l 998 384 q 1037 352 1024 352 l 1048 338 l 1044 334 l 1041 334 l 977 370 l 977 373 l 964 370 l 964 366 q 985 355 964 359 l 981 331 l 977 331 l 977 338 l 974 338 l 974 331 l 977 320 q 970 331 970 320 l 967 331 l 967 328 l 970 323 l 970 320 l 967 310 l 974 310 q 981 320 974 320 l 985 317 l 981 313 l 981 307 l 985 307 q 998 328 985 320 l 1002 323 l 1002 302 q 974 257 981 281 l 967 250 l 964 250 q 1009 194 966 234 l 1009 190 l 1013 190 l 1023 197 l 1027 197 l 1020 183 q 991 197 1007 183 l 988 194 q 960 215 983 205 l 960 208 l 974 173 l 977 176 l 981 176 l 988 165 l 988 159 l 985 159 q 964 190 964 172 l 960 190 l 946 169 l 946 165 l 956 173 l 964 173 l 964 151 l 960 151 l 946 162 l 942 159 l 939 159 l 935 162 l 935 148 l 928 148 l 925 162 l 918 162 l 918 155 q 911 169 911 155 l 907 169 q 882 120 901 169 q 795 -10 871 119 q 739 -105 769 -66 l 731 -105 q 707 -56 707 -83 q 766 78 728 -35 q 816 212 796 117 l 816 222 q 742 254 784 254 l 665 254 l 640 250 l 636 254 l 629 243 l 636 233 l 629 212 l 623 212 l 623 229 l 626 233 l 623 246 q 446 180 551 229 q 436 173 446 173 l 436 169 q 513 56 445 140 q 555 14 513 47 l 562 -10 l 562 -38 q 545 -70 555 -70 l 538 -70 q 485 -41 485 -70 q 380 85 446 14 q 292 141 340 141 l 281 141 q 232 127 248 141 l 229 130 l 225 130 q 182 102 225 123 l 172 50 l 165 50 l 165 92 l 161 88 l 155 88 l 155 99 l 151 99 q 144 88 144 99 l 137 88 l 137 106 q 127 130 127 119 l 127 148 q 225 201 127 182 l 235 212 l 239 212 l 243 208 l 246 208 l 253 218 q 208 275 253 241 q 130 373 180 318 q 109 444 109 424 q 63 542 66 509 l 56 542 l 56 489 q 45 510 45 492 l 45 559 l 39 566 l 42 584 l 42 587 l 35 587 q 18 535 35 571 l 18 517 l 24 507 l 24 503 l 21 503 q 10 524 10 507 l 10 549 l 14 552 q 7 587 7 562 q -35 619 -10 587 l -31 644 l -31 669 q 71 756 7 728 q 190 830 138 821 l 208 844 l 222 841 q 299 865 222 850 q 443 886 318 886 m 182 732 l 186 598 l 193 577 l 193 496 l 186 486 q 200 426 193 477 q 250 338 247 363 q 295 292 257 338 q 313 264 302 292 l 327 264 q 372 289 340 277 q 446 349 390 310 q 591 486 557 422 q 644 595 644 565 q 623 693 644 693 q 608 732 608 717 q 576 764 576 756 l 573 760 l 562 760 l 559 764 l 531 781 l 524 781 l 510 777 l 478 785 l 475 781 l 471 781 l 439 788 q 182 732 349 788 m 140 682 l 140 605 l 169 528 l 176 528 l 176 531 q 169 549 176 549 l 172 574 l 172 682 l 169 696 l 176 718 l 165 725 l 140 682 m 182 524 l 182 517 l 179 517 l 182 507 l 186 507 l 186 524 l 182 524 m 897 517 l 900 513 l 900 507 l 893 500 l 890 503 l 890 510 l 897 517 m 890 489 l 893 489 l 900 482 l 890 471 l 882 479 l 882 482 l 890 489 m 988 471 l 991 468 l 988 458 l 981 458 l 981 465 l 988 471 m 53 450 l 60 444 l 60 440 l 53 440 l 53 450 m 865 447 l 869 444 l 869 436 l 858 436 l 858 440 l 865 447 m 907 418 l 903 408 l 903 405 l 907 405 l 911 415 l 911 418 l 907 418 m 911 387 l 918 387 l 925 401 l 925 415 q 911 387 918 415 m 932 412 l 932 408 q 946 394 935 397 l 946 412 l 932 412 m 608 401 q 566 352 608 386 l 566 349 l 570 345 l 594 345 q 601 355 594 355 l 618 355 l 618 359 l 612 401 l 608 401 m 623 397 l 623 384 l 629 384 l 629 397 l 623 397 m 953 341 l 956 338 l 960 338 q 970 355 968 338 l 953 341 m 995 264 l 998 260 l 998 257 l 995 254 l 991 254 l 988 257 l 988 260 l 991 264 l 995 264 m 1006 250 l 1009 250 l 1009 233 l 995 218 l 991 222 l 991 233 l 1006 250 m 925 208 l 918 201 q 939 190 918 190 l 939 176 l 953 186 l 953 190 q 928 208 928 190 l 925 208 m 949 208 l 946 194 l 956 194 l 956 208 l 949 208 m 903 180 l 903 173 l 907 173 l 914 180 l 903 180 z "},"s":{"ha":668,"x_min":-39,"x_max":777,"o":"m 221 1138 l 229 1138 l 236 1124 l 229 1113 l 229 1087 l 221 1059 q 257 1004 221 1004 q 445 925 416 970 l 532 857 l 535 809 q 499 762 519 762 q 431 831 431 774 q 275 907 412 865 l 243 903 l 239 907 l 236 892 l 225 892 l 225 903 l 218 903 l 218 896 l 229 882 l 229 878 l 221 867 l 225 835 l 218 827 l 221 824 l 221 798 l 214 787 l 214 777 q 225 737 222 769 l 221 694 l 225 690 l 221 686 l 218 686 l 225 665 l 225 614 l 221 611 l 221 607 q 279 553 240 573 l 373 520 q 513 481 431 520 q 618 434 583 463 l 687 387 q 774 271 739 358 l 777 242 l 777 214 q 701 127 777 144 q 629 83 665 113 q 488 58 568 58 q 297 33 488 49 q 279 26 297 26 l 257 29 l 221 7 q 210 -28 210 -1 l 207 -32 l 203 -43 l 207 -46 l 207 -50 q 185 -61 203 -61 q 142 -7 174 -20 l 131 -3 l 131 1 l 135 4 l 135 7 q 84 65 127 7 l 55 102 l 52 98 l 48 98 q 5 127 24 102 l 5 141 q 30 195 22 195 q 66 235 47 195 l 66 239 l 62 242 l 62 246 q 81 271 81 246 l 145 318 l 149 315 l 199 329 l 199 326 l 210 329 l 210 332 l 207 351 l 214 358 l 214 380 l 199 423 l 203 427 l 207 427 l 210 423 l 210 427 q 120 470 199 456 q 30 553 43 516 q 5 578 20 553 l 8 582 l 8 585 q -39 719 -39 670 q -6 878 -39 838 q 160 1004 50 973 q 218 1026 203 1013 l 214 1048 l 221 1138 m 182 896 q 131 831 131 857 l 131 658 q 182 607 131 631 l 189 607 l 193 611 l 196 611 l 196 600 l 199 600 l 214 621 l 199 658 l 203 686 l 196 719 l 207 745 l 207 759 q 196 784 196 772 l 199 831 l 196 860 l 207 871 l 193 892 l 182 896 m 229 441 l 225 437 l 225 434 q 236 401 225 417 l 236 358 q 221 296 227 350 l 214 290 l 214 279 l 225 264 q 210 217 214 250 q 257 156 218 156 q 315 138 292 152 l 319 138 l 333 141 l 344 138 q 460 163 387 163 q 535 195 468 174 q 604 246 604 216 l 600 264 l 604 282 q 510 351 595 316 l 499 347 q 373 408 494 360 q 229 441 316 441 z "},"t":{"ha":485,"x_min":-164,"x_max":673,"o":"m 592 842 l 614 839 l 658 839 q 673 814 663 839 l 673 783 l 667 774 l 667 764 l 673 755 l 673 718 q 611 667 660 692 l 583 667 l 574 661 l 549 677 l 517 670 q 486 683 517 677 l 483 683 q 436 661 477 675 l 376 630 q 342 602 376 608 l 323 589 l 323 586 q 361 492 353 536 l 361 477 q 374 454 374 477 l 376 430 l 382 423 l 382 420 l 367 398 l 367 395 q 389 320 389 370 l 389 192 q 411 145 402 174 l 411 111 l 408 108 l 411 104 l 392 45 l 392 5 l 405 -11 l 405 -61 q 374 -117 385 -81 q 349 -161 349 -129 q 333 -183 340 -183 q 298 -149 307 -183 q 252 -67 279 -136 q 223 -45 232 -45 q 189 -23 192 -33 q 227 7 206 7 l 236 7 l 252 5 l 264 17 q 252 61 252 26 l 236 77 l 236 85 q 245 136 242 90 q 252 155 252 136 l 245 174 l 245 192 l 252 201 l 236 236 l 239 239 l 239 242 l 236 254 l 239 258 l 239 261 l 227 283 l 227 302 q 214 320 214 302 l 217 323 l 217 326 l 208 336 l 220 351 l 214 380 q 230 401 223 382 l 227 420 l 230 423 q 192 461 214 423 l 176 489 l 176 498 l 183 511 l 180 549 l 164 555 l 161 551 l 158 551 l 136 561 l 120 561 l 111 555 l 102 555 q 79 564 90 564 l 45 564 l -70 542 q -98 530 -74 530 l -139 530 l -155 558 l -155 570 l -148 580 l -148 586 l -164 611 l -164 633 q -83 686 -164 669 l -83 683 l -79 686 l 77 686 q 130 720 81 694 q 170 749 130 734 l 223 808 l 245 792 l 248 795 l 252 795 l 277 780 l 279 783 q 349 742 303 783 q 370 718 349 728 l 405 718 q 508 777 508 755 q 574 830 557 830 q 592 842 587 830 z "},"u":{"ha":631,"x_min":-35,"x_max":654,"o":"m 479 979 q 501 969 501 975 l 495 969 l 495 966 l 498 966 l 511 969 l 517 956 l 520 960 l 524 960 l 533 937 l 524 937 l 524 940 l 527 943 l 527 947 l 524 947 l 517 940 l 530 928 l 536 934 l 540 934 l 540 908 l 533 899 l 533 889 l 540 883 l 536 867 q 546 838 536 852 l 543 803 q 559 765 551 793 q 572 720 565 765 l 584 694 l 584 666 q 597 618 594 657 q 616 557 611 618 l 613 545 l 613 522 l 623 490 l 626 487 l 623 484 l 623 480 q 632 433 630 480 l 635 429 l 632 404 l 654 356 l 654 327 l 648 317 l 648 289 l 635 248 l 638 203 l 629 186 l 629 151 l 591 78 q 562 24 583 78 q 507 -20 543 3 q 447 -59 504 -35 l 408 -85 l 393 -85 q 307 -52 370 -71 l 245 -11 l 223 11 l 220 11 l 220 -14 l 217 -14 q 208 24 210 -14 l 182 40 q 176 18 182 25 l 176 14 l 178 1 l 176 -11 l 176 -20 l 178 -24 l 178 -27 l 176 -30 l 172 -30 l 166 -24 l 172 37 q 157 87 157 52 q 144 100 144 91 l 137 100 l 134 81 l 131 81 l 121 91 l 127 100 q 109 164 116 100 q 54 250 94 208 q 16 391 16 351 q 3 433 7 391 q -22 532 -22 459 q -35 589 -35 569 l -35 621 l -32 633 l -35 646 l -35 650 q 32 899 -12 823 q 73 928 33 908 l 73 930 q 146 896 103 930 l 163 870 l 163 857 q 105 710 131 798 l 109 691 l 105 688 l 102 688 l 105 672 l 102 624 q 112 602 112 612 l 112 589 l 109 586 l 112 583 l 112 525 q 169 404 142 434 q 198 330 191 370 l 201 311 l 211 302 l 211 292 l 208 292 l 204 295 l 201 295 q 189 257 201 269 l 189 254 l 230 209 q 284 119 236 175 q 294 107 294 119 q 357 59 335 59 q 485 110 454 59 q 520 218 520 164 q 549 315 549 258 l 552 324 q 520 452 552 357 l 517 484 l 517 493 l 520 532 l 517 570 l 517 573 l 505 592 l 507 595 l 507 599 q 473 698 498 646 q 441 803 473 717 l 444 803 l 434 829 l 437 831 l 434 835 l 431 835 l 428 831 l 428 812 l 421 812 q 415 829 421 829 q 402 819 402 824 l 402 787 l 396 787 l 396 790 l 393 848 l 387 848 l 387 851 l 393 861 l 393 867 l 389 867 l 389 857 q 383 876 383 857 l 380 873 l 376 873 l 374 883 l 376 886 l 380 886 l 387 880 l 389 880 l 389 883 l 380 899 l 380 911 q 387 902 387 911 l 389 899 l 393 899 l 399 908 q 380 921 385 908 l 383 924 l 389 924 l 389 918 l 393 918 l 399 924 l 396 928 l 396 930 l 408 934 l 406 937 l 406 940 l 408 943 l 408 947 l 402 947 l 402 956 l 406 956 q 412 947 412 956 l 418 947 l 421 960 l 415 960 l 415 966 l 428 969 l 431 966 l 434 969 l 437 960 q 444 972 444 960 l 460 969 l 466 975 l 475 969 l 479 979 m 485 956 l 501 950 l 501 953 l 492 962 l 485 956 m 412 937 l 428 937 l 421 943 l 418 943 l 412 937 m 520 924 l 514 918 l 514 915 l 517 915 l 527 918 l 527 924 l 520 924 m 402 905 l 402 899 l 408 892 l 412 892 l 412 896 l 408 905 l 402 905 m 520 889 l 520 880 l 527 886 l 527 889 l 520 889 m 415 863 l 412 861 l 412 857 l 421 851 l 428 851 l 428 854 q 415 863 428 859 m 127 362 l 127 353 q 150 311 140 343 q 163 286 155 311 q 182 260 177 260 l 191 270 l 191 279 q 185 295 191 295 l 189 311 l 189 317 q 169 359 169 317 q 163 375 163 359 l 146 378 q 127 362 134 374 m 217 -24 l 220 -24 l 227 -30 l 227 -56 l 220 -62 l 217 -62 l 217 -24 z "},"v":{"ha":665,"x_min":-59,"x_max":705,"o":"m -9 918 q 52 871 46 884 l 48 860 q 64 848 64 854 l 64 795 l 60 776 l 75 760 l 75 756 l 71 753 l 71 749 q 114 691 114 722 q 121 668 121 691 q 186 595 144 668 q 225 530 203 595 q 371 296 325 406 q 444 177 435 223 q 505 77 478 141 q 513 54 513 77 q 524 28 524 54 q 540 -3 534 28 l 543 -3 q 563 47 549 -3 l 563 104 l 551 162 l 551 174 l 563 231 l 563 308 l 555 319 l 555 365 l 547 380 l 551 385 l 551 388 q 513 553 524 530 l 513 580 q 490 776 490 670 l 490 845 q 543 890 503 863 l 578 890 q 643 822 627 857 l 643 768 l 635 737 q 643 688 643 720 l 643 630 q 654 603 643 617 l 654 488 l 697 396 l 705 376 l 705 81 l 693 35 l 697 20 q 654 -183 686 0 l 659 -202 l 616 -260 l 601 -268 l 578 -268 q 536 -222 536 -241 q 501 -168 536 -205 q 432 16 467 -34 q 309 196 387 93 q 290 212 309 212 l 263 246 q 210 304 263 260 l 129 434 q 75 572 111 522 q 37 642 55 627 q -9 730 37 665 q -43 837 -33 831 q -59 871 -45 858 l -55 887 l -59 890 q -9 918 -35 913 z "},"w":{"ha":688,"x_min":-25,"x_max":725,"o":"m 650 832 l 669 832 q 706 794 706 825 l 722 798 l 725 794 l 725 788 q 687 735 707 788 l 678 732 l 681 728 l 681 722 q 653 669 653 692 q 640 635 645 669 q 609 543 631 623 q 568 425 595 543 q 578 418 578 425 l 562 402 l 565 393 l 552 387 l 552 365 q 527 292 538 347 l 530 280 q 518 261 518 277 l 518 201 q 493 126 506 191 l 496 117 q 477 41 482 117 l 471 35 l 471 -21 q 449 -125 465 -31 l 449 -206 q 399 -244 419 -244 l 392 -244 q 336 -187 336 -227 l 317 -162 l 320 -159 q 292 -40 292 -78 l 273 32 q 245 201 258 185 l 241 201 q 229 155 237 201 l 223 132 l 226 113 l 226 92 l 210 38 q 201 26 201 38 l 173 7 q 85 60 111 7 l 85 189 q 66 280 85 218 q 19 383 66 311 q -12 450 2 393 q -25 500 -25 475 q 6 593 -25 576 q 56 616 38 616 l 75 616 q 122 575 122 612 l 122 547 l 116 481 q 166 296 135 366 l 166 277 l 176 277 l 182 283 l 179 296 l 182 296 l 179 298 l 179 302 q 204 365 179 314 l 204 387 q 239 440 204 397 l 273 496 q 292 515 273 506 l 295 515 l 298 512 l 314 522 l 317 522 q 367 468 367 506 q 355 421 362 429 l 355 368 q 349 327 355 341 q 355 242 355 296 l 351 239 l 351 236 q 367 223 366 230 l 364 220 l 367 217 l 364 201 q 374 195 364 195 l 376 192 l 376 151 l 389 151 l 389 167 q 414 182 389 172 l 411 198 l 411 208 l 424 223 l 424 315 q 436 393 436 335 l 436 412 q 449 446 449 432 l 446 456 l 452 462 l 452 477 q 477 568 452 519 q 518 653 477 580 l 530 682 l 527 685 l 527 691 q 546 747 536 698 q 621 810 579 788 q 650 832 622 815 z "},"x":{"ha":834,"x_min":-16,"x_max":951,"o":"m 315 878 l 322 876 q 333 854 319 863 q 412 738 393 809 q 461 618 435 646 q 478 562 474 598 q 548 434 483 537 q 586 471 553 433 q 684 528 660 520 q 772 571 686 539 q 842 628 827 601 l 867 638 l 880 635 l 882 631 l 885 631 q 896 635 886 637 l 899 637 l 900 641 q 951 590 929 634 l 951 576 l 950 570 q 832 485 939 524 q 720 425 751 427 q 592 326 616 366 l 646 201 l 721 7 q 746 -58 743 -15 l 799 -172 l 799 -188 q 753 -230 790 -225 l 750 -229 q 637 -105 684 -214 l 640 -102 q 597 41 642 -94 q 551 141 600 54 q 515 218 523 162 l 513 222 l 496 235 l 496 232 l 492 230 l 480 235 q 421 222 440 235 q 327 184 350 217 l 265 130 q 153 56 260 109 q 71 9 115 16 l 63 4 l 44 8 q -16 94 1 18 q 39 132 -7 129 q 98 174 56 159 q 277 281 104 183 l 372 352 l 409 373 q 438 399 415 385 l 439 406 l 404 467 l 365 541 q 321 637 372 575 q 285 697 324 654 l 282 701 q 275 729 277 702 q 258 753 268 730 q 250 745 252 754 q 258 710 245 725 l 250 705 q 242 740 243 707 l 238 737 l 232 739 q 224 766 234 747 l 215 766 l 216 769 l 221 781 l 224 793 l 215 795 l 227 819 l 226 829 q 269 859 258 861 q 310 866 286 868 l 315 878 z "},"y":{"ha":735,"x_min":-56,"x_max":884,"o":"m 203 1005 l 211 1005 q 196 975 211 993 l 196 971 l 207 952 l 199 930 l 203 915 l 196 907 l 196 903 q 214 817 214 873 q 173 696 195 696 l 170 659 l 173 621 l 173 602 l 181 591 l 181 549 l 173 538 l 177 534 l 173 516 l 173 486 l 192 418 q 211 403 202 403 q 298 441 298 420 l 313 463 q 331 486 322 463 q 350 524 350 495 q 414 633 377 536 l 414 685 q 425 787 414 739 l 425 809 q 478 866 463 866 l 519 873 q 549 791 549 845 l 549 719 l 523 595 l 523 546 q 557 395 523 488 q 666 282 599 318 q 854 203 814 203 l 858 199 q 884 181 884 187 l 884 165 q 805 113 861 124 q 632 34 739 96 q 527 -15 617 34 q 391 -86 506 -15 l 170 -188 q 147 -195 170 -195 l 147 -229 l 139 -241 l 143 -256 l 139 -259 l 139 -263 l 143 -275 l 132 -275 l 132 -256 l 136 -210 l 132 -207 l 128 -207 l 121 -214 l 113 -214 l 94 -199 l 45 -199 l 23 -222 l 31 -263 l 26 -263 q 15 -233 19 -263 q -22 -184 7 -233 q -56 -169 -48 -184 l -56 -127 q 4 -45 -56 -109 q 94 215 94 159 q 147 241 114 241 l 162 237 q 170 252 162 252 q 117 301 170 292 q 49 384 75 334 l 41 384 l 41 388 l 45 391 l 41 403 l 45 414 l 31 441 l 31 444 l 34 448 l -3 572 l -3 583 l 0 587 l 0 591 l -7 591 q 12 696 0 673 l 7 700 l 7 704 q 90 869 25 761 q 102 900 98 869 q 151 956 115 924 l 151 983 l 155 983 l 165 975 q 203 1005 203 991 m 121 760 l 98 719 l 102 708 q 79 655 97 707 l 79 587 l 98 527 q 143 459 104 527 q 155 441 155 459 l 162 441 l 170 448 l 170 471 l 162 482 l 162 512 l 170 534 l 162 542 l 162 561 l 170 572 l 170 576 l 162 587 l 162 704 q 121 760 136 760 m 279 301 l 214 301 q 173 267 180 286 l 181 256 l 181 248 l 173 237 q 207 155 184 236 q 181 109 195 109 l 177 90 l 181 75 l 173 64 l 181 56 l 181 53 l 165 31 l 165 26 l 173 15 l 173 -11 l 177 -30 l 165 -30 q 155 15 162 7 l 155 34 q 165 60 165 47 l 162 64 l 151 64 q 139 26 139 64 q 113 -60 113 1 l 132 -79 l 151 -79 q 256 -37 197 -49 q 444 56 363 5 q 546 98 489 83 l 651 155 l 663 170 l 538 264 q 440 380 460 339 l 406 425 q 279 301 378 375 z "},"z":{"ha":987,"x_min":-15,"x_max":1085,"o":"m 663 960 l 675 960 l 734 956 l 770 960 q 833 921 777 948 q 864 901 844 901 l 904 846 l 904 842 q 833 787 882 814 q 762 740 827 774 q 730 700 748 713 l 726 704 l 722 704 q 679 677 711 688 q 659 656 679 667 l 596 593 q 529 495 551 495 q 470 444 519 466 q 442 408 459 408 q 427 397 442 397 l 391 357 q 253 216 253 231 l 292 192 l 316 192 l 355 195 l 359 192 l 359 188 l 391 195 l 403 192 q 446 208 403 197 l 454 216 l 462 216 q 592 176 567 176 l 608 188 l 628 188 q 635 176 635 188 l 691 176 q 821 153 755 176 q 920 125 876 144 q 931 149 931 135 q 951 172 951 159 l 959 172 l 959 164 q 987 195 975 171 l 994 195 l 994 267 l 1002 267 l 1002 199 q 1061 223 1022 223 l 1077 199 l 1077 109 l 1085 97 l 1085 10 l 1077 -21 l 1077 -56 l 1061 -72 q 975 -25 1025 -72 l 967 -48 l 967 -76 l 959 -76 l 959 -33 l 955 -37 l 947 -37 q 920 -5 947 -5 l 888 -5 q 766 38 821 38 l 742 46 l 722 46 l 576 58 l 525 58 l 482 66 l 454 66 q 435 50 435 58 l 422 50 q 313 22 385 34 l 292 26 l 281 22 l 226 26 q 182 6 182 16 l 163 10 l 159 10 l 127 3 l 100 3 l 87 10 l 80 3 l 80 -25 l 83 -41 l 80 -45 l 83 -64 l 83 -80 l 76 -88 l 72 -84 l 76 -64 l 76 -60 l 68 -48 l 68 42 q 48 109 48 74 l 48 129 l 56 140 l 48 184 l 48 216 l 40 227 l 40 262 l 48 275 l 48 318 l 40 330 l 40 408 l 48 408 l 48 444 l 40 444 l 40 408 l 33 416 l 33 479 l -15 590 l -15 614 q 48 684 -15 642 l 56 684 l 60 680 l 64 680 l 68 684 l 68 743 l 76 771 l 83 771 l 80 724 l 83 708 l 80 692 l 80 673 l 87 665 q 96 696 96 677 l 103 696 l 103 692 l 107 649 q 222 743 185 737 q 285 763 233 753 q 407 823 322 792 l 411 846 l 418 846 l 418 834 l 478 858 q 608 937 499 858 l 663 960 m 596 747 q 585 740 596 740 l 529 743 q 482 728 496 742 l 478 732 l 474 732 l 470 728 l 470 724 l 478 712 l 474 708 l 474 704 l 478 680 l 478 669 l 466 669 l 470 688 l 462 696 l 462 720 l 454 720 q 407 653 407 696 l 403 653 l 399 656 l 395 656 l 387 649 l 383 649 l 387 669 q 376 677 387 677 q 241 597 269 601 q 174 547 232 583 q 131 499 170 530 l 107 444 l 107 432 l 111 412 l 96 393 l 96 314 l 87 306 l 80 314 l 80 373 l 83 377 l 80 381 l 80 393 l 83 397 l 76 416 l 68 416 l 60 393 l 60 321 l 68 290 l 68 184 l 60 172 l 60 168 l 68 168 q 123 247 72 198 q 250 369 174 286 q 289 405 257 369 q 304 425 304 405 l 363 484 q 427 547 427 516 q 509 629 466 629 q 572 696 523 652 q 620 740 572 724 l 620 743 l 596 747 m 48 491 l 44 475 l 48 471 l 52 471 l 52 479 l 56 479 l 52 491 l 48 491 m 60 488 l 68 444 l 72 444 l 76 484 l 72 488 l 60 488 m 96 479 l 96 452 l 103 460 l 103 479 l 96 479 m 52 258 l 52 243 l 60 243 l 60 258 l 52 258 z "},"{":{"ha":464,"x_min":0,"x_max":0,"o":""},"|":{"ha":361,"x_min":0,"x_max":0,"o":""},"}":{"ha":464,"x_min":0,"x_max":0,"o":""},"~":{"ha":811,"x_min":0,"x_max":0,"o":""},"¡":{"ha":463,"x_min":0,"x_max":0,"o":""},"¢":{"ha":772,"x_min":0,"x_max":0,"o":""},"£":{"ha":772,"x_min":0,"x_max":0,"o":""},"¤":{"ha":772,"x_min":0,"x_max":0,"o":""},"¥":{"ha":772,"x_min":0,"x_max":0,"o":""},"¦":{"ha":361,"x_min":0,"x_max":0,"o":""},"§":{"ha":772,"x_min":0,"x_max":0,"o":""},"¨":{"ha":463,"x_min":0,"x_max":0,"o":""},"©":{"ha":1023,"x_min":0,"x_max":0,"o":""},"ª":{"ha":514,"x_min":0,"x_max":0,"o":""},"«":{"ha":772,"x_min":0,"x_max":0,"o":""},"¬":{"ha":811,"x_min":0,"x_max":0,"o":""},"®":{"ha":1023,"x_min":0,"x_max":0,"o":""},"¯":{"ha":767,"x_min":0,"x_max":0,"o":""},"°":{"ha":555,"x_min":0,"x_max":0,"o":""},"±":{"ha":762,"x_min":0,"x_max":0,"o":""},"²":{"ha":463,"x_min":0,"x_max":0,"o":""},"³":{"ha":463,"x_min":0,"x_max":0,"o":""},"´":{"ha":463,"x_min":0,"x_max":0,"o":""},"µ":{"ha":800,"x_min":0,"x_max":0,"o":""},"¶":{"ha":746,"x_min":0,"x_max":0,"o":""},"·":{"ha":386,"x_min":0,"x_max":0,"o":""},"∙":{"ha":386,"x_min":0,"x_max":0,"o":""},"¸":{"ha":463,"x_min":0,"x_max":0,"o":""},"¹":{"ha":463,"x_min":0,"x_max":0,"o":""},"º":{"ha":507,"x_min":0,"x_max":0,"o":""},"»":{"ha":772,"x_min":0,"x_max":0,"o":""},"¼":{"ha":1158,"x_min":0,"x_max":0,"o":""},"½":{"ha":1158,"x_min":0,"x_max":0,"o":""},"¾":{"ha":1158,"x_min":0,"x_max":0,"o":""},"¿":{"ha":848,"x_min":0,"x_max":0,"o":""},"À":{"ha":926,"x_min":0,"x_max":0,"o":""},"Á":{"ha":926,"x_min":0,"x_max":0,"o":""},"Â":{"ha":926,"x_min":0,"x_max":0,"o":""},"Ã":{"ha":926,"x_min":0,"x_max":0,"o":""},"Ä":{"ha":926,"x_min":0,"x_max":0,"o":""},"Å":{"ha":926,"x_min":0,"x_max":0,"o":""},"Æ":{"ha":1389,"x_min":0,"x_max":0,"o":""},"Ç":{"ha":1003,"x_min":0,"x_max":0,"o":""},"È":{"ha":926,"x_min":0,"x_max":0,"o":""},"É":{"ha":926,"x_min":0,"x_max":0,"o":""},"Ê":{"ha":926,"x_min":0,"x_max":0,"o":""},"Ë":{"ha":926,"x_min":0,"x_max":0,"o":""},"Ì":{"ha":386,"x_min":0,"x_max":0,"o":""},"Í":{"ha":386,"x_min":0,"x_max":0,"o":""},"Î":{"ha":386,"x_min":0,"x_max":0,"o":""},"Ï":{"ha":386,"x_min":0,"x_max":0,"o":""},"Ð":{"ha":1003,"x_min":0,"x_max":0,"o":""},"Ñ":{"ha":1003,"x_min":0,"x_max":0,"o":""},"Ò":{"ha":1080,"x_min":0,"x_max":0,"o":""},"Ó":{"ha":1080,"x_min":0,"x_max":0,"o":""},"Ô":{"ha":1080,"x_min":0,"x_max":0,"o":""},"Õ":{"ha":1080,"x_min":0,"x_max":0,"o":""},"Ö":{"ha":1080,"x_min":0,"x_max":0,"o":""},"×":{"ha":811,"x_min":0,"x_max":0,"o":""},"Ø":{"ha":1080,"x_min":0,"x_max":0,"o":""},"Ù":{"ha":1003,"x_min":0,"x_max":0,"o":""},"Ú":{"ha":1003,"x_min":0,"x_max":0,"o":""},"Û":{"ha":1003,"x_min":0,"x_max":0,"o":""},"Ü":{"ha":1003,"x_min":0,"x_max":0,"o":""},"Ý":{"ha":926,"x_min":0,"x_max":0,"o":""},"Þ":{"ha":926,"x_min":0,"x_max":0,"o":""},"ß":{"ha":848,"x_min":0,"x_max":0,"o":""},"à":{"ha":772,"x_min":0,"x_max":0,"o":""},"á":{"ha":772,"x_min":0,"x_max":0,"o":""},"â":{"ha":772,"x_min":0,"x_max":0,"o":""},"ã":{"ha":772,"x_min":0,"x_max":0,"o":""},"ä":{"ha":772,"x_min":0,"x_max":0,"o":""},"å":{"ha":772,"x_min":0,"x_max":0,"o":""},"æ":{"ha":1235,"x_min":0,"x_max":0,"o":""},"ç":{"ha":694,"x_min":0,"x_max":0,"o":""},"è":{"ha":772,"x_min":0,"x_max":0,"o":""},"é":{"ha":772,"x_min":0,"x_max":0,"o":""},"ê":{"ha":772,"x_min":0,"x_max":0,"o":""},"ë":{"ha":772,"x_min":0,"x_max":0,"o":""},"ì":{"ha":386,"x_min":0,"x_max":0,"o":""},"í":{"ha":386,"x_min":0,"x_max":0,"o":""},"î":{"ha":386,"x_min":0,"x_max":0,"o":""},"ï":{"ha":386,"x_min":0,"x_max":0,"o":""},"ð":{"ha":772,"x_min":0,"x_max":0,"o":""},"ñ":{"ha":772,"x_min":0,"x_max":0,"o":""},"ò":{"ha":772,"x_min":0,"x_max":0,"o":""},"ó":{"ha":772,"x_min":0,"x_max":0,"o":""},"ô":{"ha":772,"x_min":0,"x_max":0,"o":""},"õ":{"ha":772,"x_min":0,"x_max":0,"o":""},"ö":{"ha":772,"x_min":0,"x_max":0,"o":""},"÷":{"ha":762,"x_min":0,"x_max":0,"o":""},"ø":{"ha":848,"x_min":0,"x_max":0,"o":""},"ù":{"ha":772,"x_min":0,"x_max":0,"o":""},"ú":{"ha":772,"x_min":0,"x_max":0,"o":""},"û":{"ha":772,"x_min":0,"x_max":0,"o":""},"ü":{"ha":772,"x_min":0,"x_max":0,"o":""},"ý":{"ha":694,"x_min":0,"x_max":0,"o":""},"þ":{"ha":772,"x_min":0,"x_max":0,"o":""},"ÿ":{"ha":694,"x_min":0,"x_max":0,"o":""},"Ā":{"ha":926,"x_min":0,"x_max":0,"o":""},"ā":{"ha":772,"x_min":0,"x_max":0,"o":""},"Ă":{"ha":926,"x_min":0,"x_max":0,"o":""},"ă":{"ha":772,"x_min":0,"x_max":0,"o":""},"Ą":{"ha":926,"x_min":0,"x_max":0,"o":""},"ą":{"ha":772,"x_min":0,"x_max":0,"o":""},"Ć":{"ha":1003,"x_min":0,"x_max":0,"o":""},"ć":{"ha":694,"x_min":0,"x_max":0,"o":""},"Ĉ":{"ha":1003,"x_min":0,"x_max":0,"o":""},"ĉ":{"ha":694,"x_min":0,"x_max":0,"o":""},"Ċ":{"ha":1003,"x_min":0,"x_max":0,"o":""},"ċ":{"ha":694,"x_min":0,"x_max":0,"o":""},"Č":{"ha":1003,"x_min":0,"x_max":0,"o":""},"č":{"ha":694,"x_min":0,"x_max":0,"o":""},"Ď":{"ha":1003,"x_min":0,"x_max":0,"o":""},"ď":{"ha":854,"x_min":0,"x_max":0,"o":""},"Đ":{"ha":1003,"x_min":0,"x_max":0,"o":""},"đ":{"ha":772,"x_min":0,"x_max":0,"o":""},"Ē":{"ha":926,"x_min":0,"x_max":0,"o":""},"ē":{"ha":772,"x_min":0,"x_max":0,"o":""},"Ĕ":{"ha":926,"x_min":0,"x_max":0,"o":""},"ĕ":{"ha":772,"x_min":0,"x_max":0,"o":""},"Ė":{"ha":926,"x_min":0,"x_max":0,"o":""},"ė":{"ha":772,"x_min":0,"x_max":0,"o":""},"Ę":{"ha":926,"x_min":0,"x_max":0,"o":""},"ę":{"ha":772,"x_min":0,"x_max":0,"o":""},"Ě":{"ha":926,"x_min":0,"x_max":0,"o":""},"ě":{"ha":772,"x_min":0,"x_max":0,"o":""},"Ĝ":{"ha":1080,"x_min":0,"x_max":0,"o":""},"ĝ":{"ha":772,"x_min":0,"x_max":0,"o":""},"Ğ":{"ha":1080,"x_min":0,"x_max":0,"o":""},"ğ":{"ha":772,"x_min":0,"x_max":0,"o":""},"Ġ":{"ha":1080,"x_min":0,"x_max":0,"o":""},"ġ":{"ha":772,"x_min":0,"x_max":0,"o":""},"Ģ":{"ha":1080,"x_min":0,"x_max":0,"o":""},"ģ":{"ha":772,"x_min":0,"x_max":0,"o":""},"Ĥ":{"ha":1003,"x_min":0,"x_max":0,"o":""},"ĥ":{"ha":772,"x_min":0,"x_max":0,"o":""},"Ħ":{"ha":1003,"x_min":0,"x_max":0,"o":""},"ħ":{"ha":772,"x_min":0,"x_max":0,"o":""},"Ĩ":{"ha":386,"x_min":0,"x_max":0,"o":""},"ĩ":{"ha":386,"x_min":0,"x_max":0,"o":""},"Ī":{"ha":386,"x_min":0,"x_max":0,"o":""},"ī":{"ha":386,"x_min":0,"x_max":0,"o":""},"Ĭ":{"ha":386,"x_min":0,"x_max":0,"o":""},"ĭ":{"ha":386,"x_min":0,"x_max":0,"o":""},"Į":{"ha":386,"x_min":0,"x_max":0,"o":""},"į":{"ha":309,"x_min":0,"x_max":0,"o":""},"İ":{"ha":386,"x_min":0,"x_max":0,"o":""},"ı":{"ha":386,"x_min":0,"x_max":0,"o":""},"Ĳ":{"ha":1021,"x_min":0,"x_max":0,"o":""},"ĳ":{"ha":616,"x_min":0,"x_max":0,"o":""},"Ĵ":{"ha":694,"x_min":0,"x_max":0,"o":""},"ĵ":{"ha":309,"x_min":0,"x_max":0,"o":""},"Ķ":{"ha":926,"x_min":0,"x_max":0,"o":""},"ķ":{"ha":694,"x_min":0,"x_max":0,"o":""},"ĸ":{"ha":694,"x_min":0,"x_max":0,"o":""},"Ĺ":{"ha":772,"x_min":0,"x_max":0,"o":""},"ĺ":{"ha":309,"x_min":0,"x_max":0,"o":""},"Ļ":{"ha":772,"x_min":0,"x_max":0,"o":""},"ļ":{"ha":309,"x_min":0,"x_max":0,"o":""},"Ľ":{"ha":772,"x_min":0,"x_max":0,"o":""},"ľ":{"ha":405,"x_min":0,"x_max":0,"o":""},"Ŀ":{"ha":772,"x_min":0,"x_max":0,"o":""},"ŀ":{"ha":464,"x_min":0,"x_max":0,"o":""},"Ł":{"ha":772,"x_min":0,"x_max":0,"o":""},"ł":{"ha":309,"x_min":0,"x_max":0,"o":""},"Ń":{"ha":1003,"x_min":0,"x_max":0,"o":""},"ń":{"ha":772,"x_min":0,"x_max":0,"o":""},"Ņ":{"ha":1003,"x_min":0,"x_max":0,"o":""},"ņ":{"ha":772,"x_min":0,"x_max":0,"o":""},"Ň":{"ha":1003,"x_min":0,"x_max":0,"o":""},"ň":{"ha":772,"x_min":0,"x_max":0,"o":""},"ŉ":{"ha":839,"x_min":0,"x_max":0,"o":""},"Ŋ":{"ha":1004,"x_min":0,"x_max":0,"o":""},"ŋ":{"ha":772,"x_min":0,"x_max":0,"o":""},"Ō":{"ha":1080,"x_min":0,"x_max":0,"o":""},"ō":{"ha":772,"x_min":0,"x_max":0,"o":""},"Ŏ":{"ha":1080,"x_min":0,"x_max":0,"o":""},"ŏ":{"ha":772,"x_min":0,"x_max":0,"o":""},"Ő":{"ha":1080,"x_min":0,"x_max":0,"o":""},"ő":{"ha":772,"x_min":0,"x_max":0,"o":""},"Œ":{"ha":1389,"x_min":0,"x_max":0,"o":""},"œ":{"ha":1311,"x_min":0,"x_max":0,"o":""},"Ŕ":{"ha":1003,"x_min":0,"x_max":0,"o":""},"ŕ":{"ha":463,"x_min":0,"x_max":0,"o":""},"Ŗ":{"ha":1003,"x_min":0,"x_max":0,"o":""},"ŗ":{"ha":463,"x_min":0,"x_max":0,"o":""},"Ř":{"ha":1003,"x_min":0,"x_max":0,"o":""},"ř":{"ha":463,"x_min":0,"x_max":0,"o":""},"Ś":{"ha":926,"x_min":0,"x_max":0,"o":""},"ś":{"ha":694,"x_min":0,"x_max":0,"o":""},"Ŝ":{"ha":926,"x_min":0,"x_max":0,"o":""},"ŝ":{"ha":694,"x_min":0,"x_max":0,"o":""},"Ş":{"ha":926,"x_min":0,"x_max":0,"o":""},"ş":{"ha":694,"x_min":0,"x_max":0,"o":""},"Š":{"ha":926,"x_min":0,"x_max":0,"o":""},"š":{"ha":694,"x_min":0,"x_max":0,"o":""},"Ţ":{"ha":848,"x_min":0,"x_max":0,"o":""},"ţ":{"ha":386,"x_min":0,"x_max":0,"o":""},"Ť":{"ha":848,"x_min":0,"x_max":0,"o":""},"ť":{"ha":521,"x_min":0,"x_max":0,"o":""},"Ŧ":{"ha":848,"x_min":0,"x_max":0,"o":""},"ŧ":{"ha":386,"x_min":0,"x_max":0,"o":""},"Ũ":{"ha":1003,"x_min":0,"x_max":0,"o":""},"ũ":{"ha":772,"x_min":0,"x_max":0,"o":""},"Ū":{"ha":1003,"x_min":0,"x_max":0,"o":""},"ū":{"ha":772,"x_min":0,"x_max":0,"o":""},"Ŭ":{"ha":1003,"x_min":0,"x_max":0,"o":""},"ŭ":{"ha":772,"x_min":0,"x_max":0,"o":""},"Ů":{"ha":1003,"x_min":0,"x_max":0,"o":""},"ů":{"ha":772,"x_min":0,"x_max":0,"o":""},"Ű":{"ha":1003,"x_min":0,"x_max":0,"o":""},"ű":{"ha":772,"x_min":0,"x_max":0,"o":""},"Ų":{"ha":1003,"x_min":0,"x_max":0,"o":""},"ų":{"ha":772,"x_min":0,"x_max":0,"o":""},"Ŵ":{"ha":1311,"x_min":0,"x_max":0,"o":""},"ŵ":{"ha":1003,"x_min":0,"x_max":0,"o":""},"Ŷ":{"ha":926,"x_min":0,"x_max":0,"o":""},"ŷ":{"ha":694,"x_min":0,"x_max":0,"o":""},"Ÿ":{"ha":926,"x_min":0,"x_max":0,"o":""},"Ź":{"ha":848,"x_min":0,"x_max":0,"o":""},"ź":{"ha":694,"x_min":0,"x_max":0,"o":""},"Ż":{"ha":848,"x_min":0,"x_max":0,"o":""},"ż":{"ha":694,"x_min":0,"x_max":0,"o":""},"Ž":{"ha":848,"x_min":0,"x_max":0,"o":""},"ž":{"ha":694,"x_min":0,"x_max":0,"o":""},"ſ":{"ha":309,"x_min":0,"x_max":0,"o":""},"ƒ":{"ha":772,"x_min":0,"x_max":0,"o":""},"Ǻ":{"ha":926,"x_min":0,"x_max":0,"o":""},"ǻ":{"ha":772,"x_min":0,"x_max":0,"o":""},"Ǽ":{"ha":1389,"x_min":0,"x_max":0,"o":""},"ǽ":{"ha":1235,"x_min":0,"x_max":0,"o":""},"Ǿ":{"ha":1080,"x_min":0,"x_max":0,"o":""},"ǿ":{"ha":848,"x_min":0,"x_max":0,"o":""},"ˆ":{"ha":463,"x_min":0,"x_max":0,"o":""},"ˇ":{"ha":463,"x_min":0,"x_max":0,"o":""},"ˉ":{"ha":463,"x_min":0,"x_max":0,"o":""},"˘":{"ha":463,"x_min":0,"x_max":0,"o":""},"˙":{"ha":463,"x_min":0,"x_max":0,"o":""},"˚":{"ha":463,"x_min":0,"x_max":0,"o":""},"˛":{"ha":463,"x_min":0,"x_max":0,"o":""},"˜":{"ha":463,"x_min":0,"x_max":0,"o":""},"˝":{"ha":463,"x_min":0,"x_max":0,"o":""},"΄":{"ha":463,"x_min":0,"x_max":0,"o":""},"΅":{"ha":463,"x_min":0,"x_max":0,"o":""},"Ά":{"ha":927,"x_min":0,"x_max":0,"o":""},"·":{"ha":386,"x_min":0,"x_max":0,"o":""},"Έ":{"ha":1089,"x_min":0,"x_max":0,"o":""},"Ή":{"ha":1164,"x_min":0,"x_max":0,"o":""},"Ί":{"ha":533,"x_min":0,"x_max":0,"o":""},"Ό":{"ha":1076,"x_min":0,"x_max":0,"o":""},"Ύ":{"ha":1188,"x_min":0,"x_max":0,"o":""},"Ώ":{"ha":1045,"x_min":0,"x_max":0,"o":""},"ΐ":{"ha":309,"x_min":0,"x_max":0,"o":""},"Α":{"ha":926,"x_min":0,"x_max":0,"o":""},"Β":{"ha":926,"x_min":0,"x_max":0,"o":""},"Γ":{"ha":765,"x_min":0,"x_max":0,"o":""},"Δ":{"ha":928,"x_min":0,"x_max":0,"o":""},"Ε":{"ha":926,"x_min":0,"x_max":0,"o":""},"Ζ":{"ha":848,"x_min":0,"x_max":0,"o":""},"Η":{"ha":1003,"x_min":0,"x_max":0,"o":""},"Θ":{"ha":1080,"x_min":0,"x_max":0,"o":""},"Ι":{"ha":386,"x_min":0,"x_max":0,"o":""},"Κ":{"ha":926,"x_min":0,"x_max":0,"o":""},"Λ":{"ha":928,"x_min":0,"x_max":0,"o":""},"Μ":{"ha":1157,"x_min":0,"x_max":0,"o":""},"Ν":{"ha":1003,"x_min":0,"x_max":0,"o":""},"Ξ":{"ha":903,"x_min":0,"x_max":0,"o":""},"Ο":{"ha":1080,"x_min":0,"x_max":0,"o":""},"Π":{"ha":1003,"x_min":0,"x_max":0,"o":""},"Ρ":{"ha":926,"x_min":0,"x_max":0,"o":""},"Σ":{"ha":859,"x_min":0,"x_max":0,"o":""},"Τ":{"ha":848,"x_min":0,"x_max":0,"o":""},"Υ":{"ha":926,"x_min":0,"x_max":0,"o":""},"Φ":{"ha":1108,"x_min":0,"x_max":0,"o":""},"Χ":{"ha":926,"x_min":0,"x_max":0,"o":""},"Ψ":{"ha":1160,"x_min":0,"x_max":0,"o":""},"Ω":{"ha":1038,"x_min":0,"x_max":0,"o":""},"Ϊ":{"ha":386,"x_min":0,"x_max":0,"o":""},"Ϋ":{"ha":926,"x_min":0,"x_max":0,"o":""},"ά":{"ha":803,"x_min":0,"x_max":0,"o":""},"έ":{"ha":619,"x_min":0,"x_max":0,"o":""},"ή":{"ha":772,"x_min":0,"x_max":0,"o":""},"ί":{"ha":309,"x_min":0,"x_max":0,"o":""},"ΰ":{"ha":760,"x_min":0,"x_max":0,"o":""},"α":{"ha":803,"x_min":0,"x_max":0,"o":""},"β":{"ha":799,"x_min":0,"x_max":0,"o":""},"γ":{"ha":694,"x_min":0,"x_max":0,"o":""},"δ":{"ha":773,"x_min":0,"x_max":0,"o":""},"ε":{"ha":619,"x_min":0,"x_max":0,"o":""},"ζ":{"ha":612,"x_min":0,"x_max":0,"o":""},"η":{"ha":772,"x_min":0,"x_max":0,"o":""},"θ":{"ha":772,"x_min":0,"x_max":0,"o":""},"ι":{"ha":309,"x_min":0,"x_max":0,"o":""},"κ":{"ha":694,"x_min":0,"x_max":0,"o":""},"λ":{"ha":694,"x_min":0,"x_max":0,"o":""},"μ":{"ha":800,"x_min":0,"x_max":0,"o":""},"ν":{"ha":694,"x_min":0,"x_max":0,"o":""},"ξ":{"ha":622,"x_min":0,"x_max":0,"o":""},"ο":{"ha":772,"x_min":0,"x_max":0,"o":""},"π":{"ha":958,"x_min":0,"x_max":0,"o":""},"ρ":{"ha":790,"x_min":0,"x_max":0,"o":""},"ς":{"ha":669,"x_min":0,"x_max":0,"o":""},"σ":{"ha":857,"x_min":0,"x_max":0,"o":""},"τ":{"ha":549,"x_min":0,"x_max":0,"o":""},"υ":{"ha":760,"x_min":0,"x_max":0,"o":""},"φ":{"ha":901,"x_min":0,"x_max":0,"o":""},"χ":{"ha":729,"x_min":0,"x_max":0,"o":""},"ψ":{"ha":990,"x_min":0,"x_max":0,"o":""},"ω":{"ha":1084,"x_min":0,"x_max":0,"o":""},"ϊ":{"ha":309,"x_min":0,"x_max":0,"o":""},"ϋ":{"ha":760,"x_min":0,"x_max":0,"o":""},"ό":{"ha":772,"x_min":0,"x_max":0,"o":""},"ύ":{"ha":760,"x_min":0,"x_max":0,"o":""},"ώ":{"ha":1084,"x_min":0,"x_max":0,"o":""},"Ё":{"ha":927,"x_min":0,"x_max":0,"o":""},"Ђ":{"ha":1201,"x_min":0,"x_max":0,"o":""},"Ѓ":{"ha":752,"x_min":0,"x_max":0,"o":""},"Є":{"ha":998,"x_min":0,"x_max":0,"o":""},"Ѕ":{"ha":926,"x_min":0,"x_max":0,"o":""},"І":{"ha":386,"x_min":0,"x_max":0,"o":""},"Ї":{"ha":386,"x_min":0,"x_max":0,"o":""},"Ј":{"ha":694,"x_min":0,"x_max":0,"o":""},"Љ":{"ha":1468,"x_min":0,"x_max":0,"o":""},"Њ":{"ha":1403,"x_min":0,"x_max":0,"o":""},"Ћ":{"ha":1186,"x_min":0,"x_max":0,"o":""},"Ќ":{"ha":809,"x_min":0,"x_max":0,"o":""},"Ў":{"ha":882,"x_min":0,"x_max":0,"o":""},"Џ":{"ha":998,"x_min":0,"x_max":0,"o":""},"А":{"ha":926,"x_min":0,"x_max":0,"o":""},"Б":{"ha":911,"x_min":0,"x_max":0,"o":""},"В":{"ha":926,"x_min":0,"x_max":0,"o":""},"Г":{"ha":752,"x_min":0,"x_max":0,"o":""},"Д":{"ha":941,"x_min":0,"x_max":0,"o":""},"Е":{"ha":926,"x_min":0,"x_max":0,"o":""},"Ж":{"ha":1282,"x_min":0,"x_max":0,"o":""},"З":{"ha":839,"x_min":0,"x_max":0,"o":""},"И":{"ha":998,"x_min":0,"x_max":0,"o":""},"Й":{"ha":998,"x_min":0,"x_max":0,"o":""},"К":{"ha":809,"x_min":0,"x_max":0,"o":""},"Л":{"ha":911,"x_min":0,"x_max":0,"o":""},"М":{"ha":1157,"x_min":0,"x_max":0,"o":""},"Н":{"ha":1003,"x_min":0,"x_max":0,"o":""},"О":{"ha":1080,"x_min":0,"x_max":0,"o":""},"П":{"ha":998,"x_min":0,"x_max":0,"o":""},"Р":{"ha":926,"x_min":0,"x_max":0,"o":""},"С":{"ha":1003,"x_min":0,"x_max":0,"o":""},"Т":{"ha":848,"x_min":0,"x_max":0,"o":""},"У":{"ha":882,"x_min":0,"x_max":0,"o":""},"Ф":{"ha":1056,"x_min":0,"x_max":0,"o":""},"Х":{"ha":926,"x_min":0,"x_max":0,"o":""},"Ц":{"ha":1027,"x_min":0,"x_max":0,"o":""},"Ч":{"ha":926,"x_min":0,"x_max":0,"o":""},"Ш":{"ha":1273,"x_min":0,"x_max":0,"o":""},"Щ":{"ha":1302,"x_min":0,"x_max":0,"o":""},"Ъ":{"ha":1099,"x_min":0,"x_max":0,"o":""},"Ы":{"ha":1230,"x_min":0,"x_max":0,"o":""},"Ь":{"ha":911,"x_min":0,"x_max":0,"o":""},"Э":{"ha":998,"x_min":0,"x_max":0,"o":""},"Ю":{"ha":1403,"x_min":0,"x_max":0,"o":""},"Я":{"ha":1003,"x_min":0,"x_max":0,"o":""},"а":{"ha":772,"x_min":0,"x_max":0,"o":""},"б":{"ha":795,"x_min":0,"x_max":0,"o":""},"в":{"ha":738,"x_min":0,"x_max":0,"o":""},"г":{"ha":507,"x_min":0,"x_max":0,"o":""},"д":{"ha":810,"x_min":0,"x_max":0,"o":""},"е":{"ha":772,"x_min":0,"x_max":0,"o":""},"ж":{"ha":929,"x_min":0,"x_max":0,"o":""},"з":{"ha":637,"x_min":0,"x_max":0,"o":""},"и":{"ha":776,"x_min":0,"x_max":0,"o":""},"й":{"ha":776,"x_min":0,"x_max":0,"o":""},"к":{"ha":608,"x_min":0,"x_max":0,"o":""},"л":{"ha":810,"x_min":0,"x_max":0,"o":""},"м":{"ha":955,"x_min":0,"x_max":0,"o":""},"н":{"ha":767,"x_min":0,"x_max":0,"o":""},"о":{"ha":772,"x_min":0,"x_max":0,"o":""},"п":{"ha":752,"x_min":0,"x_max":0,"o":""},"р":{"ha":772,"x_min":0,"x_max":0,"o":""},"с":{"ha":694,"x_min":0,"x_max":0,"o":""},"т":{"ha":636,"x_min":0,"x_max":0,"o":""},"у":{"ha":694,"x_min":0,"x_max":0,"o":""},"ф":{"ha":1143,"x_min":0,"x_max":0,"o":""},"х":{"ha":694,"x_min":0,"x_max":0,"o":""},"ц":{"ha":795,"x_min":0,"x_max":0,"o":""},"ч":{"ha":724,"x_min":0,"x_max":0,"o":""},"ш":{"ha":1114,"x_min":0,"x_max":0,"o":""},"щ":{"ha":1143,"x_min":0,"x_max":0,"o":""},"ъ":{"ha":868,"x_min":0,"x_max":0,"o":""},"ы":{"ha":998,"x_min":0,"x_max":0,"o":""},"ь":{"ha":724,"x_min":0,"x_max":0,"o":""},"э":{"ha":709,"x_min":0,"x_max":0,"o":""},"ю":{"ha":1042,"x_min":0,"x_max":0,"o":""},"я":{"ha":752,"x_min":0,"x_max":0,"o":""},"ё":{"ha":772,"x_min":0,"x_max":0,"o":""},"ђ":{"ha":772,"x_min":0,"x_max":0,"o":""},"ѓ":{"ha":507,"x_min":0,"x_max":0,"o":""},"є":{"ha":709,"x_min":0,"x_max":0,"o":""},"ѕ":{"ha":694,"x_min":0,"x_max":0,"o":""},"і":{"ha":309,"x_min":0,"x_max":0,"o":""},"ї":{"ha":386,"x_min":0,"x_max":0,"o":""},"ј":{"ha":309,"x_min":0,"x_max":0,"o":""},"љ":{"ha":1259,"x_min":0,"x_max":0,"o":""},"њ":{"ha":1128,"x_min":0,"x_max":0,"o":""},"ћ":{"ha":772,"x_min":0,"x_max":0,"o":""},"ќ":{"ha":608,"x_min":0,"x_max":0,"o":""},"ў":{"ha":694,"x_min":0,"x_max":0,"o":""},"џ":{"ha":767,"x_min":0,"x_max":0,"o":""},"Ґ":{"ha":679,"x_min":0,"x_max":0,"o":""},"ґ":{"ha":571,"x_min":0,"x_max":0,"o":""},"Ẁ":{"ha":1311,"x_min":0,"x_max":0,"o":""},"ẁ":{"ha":1003,"x_min":0,"x_max":0,"o":""},"Ẃ":{"ha":1311,"x_min":0,"x_max":0,"o":""},"ẃ":{"ha":1003,"x_min":0,"x_max":0,"o":""},"Ẅ":{"ha":1311,"x_min":0,"x_max":0,"o":""},"ẅ":{"ha":1003,"x_min":0,"x_max":0,"o":""},"Ỳ":{"ha":926,"x_min":0,"x_max":0,"o":""},"ỳ":{"ha":694,"x_min":0,"x_max":0,"o":""},"–":{"ha":772,"x_min":0,"x_max":0,"o":""},"—":{"ha":1389,"x_min":0,"x_max":0,"o":""},"―":{"ha":1389,"x_min":0,"x_max":0,"o":""},"‗":{"ha":767,"x_min":0,"x_max":0,"o":""},"‘":{"ha":309,"x_min":0,"x_max":0,"o":""},"’":{"ha":309,"x_min":0,"x_max":0,"o":""},"‚":{"ha":309,"x_min":0,"x_max":0,"o":""},"‛":{"ha":309,"x_min":0,"x_max":0,"o":""},"“":{"ha":463,"x_min":0,"x_max":0,"o":""},"”":{"ha":463,"x_min":0,"x_max":0,"o":""},"„":{"ha":463,"x_min":0,"x_max":0,"o":""},"†":{"ha":772,"x_min":0,"x_max":0,"o":""},"‡":{"ha":772,"x_min":0,"x_max":0,"o":""},"•":{"ha":486,"x_min":0,"x_max":0,"o":""},"…":{"ha":1389,"x_min":0,"x_max":0,"o":""},"‰":{"ha":1389,"x_min":0,"x_max":0,"o":""},"′":{"ha":260,"x_min":0,"x_max":0,"o":""},"″":{"ha":492,"x_min":0,"x_max":0,"o":""},"‹":{"ha":463,"x_min":0,"x_max":0,"o":""},"›":{"ha":463,"x_min":0,"x_max":0,"o":""},"‼":{"ha":694,"x_min":0,"x_max":0,"o":""},"‾":{"ha":463,"x_min":0,"x_max":0,"o":""},"⁄":{"ha":232,"x_min":0,"x_max":0,"o":""},"∕":{"ha":232,"x_min":0,"x_max":0,"o":""},"ⁿ":{"ha":507,"x_min":0,"x_max":0,"o":""},"₣":{"ha":772,"x_min":0,"x_max":0,"o":""},"₤":{"ha":772,"x_min":0,"x_max":0,"o":""},"₧":{"ha":1519,"x_min":0,"x_max":0,"o":""},"€":{"ha":772,"x_min":0,"x_max":0,"o":""},"℅":{"ha":1230,"x_min":0,"x_max":0,"o":""},"ℓ":{"ha":449,"x_min":0,"x_max":0,"o":""},"№":{"ha":1490,"x_min":0,"x_max":0,"o":""},"™":{"ha":1389,"x_min":0,"x_max":0,"o":""},"Ω":{"ha":1067,"x_min":0,"x_max":0,"o":""},"℮":{"ha":833,"x_min":0,"x_max":0,"o":""},"⅛":{"ha":1158,"x_min":0,"x_max":0,"o":""},"⅜":{"ha":1158,"x_min":0,"x_max":0,"o":""},"⅝":{"ha":1158,"x_min":0,"x_max":0,"o":""},"⅞":{"ha":1158,"x_min":0,"x_max":0,"o":""},"←":{"ha":1389,"x_min":0,"x_max":0,"o":""},"↑":{"ha":694,"x_min":0,"x_max":0,"o":""},"→":{"ha":1389,"x_min":0,"x_max":0,"o":""},"↓":{"ha":694,"x_min":0,"x_max":0,"o":""},"↔":{"ha":1389,"x_min":0,"x_max":0,"o":""},"↕":{"ha":694,"x_min":0,"x_max":0,"o":""},"↨":{"ha":694,"x_min":0,"x_max":0,"o":""},"∂":{"ha":686,"x_min":0,"x_max":0,"o":""},"∆":{"ha":850,"x_min":0,"x_max":0,"o":""},"∏":{"ha":1143,"x_min":0,"x_max":0,"o":""},"∑":{"ha":990,"x_min":0,"x_max":0,"o":""},"−":{"ha":811,"x_min":0,"x_max":0,"o":""},"√":{"ha":762,"x_min":0,"x_max":0,"o":""},"∞":{"ha":990,"x_min":0,"x_max":0,"o":""},"∟":{"ha":1360,"x_min":0,"x_max":0,"o":""},"∩":{"ha":998,"x_min":0,"x_max":0,"o":""},"∫":{"ha":380,"x_min":0,"x_max":0,"o":""},"≈":{"ha":762,"x_min":0,"x_max":0,"o":""},"≠":{"ha":762,"x_min":0,"x_max":0,"o":""},"≡":{"ha":810,"x_min":0,"x_max":0,"o":""},"≤":{"ha":762,"x_min":0,"x_max":0,"o":""},"≥":{"ha":762,"x_min":0,"x_max":0,"o":""},"⌂":{"ha":839,"x_min":0,"x_max":0,"o":""},"⌐":{"ha":811,"x_min":0,"x_max":0,"o":""},"⌠":{"ha":839,"x_min":0,"x_max":0,"o":""},"⌡":{"ha":839,"x_min":0,"x_max":0,"o":""},"─":{"ha":984,"x_min":0,"x_max":0,"o":""},"│":{"ha":868,"x_min":0,"x_max":0,"o":""},"┌":{"ha":984,"x_min":0,"x_max":0,"o":""},"┐":{"ha":984,"x_min":0,"x_max":0,"o":""},"└":{"ha":984,"x_min":0,"x_max":0,"o":""},"┘":{"ha":984,"x_min":0,"x_max":0,"o":""},"├":{"ha":984,"x_min":0,"x_max":0,"o":""},"┤":{"ha":984,"x_min":0,"x_max":0,"o":""},"┬":{"ha":984,"x_min":0,"x_max":0,"o":""},"┴":{"ha":984,"x_min":0,"x_max":0,"o":""},"┼":{"ha":984,"x_min":0,"x_max":0,"o":""},"═":{"ha":984,"x_min":0,"x_max":0,"o":""},"║":{"ha":984,"x_min":0,"x_max":0,"o":""},"╒":{"ha":984,"x_min":0,"x_max":0,"o":""},"╓":{"ha":984,"x_min":0,"x_max":0,"o":""},"╔":{"ha":984,"x_min":0,"x_max":0,"o":""},"╕":{"ha":984,"x_min":0,"x_max":0,"o":""},"╖":{"ha":984,"x_min":0,"x_max":0,"o":""},"╗":{"ha":984,"x_min":0,"x_max":0,"o":""},"╘":{"ha":984,"x_min":0,"x_max":0,"o":""},"╙":{"ha":984,"x_min":0,"x_max":0,"o":""},"╚":{"ha":984,"x_min":0,"x_max":0,"o":""},"╛":{"ha":984,"x_min":0,"x_max":0,"o":""},"╜":{"ha":984,"x_min":0,"x_max":0,"o":""},"╝":{"ha":984,"x_min":0,"x_max":0,"o":""},"╞":{"ha":984,"x_min":0,"x_max":0,"o":""},"╟":{"ha":984,"x_min":0,"x_max":0,"o":""},"╠":{"ha":984,"x_min":0,"x_max":0,"o":""},"╡":{"ha":984,"x_min":0,"x_max":0,"o":""},"╢":{"ha":984,"x_min":0,"x_max":0,"o":""},"╣":{"ha":984,"x_min":0,"x_max":0,"o":""},"╤":{"ha":984,"x_min":0,"x_max":0,"o":""},"╥":{"ha":984,"x_min":0,"x_max":0,"o":""},"╦":{"ha":984,"x_min":0,"x_max":0,"o":""},"╧":{"ha":984,"x_min":0,"x_max":0,"o":""},"╨":{"ha":984,"x_min":0,"x_max":0,"o":""},"╩":{"ha":984,"x_min":0,"x_max":0,"o":""},"╪":{"ha":984,"x_min":0,"x_max":0,"o":""},"╫":{"ha":984,"x_min":0,"x_max":0,"o":""},"╬":{"ha":984,"x_min":0,"x_max":0,"o":""},"▀":{"ha":984,"x_min":0,"x_max":0,"o":""},"▄":{"ha":984,"x_min":0,"x_max":0,"o":""},"█":{"ha":984,"x_min":0,"x_max":0,"o":""},"▌":{"ha":984,"x_min":0,"x_max":0,"o":""},"▐":{"ha":984,"x_min":0,"x_max":0,"o":""},"░":{"ha":984,"x_min":0,"x_max":0,"o":""},"▒":{"ha":984,"x_min":0,"x_max":0,"o":""},"▓":{"ha":1013,"x_min":0,"x_max":0,"o":""},"■":{"ha":839,"x_min":0,"x_max":0,"o":""},"□":{"ha":839,"x_min":0,"x_max":0,"o":""},"▪":{"ha":492,"x_min":0,"x_max":0,"o":""},"▫":{"ha":492,"x_min":0,"x_max":0,"o":""},"▬":{"ha":1389,"x_min":0,"x_max":0,"o":""},"▲":{"ha":1375,"x_min":0,"x_max":0,"o":""},"►":{"ha":1375,"x_min":0,"x_max":0,"o":""},"▼":{"ha":1375,"x_min":0,"x_max":0,"o":""},"◄":{"ha":1375,"x_min":0,"x_max":0,"o":""},"◊":{"ha":686,"x_min":0,"x_max":0,"o":""},"○":{"ha":839,"x_min":0,"x_max":0,"o":""},"●":{"ha":839,"x_min":0,"x_max":0,"o":""},"◘":{"ha":839,"x_min":0,"x_max":0,"o":""},"◙":{"ha":839,"x_min":0,"x_max":0,"o":""},"◦":{"ha":492,"x_min":0,"x_max":0,"o":""},"☺":{"ha":1418,"x_min":0,"x_max":0,"o":""},"☻":{"ha":1461,"x_min":0,"x_max":0,"o":""},"☼":{"ha":1273,"x_min":0,"x_max":0,"o":""},"♀":{"ha":1042,"x_min":0,"x_max":0,"o":""},"♂":{"ha":1042,"x_min":0,"x_max":0,"o":""},"♠":{"ha":738,"x_min":0,"x_max":0,"o":""},"♣":{"ha":911,"x_min":0,"x_max":0,"o":""},"♥":{"ha":825,"x_min":0,"x_max":0,"o":""},"♦":{"ha":709,"x_min":0,"x_max":0,"o":""},"♪":{"ha":694,"x_min":0,"x_max":0,"o":""},"♫":{"ha":1042,"x_min":0,"x_max":0,"o":""},"":{"ha":694,"x_min":0,"x_max":0,"o":""},"ﬁ":{"ha":694,"x_min":0,"x_max":0,"o":""},"":{"ha":694,"x_min":0,"x_max":0,"o":""},"ﬂ":{"ha":694,"x_min":0,"x_max":0,"o":""},"":{"ha":463,"x_min":0,"x_max":0,"o":""},"":{"ha":463,"x_min":0,"x_max":0,"o":""}}}
